<svg width="25" height="24" viewBox="0 0 25 24" fill="none" xmlns="http://www.w3.org/2000/svg">
<path d="M13.2172 2.00009C13.9735 2.00009 14.6582 2.42009 15.0363 3.04009C15.2203 3.34009 15.3429 3.71009 15.3122 4.10009C15.2918 4.40009 15.3838 4.70009 15.5473 4.98009C16.0685 5.83009 17.2233 6.15009 18.1226 5.67009C19.1344 5.09009 20.4118 5.44009 20.9943 6.43009L21.679 7.61009C22.2718 8.60009 21.9447 9.87009 20.9228 10.4401C20.0541 10.9501 19.7475 12.0801 20.2687 12.9401C20.4322 13.2101 20.6162 13.4401 20.9023 13.5801C21.26 13.7701 21.536 14.0701 21.7301 14.3701C22.1083 14.9901 22.0776 15.7501 21.7097 16.4201L20.9943 17.6201C20.6162 18.2601 19.911 18.6601 19.1855 18.6601C18.8278 18.6601 18.4292 18.5601 18.1022 18.3601C17.8365 18.1901 17.5299 18.1301 17.2029 18.1301C16.1911 18.1301 15.3429 18.9601 15.3122 19.9501C15.3122 21.1001 14.372 22.0001 13.1968 22.0001H11.8069C10.6215 22.0001 9.68125 21.1001 9.68125 19.9501C9.66081 18.9601 8.81259 18.1301 7.80085 18.1301C7.46361 18.1301 7.15702 18.1901 6.90153 18.3601C6.5745 18.5601 6.16572 18.6601 5.81825 18.6601C5.08245 18.6601 4.37729 18.2601 3.99917 17.6201L3.29402 16.4201C2.9159 15.7701 2.89546 14.9901 3.27358 14.3701C3.43709 14.0701 3.74368 13.7701 4.09115 13.5801C4.37729 13.4401 4.56125 13.2101 4.73498 12.9401C5.24596 12.0801 4.93937 10.9501 4.07071 10.4401C3.05897 9.87009 2.73194 8.60009 3.31446 7.61009L3.99917 6.43009C4.59191 5.44009 5.85913 5.09009 6.88109 5.67009C7.77019 6.15009 8.925 5.83009 9.4462 4.98009C9.60972 4.70009 9.70169 4.40009 9.68125 4.10009C9.66081 3.71009 9.77323 3.34009 9.9674 3.04009C10.3455 2.42009 11.0302 2.02009 11.7763 2.00009H13.2172ZM12.5121 9.18009C10.9076 9.18009 9.60972 10.4401 9.60972 12.0101C9.60972 13.5801 10.9076 14.8301 12.5121 14.8301C14.1165 14.8301 15.3838 13.5801 15.3838 12.0101C15.3838 10.4401 14.1165 9.18009 12.5121 9.18009Z" fill="#47A082"/>
</svg>
