<svg width="40" height="40" viewBox="0 0 40 40" fill="none" xmlns="http://www.w3.org/2000/svg">
<rect width="40" height="40" rx="20" fill="#47A082" fill-opacity="0.1"/>
<g clip-path="url(#clip0_112_60)">
<path d="M20.0083 24.1667C19.2999 24.1667 18.5833 23.9834 18.0249 23.625L13.0083 20.35C12.0749 19.7417 11.5166 18.7167 11.5166 17.6C11.5166 16.4834 12.0749 15.4584 13.0083 14.85L18.0333 11.5834C19.1499 10.8584 20.8916 10.8584 21.9999 11.5917L26.9916 14.8667C27.9166 15.475 28.4749 16.5 28.4749 17.6084C28.4749 18.7167 27.9166 19.7417 26.9916 20.35L21.9999 23.625C21.4416 23.9917 20.7249 24.1667 20.0083 24.1667ZM20.0083 12.2917C19.5333 12.2917 19.0583 12.4 18.7166 12.6334L13.6999 15.9C13.1166 16.2834 12.7749 16.9 12.7749 17.6C12.7749 18.3 13.1083 18.9167 13.6999 19.3L18.7166 22.575C19.4083 23.025 20.6249 23.025 21.3166 22.575L26.3083 19.3C26.8916 18.9167 27.2249 18.3 27.2249 17.6C27.2249 16.9 26.8916 16.2834 26.3083 15.9L21.3166 12.625C20.9666 12.4084 20.4916 12.2917 20.0083 12.2917Z" fill="#47A082"/>
<path d="M19.9998 28.9584C19.6332 28.9584 19.2582 28.9084 18.9582 28.8084L16.2998 27.925C15.0415 27.5084 14.0498 26.1334 14.0582 24.8084L14.0665 20.9C14.0665 20.5584 14.3498 20.275 14.6915 20.275C15.0332 20.275 15.3165 20.5584 15.3165 20.9L15.3082 24.8084C15.3082 25.5917 15.9582 26.4917 16.6998 26.7417L19.3582 27.625C19.6915 27.7334 20.3082 27.7334 20.6415 27.625L23.2998 26.7417C24.0415 26.4917 24.6915 25.5917 24.6915 24.8167V20.95C24.6915 20.6084 24.9748 20.325 25.3165 20.325C25.6582 20.325 25.9415 20.6084 25.9415 20.95V24.8167C25.9415 26.1417 24.9582 27.5084 23.6998 27.9334L21.0415 28.8167C20.7415 28.9084 20.3665 28.9584 19.9998 28.9584Z" fill="#47A082"/>
<path d="M27.8335 23.125C27.4918 23.125 27.2085 22.8417 27.2085 22.5V17.5C27.2085 17.1583 27.4918 16.875 27.8335 16.875C28.1752 16.875 28.4585 17.1583 28.4585 17.5V22.5C28.4585 22.8417 28.1752 23.125 27.8335 23.125Z" fill="#47A082"/>
</g>
<defs>
<clipPath id="clip0_112_60">
<rect width="20" height="20" fill="white" transform="translate(10 10)"/>
</clipPath>
</defs>
</svg>
