<svg width="24" height="24" viewBox="0 0 24 24" fill="none" xmlns="http://www.w3.org/2000/svg">
<path d="M21 4.5H11.8935C11.5581 3.20981 10.3937 2.25 9 2.25C7.60631 2.25 6.44194 3.20981 6.1065 4.5H3C2.58581 4.5 2.25 4.83581 2.25 5.25C2.25 5.66419 2.58581 6 3 6H6.1065C6.44194 7.29019 7.60631 8.25 9 8.25C10.3937 8.25 11.5581 7.29019 11.8935 6H21C21.4142 6 21.75 5.66419 21.75 5.25C21.75 4.83581 21.4142 4.5 21 4.5ZM9 6.75C8.17275 6.75 7.5 6.07725 7.5 5.25C7.5 4.42275 8.17275 3.75 9 3.75C9.82725 3.75 10.5 4.42275 10.5 5.25C10.5 6.07725 9.82725 6.75 9 6.75ZM21 11.25H17.8935C17.5581 9.95981 16.3937 9 15 9C13.6063 9 12.4419 9.95981 12.1065 11.25H3C2.58581 11.25 2.25 11.5858 2.25 12C2.25 12.4142 2.58581 12.75 3 12.75H12.1065C12.4419 14.0402 13.6063 15 15 15C16.3937 15 17.5581 14.0402 17.8935 12.75H21C21.4142 12.75 21.75 12.4142 21.75 12C21.75 11.5858 21.4142 11.25 21 11.25ZM15 13.5C14.1727 13.5 13.5 12.8273 13.5 12C13.5 11.1727 14.1727 10.5 15 10.5C15.8273 10.5 16.5 11.1727 16.5 12C16.5 12.8273 15.8273 13.5 15 13.5ZM21 18H11.8935C11.5581 16.7098 10.3937 15.75 9 15.75C7.60631 15.75 6.44194 16.7098 6.1065 18H3C2.58581 18 2.25 18.3358 2.25 18.75C2.25 19.1642 2.58581 19.5 3 19.5H6.1065C6.44194 20.7902 7.60631 21.75 9 21.75C10.3937 21.75 11.5581 20.7902 11.8935 19.5H21C21.4142 19.5 21.75 19.1642 21.75 18.75C21.75 18.3358 21.4142 18 21 18ZM9 20.25C8.17275 20.25 7.5 19.5772 7.5 18.75C7.5 17.9227 8.17275 17.25 9 17.25C9.82725 17.25 10.5 17.9227 10.5 18.75C10.5 19.5772 9.82725 20.25 9 20.25Z" fill="#47A082"/>
</svg>
