<svg width="24" height="24" viewBox="0 0 24 24" fill="none" xmlns="http://www.w3.org/2000/svg">
<path d="M12.0098 17C11.1598 17 10.2998 16.78 9.62982 16.35L3.60982 12.42C2.48982 11.69 1.81982 10.46 1.81982 9.12003C1.81982 7.78003 2.48982 6.55003 3.60982 5.82003L9.63982 1.90003C10.9798 1.03003 13.0698 1.03003 14.3998 1.91003L20.3898 5.84003C21.4998 6.57003 22.1698 7.80003 22.1698 9.13003C22.1698 10.46 21.4998 11.69 20.3898 12.42L14.3998 16.35C13.7298 16.79 12.8698 17 12.0098 17ZM12.0098 2.75003C11.4398 2.75003 10.8698 2.88003 10.4598 3.16003L4.43982 7.08003C3.73982 7.54003 3.32982 8.28003 3.32982 9.12003C3.32982 9.96003 3.72982 10.7 4.43982 11.16L10.4598 15.09C11.2898 15.63 12.7498 15.63 13.5798 15.09L19.5698 11.16C20.2698 10.7 20.6698 9.96003 20.6698 9.12003C20.6698 8.28003 20.2698 7.54003 19.5698 7.08003L13.5798 3.15003C13.1598 2.89003 12.5898 2.75003 12.0098 2.75003Z" fill="#47A082"/>
<path d="M12.0002 22.75C11.5602 22.75 11.1102 22.69 10.7502 22.57L7.56018 21.51C6.05018 21.01 4.86018 19.36 4.87018 17.77L4.88018 13.08C4.88018 12.67 5.22018 12.33 5.63018 12.33C6.04018 12.33 6.38018 12.67 6.38018 13.08L6.37018 17.77C6.37018 18.71 7.15018 19.79 8.04018 20.09L11.2302 21.15C11.6302 21.28 12.3702 21.28 12.7702 21.15L15.9602 20.09C16.8502 19.79 17.6302 18.71 17.6302 17.78V13.14C17.6302 12.73 17.9702 12.39 18.3802 12.39C18.7902 12.39 19.1302 12.73 19.1302 13.14V17.78C19.1302 19.37 17.9502 21.01 16.4402 21.52L13.2502 22.58C12.8902 22.69 12.4402 22.75 12.0002 22.75Z" fill="#47A082"/>
<path d="M21.3999 15.75C20.9899 15.75 20.6499 15.41 20.6499 15V9C20.6499 8.59 20.9899 8.25 21.3999 8.25C21.8099 8.25 22.1499 8.59 22.1499 9V15C22.1499 15.41 21.8099 15.75 21.3999 15.75Z" fill="#47A082"/>
</svg>
