<svg width="41" height="40" viewBox="0 0 41 40" fill="none" xmlns="http://www.w3.org/2000/svg">
<rect x="0.5" width="40" height="40" rx="20" fill="#F2F2F2"/>
<g clip-path="url(#clip0_112_466)">
<path d="M23.8332 28.9583H17.1665C13.3165 28.9583 12.5999 27.1666 12.4165 25.425L11.7915 18.75C11.6999 17.875 11.6749 16.5833 12.5415 15.6166C13.2915 14.7833 14.5332 14.3833 16.3332 14.3833H24.6665C26.4749 14.3833 27.7165 14.7916 28.4582 15.6166C29.3249 16.5833 29.2999 17.875 29.2082 18.7583L28.5832 25.4166C28.3999 27.1666 27.6832 28.9583 23.8332 28.9583ZM16.3332 15.625C14.9249 15.625 13.9582 15.9 13.4665 16.45C13.0582 16.9 12.9249 17.5916 13.0332 18.625L13.6582 25.3C13.7999 26.6166 14.1582 27.7083 17.1665 27.7083H23.8332C26.8332 27.7083 27.1999 26.6166 27.3415 25.2916L27.9665 18.6333C28.0749 17.5916 27.9415 16.9 27.5332 16.45C27.0415 15.9 26.0749 15.625 24.6665 15.625H16.3332Z" fill="#292D32"/>
<path d="M23.8332 15.625C23.4915 15.625 23.2082 15.3416 23.2082 15V14.3333C23.2082 12.85 23.2082 12.2916 21.1665 12.2916H19.8332C17.7915 12.2916 17.7915 12.85 17.7915 14.3333V15C17.7915 15.3416 17.5082 15.625 17.1665 15.625C16.8248 15.625 16.5415 15.3416 16.5415 15V14.3333C16.5415 12.8666 16.5415 11.0416 19.8332 11.0416H21.1665C24.4582 11.0416 24.4582 12.8666 24.4582 14.3333V15C24.4582 15.3416 24.1748 15.625 23.8332 15.625Z" fill="#292D32"/>
<path d="M20.5002 23.9583C18.2085 23.9583 18.2085 22.5417 18.2085 21.6917V20.8333C18.2085 19.6583 18.4918 19.375 19.6668 19.375H21.3335C22.5085 19.375 22.7918 19.6583 22.7918 20.8333V21.6667C22.7918 22.5333 22.7918 23.9583 20.5002 23.9583ZM19.4585 20.625C19.4585 20.6917 19.4585 20.7667 19.4585 20.8333V21.6917C19.4585 22.55 19.4585 22.7083 20.5002 22.7083C21.5418 22.7083 21.5418 22.575 21.5418 21.6833V20.8333C21.5418 20.7667 21.5418 20.6917 21.5418 20.625C21.4752 20.625 21.4002 20.625 21.3335 20.625H19.6668C19.6002 20.625 19.5252 20.625 19.4585 20.625Z" fill="#292D32"/>
<path d="M22.1667 22.3084C21.8584 22.3084 21.5834 22.075 21.5501 21.7584C21.5084 21.4167 21.7501 21.1 22.0917 21.0584C24.2917 20.7834 26.4001 19.95 28.1751 18.6584C28.4501 18.45 28.8417 18.5167 29.0501 18.8C29.2501 19.075 29.1917 19.4667 28.9084 19.675C26.9584 21.0917 24.6584 22 22.2417 22.3084C22.2167 22.3084 22.1917 22.3084 22.1667 22.3084Z" fill="#292D32"/>
<path d="M18.8334 22.3167C18.8084 22.3167 18.7834 22.3167 18.7584 22.3167C16.4751 22.0583 14.2501 21.225 12.3251 19.9083C12.0418 19.7167 11.9668 19.325 12.1584 19.0417C12.3501 18.7583 12.7418 18.6833 13.0251 18.875C14.7834 20.075 16.8084 20.8333 18.8918 21.075C19.2334 21.1167 19.4834 21.425 19.4418 21.7667C19.4168 22.0833 19.1501 22.3167 18.8334 22.3167Z" fill="#292D32"/>
</g>
<defs>
<clipPath id="clip0_112_466">
<rect width="20" height="20" fill="white" transform="translate(10.5 10)"/>
</clipPath>
</defs>
</svg>
