<svg width="21" height="20" viewBox="0 0 21 20" fill="none" xmlns="http://www.w3.org/2000/svg">
<path fill-rule="evenodd" clip-rule="evenodd" d="M10.568 1.039C12.194 0.0109961 14.354 -0.273004 16.22 0.324996C20.279 1.634 21.539 6.059 20.412 9.58C18.673 15.11 11.246 19.235 10.931 19.408C10.819 19.47 10.695 19.501 10.571 19.501C10.447 19.501 10.324 19.471 10.212 19.41C9.89896 19.239 2.52596 15.175 0.728964 9.581L0.727964 9.58C-0.400036 6.058 0.855965 1.632 4.91096 0.324996C6.81496 -0.291004 8.88996 -0.0200039 10.568 1.039ZM5.37096 1.753C2.08996 2.811 1.26596 6.34 2.15696 9.123C3.55896 13.485 9.09796 17.012 10.57 17.885C12.047 17.003 17.626 13.437 18.983 9.127C19.874 6.341 19.047 2.812 15.761 1.753C14.169 1.242 12.312 1.553 11.03 2.545C10.762 2.751 10.39 2.755 10.12 2.551C8.76196 1.53 6.98796 1.231 5.37096 1.753ZM14.801 3.7389C16.164 4.1799 17.119 5.3869 17.236 6.8139C17.269 7.2269 16.962 7.5889 16.549 7.6219C16.528 7.6239 16.508 7.6249 16.487 7.6249C16.1 7.6249 15.772 7.3279 15.74 6.9359C15.674 6.1139 15.124 5.4199 14.341 5.1669C13.946 5.0389 13.73 4.6159 13.857 4.2229C13.986 3.8289 14.405 3.6149 14.801 3.7389Z" fill="#494949"/>
</svg>
