<svg width="25" height="24" viewBox="0 0 25 24" fill="none" xmlns="http://www.w3.org/2000/svg">
<path fill-rule="evenodd" clip-rule="evenodd" d="M6.88176 20.3423C7.73856 20.3423 8.43576 21.0383 8.43576 21.8951C8.43576 22.7519 7.73856 23.4491 6.88176 23.4491C6.02496 23.4491 5.32896 22.7519 5.32896 21.8951C5.32896 21.0383 6.02496 20.3423 6.88176 20.3423ZM20.4181 20.3423C21.2761 20.3423 21.9733 21.0383 21.9733 21.8951C21.9733 22.7519 21.2761 23.4491 20.4181 23.4491C19.5613 23.4491 18.8653 22.7519 18.8653 21.8951C18.8653 21.0383 19.5613 20.3423 20.4181 20.3423ZM1.7508 0.0113844L4.2468 0.443384C4.6488 0.514184 4.9548 0.847784 4.9896 1.25578L5.2716 4.61698L6.32022 4.61744C6.49134 4.61751 6.66064 4.61759 6.82814 4.61766L8.75331 4.61858C8.90677 4.61866 9.05851 4.61873 9.20855 4.61881L11.3342 4.61998C11.4678 4.62005 11.5997 4.62013 11.7301 4.62021L13.2197 4.62116C13.3377 4.62124 13.4542 4.62132 13.5692 4.6214L14.8794 4.62237C14.9828 4.62245 15.0848 4.62253 15.1855 4.62261L16.3278 4.62359C16.4177 4.62367 16.5062 4.62376 16.5935 4.62384L17.3443 4.62458C17.4239 4.62467 17.5024 4.62475 17.5796 4.62483L18.4491 4.62584C18.5169 4.62593 18.5835 4.62601 18.6491 4.6261L19.3832 4.62712C19.4401 4.62721 19.496 4.6273 19.5508 4.62738L20.0174 4.62816C20.0663 4.62825 20.1142 4.62834 20.1612 4.62842L20.6809 4.62948C20.7207 4.62956 20.7596 4.62965 20.7976 4.62974L21.1174 4.63054C21.1506 4.63063 21.1829 4.63072 21.2144 4.63081L21.5573 4.63189C21.583 4.63198 21.6081 4.63207 21.6324 4.63216L21.8337 4.63298C21.8542 4.63308 21.8741 4.63317 21.8933 4.63326L22.097 4.63437C22.1118 4.63446 22.126 4.63456 22.1398 4.63465L22.2508 4.63549C22.2618 4.63559 22.2723 4.63568 22.2824 4.63577L22.3623 4.63663C22.37 4.63672 22.3774 4.63682 22.3844 4.63691L22.4388 4.63777C22.4439 4.63787 22.4487 4.63796 22.4533 4.63806L22.4877 4.63893C22.4908 4.63903 22.4938 4.63913 22.4965 4.63922L22.5214 4.6404L22.5257 4.64069C22.5374 4.64179 22.5408 4.64218 22.5408 4.64218C23.2092 4.73938 23.7972 5.08858 24.198 5.62618C24.5988 6.16258 24.7668 6.82378 24.6708 7.48618L23.532 15.3558C23.3172 16.8534 22.0164 17.9826 20.5044 17.9826H7.3992C5.8188 17.9826 4.4808 16.749 4.3524 15.171L3.2532 2.09818L1.4448 1.78618C0.954 1.69978 0.6264 1.23538 0.7104 0.744584C0.7968 0.253784 1.2708 -0.0654156 1.7508 0.0113844ZM6.07948 6.41739L5.4228 6.41699L6.1464 15.0234C6.1992 15.6858 6.7404 16.1826 7.4016 16.1826H20.502C21.1272 16.1826 21.6612 15.717 21.75 15.099L22.89 7.22818C22.9164 7.04098 22.8696 6.85379 22.7556 6.70259C22.6428 6.55019 22.4772 6.45179 22.29 6.42539C22.2814 6.42572 22.2606 6.42602 22.2284 6.42629L22.0979 6.42704C22.0706 6.42715 22.0406 6.42726 22.0079 6.42735L21.3281 6.42839C21.2707 6.42843 21.2111 6.42846 21.1492 6.42849L19.5509 6.42843C19.4617 6.4284 19.3708 6.42836 19.2783 6.42832L17.4542 6.42721C17.3449 6.42713 17.2344 6.42705 17.1228 6.42696L16.0907 6.42613C15.9731 6.42604 15.8546 6.42594 15.7354 6.42583L14.6421 6.42487C14.5186 6.42476 14.3946 6.42465 14.27 6.42454L13.5169 6.42384C13.3905 6.42373 13.2638 6.42361 13.1368 6.42349L11.9875 6.42242C11.8594 6.4223 11.7312 6.42218 11.6029 6.42206L10.8342 6.42134C10.7062 6.42122 10.5784 6.42111 10.4509 6.42099L9.6886 6.4203C9.56219 6.42018 9.43615 6.42007 9.31054 6.41996L8.19393 6.419C8.07162 6.4189 7.94997 6.4188 7.82906 6.4187L6.41795 6.41763C6.30407 6.41755 6.19123 6.41747 6.07948 6.41739ZM18.5747 9.05255C19.0715 9.05255 19.4747 9.45574 19.4747 9.95254C19.4747 10.4493 19.0715 10.8525 18.5747 10.8525H15.2483C14.7503 10.8525 14.3483 10.4493 14.3483 9.95254C14.3483 9.45574 14.7503 9.05255 15.2483 9.05255H18.5747Z" fill="#494949"/>
</svg>
