<svg width="41" height="40" viewBox="0 0 41 40" fill="none" xmlns="http://www.w3.org/2000/svg">
<rect x="0.5" width="40" height="40" rx="20" fill="#F2F2F2"/>
<g clip-path="url(#clip0_112_477)">
<path d="M19.1916 25.3083C19.0666 25.3083 18.9499 25.275 18.8416 25.2C18.6666 25.0833 18.5666 24.8916 18.5666 24.6833C18.5666 24.5583 18.5583 24.425 18.5416 24.2916C18.4666 23.7 18.1999 23.1833 17.7499 22.7333C17.2999 22.2833 16.7416 22 16.1416 21.925C16.0416 21.9166 15.8999 21.9083 15.7666 21.9166C15.5499 21.9333 15.3499 21.8416 15.2249 21.6666C15.0999 21.5 15.0666 21.275 15.1333 21.075C15.2583 20.7333 15.4416 20.425 15.6583 20.175L16.9416 18.5583C19.1499 15.8 23.6249 12.4833 26.8999 11.1666C27.5999 10.9 28.3333 11.0583 28.8416 11.5583C29.3666 12.0833 29.5249 12.8333 29.2499 13.5166C27.9333 16.8 24.6249 21.2666 21.8666 23.475L20.2249 24.7916C19.9166 25.0166 19.6666 25.1583 19.4166 25.2583C19.3499 25.2916 19.2666 25.3083 19.1916 25.3083ZM16.7833 20.7833C17.4833 20.9666 18.1083 21.3333 18.6333 21.8583C19.1583 22.375 19.5083 22.975 19.6833 23.6416L21.0916 22.5083C23.7083 20.4166 26.8499 16.175 28.0916 13.0583C28.2166 12.75 28.0416 12.5333 27.9583 12.4583C27.8999 12.4 27.6833 12.2166 27.3499 12.3416C24.2499 13.5916 20.0083 16.7333 17.9083 19.35L16.7833 20.7833Z" fill="#292D32"/>
<path d="M13.9 28.9583C13.275 28.9583 12.675 28.7083 12.225 28.2583C11.7083 27.7416 11.4583 27.025 11.5416 26.2916L11.7666 24.2416C11.9833 22.2083 13.65 20.7 15.7166 20.6583C15.875 20.65 16.0833 20.6583 16.275 20.675C17.1833 20.7916 17.9916 21.2 18.6416 21.85C19.2833 22.4916 19.6666 23.2583 19.7833 24.1166C19.8083 24.3 19.825 24.5 19.825 24.675C19.825 25.775 19.4 26.8 18.6333 27.575C17.9916 28.2083 17.1666 28.6 16.2333 28.7166L14.175 28.9416C14.0833 28.95 13.9916 28.9583 13.9 28.9583ZM15.875 21.9166C15.8416 21.9166 15.8 21.9166 15.7666 21.9166C14.5083 21.9416 13.175 22.8 13.0083 24.3833L12.7833 26.4333C12.7416 26.7833 12.8666 27.125 13.1083 27.375C13.35 27.6166 13.6916 27.7416 14.0333 27.7L16.0833 27.475C16.725 27.3916 17.3 27.125 17.7333 26.6916C18.2666 26.1583 18.5666 25.4416 18.5666 24.675C18.5666 24.55 18.5583 24.4166 18.5416 24.2833C18.4666 23.6916 18.2 23.175 17.75 22.725C17.3 22.275 16.7416 21.9916 16.1416 21.9166C16.075 21.9166 15.975 21.9166 15.875 21.9166Z" fill="#292D32"/>
<path d="M22.3665 22.6834C22.0248 22.6834 21.7415 22.4 21.7415 22.0584C21.7415 20.225 20.2498 18.7417 18.4248 18.7417C18.0831 18.7417 17.7998 18.4584 17.7998 18.1167C17.7998 17.775 18.0748 17.4917 18.4165 17.4917C20.9331 17.4917 22.9831 19.5417 22.9831 22.0584C22.9915 22.4084 22.7081 22.6834 22.3665 22.6834Z" fill="#292D32"/>
<path d="M23.5667 28.9417C22.7917 28.9417 22.0167 28.575 21.275 27.8333C21.0333 27.5917 21.0333 27.1917 21.275 26.95C21.5167 26.7083 21.9167 26.7083 22.1583 26.95C23.1417 27.9333 23.9833 27.9333 24.9667 26.95L27.4333 24.4833C28.425 23.4917 28.425 22.65 27.4333 21.6667L26.8167 21.0583C26.575 20.8167 26.5667 20.4167 26.8083 20.175C27.05 19.925 27.45 19.925 27.6917 20.1667L28.3083 20.775C29.7917 22.2583 29.7917 23.8833 28.3083 25.3667L25.8417 27.8333C25.1167 28.5667 24.3417 28.9417 23.5667 28.9417Z" fill="#292D32"/>
<path d="M13.0915 19.3834C12.9331 19.3834 12.7665 19.325 12.6498 19.2C11.1831 17.725 11.1831 16.0917 12.6498 14.6167L15.1165 12.15C16.5831 10.6834 18.2331 10.6834 19.6998 12.15L20.3165 12.7667C20.5581 13.0084 20.5581 13.4084 20.3165 13.65C20.0748 13.8917 19.6748 13.8917 19.4331 13.65L18.8081 13.0334C17.8248 12.05 16.9748 12.05 15.9998 13.0334L13.5331 15.5C12.5498 16.4917 12.5498 17.3334 13.5331 18.325C13.7748 18.5667 13.7748 18.9667 13.5331 19.2084C13.4081 19.325 13.2498 19.3834 13.0915 19.3834Z" fill="#292D32"/>
<path d="M16.7919 16.9167C16.6335 16.9167 16.4752 16.8584 16.3502 16.7334C16.1085 16.4917 16.1085 16.0917 16.3502 15.85L19.4335 12.7667C19.6752 12.525 20.0752 12.525 20.3169 12.7667C20.5585 13.0084 20.5585 13.4084 20.3169 13.65L17.2335 16.7334C17.1085 16.8584 16.9502 16.9167 16.7919 16.9167Z" fill="#292D32"/>
<path d="M24.8002 23.6916C24.6418 23.6916 24.4835 23.6333 24.3585 23.5083C24.1168 23.2666 24.1168 22.8666 24.3585 22.625L26.8252 20.1583C27.0668 19.9166 27.4668 19.9166 27.7085 20.1583C27.9502 20.4 27.9502 20.8 27.7085 21.0416L25.2418 23.5083C25.1252 23.6333 24.9668 23.6916 24.8002 23.6916Z" fill="#292D32"/>
</g>
<defs>
<clipPath id="clip0_112_477">
<rect width="20" height="20" fill="white" transform="translate(10.5 10)"/>
</clipPath>
</defs>
</svg>
