<svg width="41" height="40" viewBox="0 0 41 40" fill="none" xmlns="http://www.w3.org/2000/svg">
<rect x="0.5" width="40" height="40" rx="20" fill="#F2F2F2"/>
<g clip-path="url(#clip0_112_513)">
<path d="M22.9749 28.9583H17.9749C13.4499 28.9583 11.5166 27.025 11.5166 22.5V17.5C11.5166 12.975 13.4499 11.0416 17.9749 11.0416H19.6416C19.9833 11.0416 20.2666 11.325 20.2666 11.6666C20.2666 12.0083 19.9833 12.2916 19.6416 12.2916H17.9749C14.1333 12.2916 12.7666 13.6583 12.7666 17.5V22.5C12.7666 26.3416 14.1333 27.7083 17.9749 27.7083H22.9749C26.8166 27.7083 28.1833 26.3416 28.1833 22.5V20.8333C28.1833 20.4916 28.4666 20.2083 28.8083 20.2083C29.1499 20.2083 29.4333 20.4916 29.4333 20.8333V22.5C29.4333 27.025 27.5083 28.9583 22.9749 28.9583Z" fill="#292D32"/>
<path d="M21.1498 22.7C21.0248 22.7 20.9082 22.6667 20.7998 22.5917C20.6248 22.475 20.5248 22.2834 20.5248 22.075C20.5248 21.9834 20.5165 21.8834 20.4998 21.7834C20.4415 21.3417 20.2415 20.95 19.9082 20.6084C19.5665 20.2667 19.1498 20.05 18.6915 19.9917C18.6248 19.9834 18.5165 19.975 18.4165 19.9834C18.2082 20 17.9998 19.9084 17.8748 19.7417C17.7498 19.575 17.7165 19.35 17.7832 19.15C17.8832 18.8667 18.0415 18.6 18.2248 18.3917L19.2498 17.1084C21.0332 14.8834 24.6248 12.2167 27.2748 11.1584C27.8832 10.925 28.5248 11.0584 28.9665 11.5C29.4248 11.9584 29.5582 12.6084 29.3165 13.2C28.2582 15.8417 25.5915 19.4417 23.3748 21.2167L22.0665 22.2667C21.8082 22.45 21.5998 22.575 21.3832 22.6584C21.3082 22.6834 21.2248 22.7 21.1498 22.7ZM19.4332 18.8917C19.9415 19.0584 20.3998 19.3417 20.7915 19.725C21.1748 20.1084 21.4498 20.55 21.6082 21.025L22.5915 20.2334C24.6665 18.5667 27.1665 15.2 28.1582 12.725C28.2248 12.5667 28.1498 12.45 28.0832 12.375C28.0415 12.3334 27.9248 12.2417 27.7332 12.3167C25.2665 13.3084 21.8998 15.8084 20.2332 17.8834L19.4332 18.8917Z" fill="#292D32"/>
<path d="M16.9165 25.625C16.3832 25.625 15.8748 25.4167 15.4915 25.0334C15.0498 24.5917 14.8332 23.9834 14.9082 23.3584L15.0832 21.725C15.2665 20.0334 16.6415 18.7834 18.3665 18.75C18.4998 18.7417 18.6665 18.75 18.8248 18.7584C19.5832 18.8584 20.2582 19.1917 20.7915 19.7334C21.3248 20.2667 21.6498 20.9 21.7415 21.6167C21.7665 21.775 21.7748 21.9334 21.7748 22.0834C21.7748 22.9917 21.4248 23.85 20.7832 24.4917C20.2582 25.0167 19.5748 25.3417 18.7998 25.4417L17.1498 25.6167C17.0665 25.625 16.9915 25.625 16.9165 25.625ZM18.4998 19.9917C18.4748 19.9917 18.4415 19.9917 18.4165 19.9917C17.4582 20.0167 16.4498 20.6584 16.3248 21.8584L16.1498 23.5C16.1248 23.7417 16.2082 23.9834 16.3748 24.15C16.5415 24.3167 16.7748 24.4 17.0082 24.375L18.6498 24.2C19.1332 24.1417 19.5665 23.9334 19.8915 23.6084C20.2915 23.2 20.5165 22.6667 20.5165 22.0834C20.5165 21.9917 20.5082 21.8917 20.4915 21.7917C20.4332 21.35 20.2332 20.9584 19.8998 20.6167C19.5582 20.275 19.1415 20.0584 18.6832 20C18.6415 19.9917 18.5748 19.9917 18.4998 19.9917Z" fill="#292D32"/>
<path d="M23.6832 20.6083C23.3416 20.6083 23.0582 20.325 23.0582 19.9833C23.0582 18.5916 21.9249 17.45 20.5249 17.45C20.1832 17.45 19.8999 17.1666 19.8999 16.825C19.8999 16.4833 20.1832 16.2 20.5249 16.2C22.6082 16.2 24.3082 17.8916 24.3082 19.9833C24.3082 20.325 24.0332 20.6083 23.6832 20.6083Z" fill="#292D32"/>
</g>
<defs>
<clipPath id="clip0_112_513">
<rect width="20" height="20" fill="white" transform="translate(10.5 10)"/>
</clipPath>
</defs>
</svg>
