<svg width="20" height="21" viewBox="0 0 20 21" fill="none" xmlns="http://www.w3.org/2000/svg">
<path fill-rule="evenodd" clip-rule="evenodd" d="M10.7673 0.000488281C11.4833 0.000488281 12.1793 0.294488 12.6783 0.805488C13.1763 1.31949 13.4513 2.02449 13.4303 2.73949C13.4323 2.90049 13.4853 3.08649 13.5813 3.24949C13.7403 3.51949 13.9913 3.70949 14.2893 3.78749C14.5873 3.86149 14.8993 3.82149 15.1643 3.66449C16.4443 2.93349 18.0733 3.37149 18.8043 4.64149L19.4273 5.72049C19.4433 5.74949 19.4573 5.77749 19.4693 5.80649C20.1313 7.05749 19.6893 8.63249 18.4593 9.35149C18.2803 9.45449 18.1353 9.59849 18.0353 9.77249C17.8803 10.0415 17.8373 10.3615 17.9153 10.6555C17.9953 10.9555 18.1863 11.2045 18.4553 11.3585C19.0623 11.7075 19.5153 12.2955 19.6963 12.9745C19.8773 13.6525 19.7783 14.3885 19.4253 14.9955L18.7613 16.1015C18.0303 17.3575 16.4013 17.7925 15.1343 17.0605C14.9653 16.9635 14.7703 16.9105 14.5763 16.9055H14.5703C14.2813 16.9055 13.9843 17.0285 13.7683 17.2435C13.5493 17.4625 13.4293 17.7545 13.4313 18.0645C13.4243 19.5335 12.2293 20.7215 10.7673 20.7215H9.51432C8.04532 20.7215 6.85032 19.5275 6.85032 18.0585C6.84832 17.8775 6.79632 17.6895 6.69932 17.5265C6.54232 17.2525 6.28832 17.0565 5.99532 16.9785C5.70432 16.9005 5.38532 16.9435 5.12332 17.0955C4.49532 17.4455 3.75632 17.5305 3.08032 17.3405C2.40532 17.1495 1.82232 16.6855 1.48032 16.0705L0.85532 14.9935C0.12432 13.7255 0.55932 12.1005 1.82532 11.3685C2.18432 11.1615 2.40732 10.7755 2.40732 10.3615C2.40732 9.94749 2.18432 9.56049 1.82532 9.35349C0.55832 8.61749 0.12432 6.98849 0.85432 5.72049L1.53232 4.60749C2.25332 3.35349 3.88332 2.91149 5.15432 3.64149C5.32732 3.74449 5.51532 3.79649 5.70632 3.79849C6.32932 3.79849 6.85032 3.28449 6.86032 2.65249C6.85632 1.95549 7.13132 1.28649 7.63232 0.781488C8.13532 0.277488 8.80332 0.000488281 9.51432 0.000488281H10.7673ZM10.7673 1.50049H9.51432C9.20432 1.50049 8.91432 1.62149 8.69532 1.83949C8.47732 2.05849 8.35832 2.34949 8.36032 2.65949C8.33932 4.12149 7.14432 5.29849 5.69732 5.29849C5.23332 5.29349 4.78632 5.16849 4.39832 4.93649C3.85332 4.62649 3.14132 4.81749 2.82232 5.37249L2.14532 6.48549C1.83532 7.02349 2.02532 7.73449 2.57732 8.05549C3.39632 8.52949 3.90732 9.41349 3.90732 10.3615C3.90732 11.3095 3.39632 12.1925 2.57532 12.6675C2.02632 12.9855 1.83632 13.6925 2.15432 14.2425L2.78532 15.3305C2.94132 15.6115 3.19632 15.8145 3.49132 15.8975C3.78532 15.9795 4.10932 15.9445 4.37932 15.7945C4.77632 15.5615 5.23832 15.4405 5.70232 15.4405C5.93132 15.4405 6.16032 15.4695 6.38432 15.5295C7.06032 15.7115 7.64732 16.1635 7.99532 16.7705C8.22132 17.1515 8.34632 17.5965 8.35032 18.0505C8.35032 18.7005 8.87232 19.2215 9.51432 19.2215H10.7673C11.4063 19.2215 11.9283 18.7035 11.9313 18.0645C11.9273 17.3585 12.2033 16.6875 12.7083 16.1825C13.2063 15.6845 13.9023 15.3855 14.5983 15.4055C15.0543 15.4165 15.4933 15.5395 15.8803 15.7595C16.4373 16.0785 17.1483 15.8885 17.4703 15.3385L18.1343 14.2315C18.2823 13.9765 18.3253 13.6565 18.2463 13.3615C18.1683 13.0665 17.9723 12.8105 17.7083 12.6595C17.0903 12.3035 16.6493 11.7295 16.4663 11.0415C16.2853 10.3665 16.3843 9.62949 16.7373 9.02249C16.9673 8.62249 17.3043 8.28549 17.7083 8.05349C18.2503 7.73649 18.4403 7.02749 18.1253 6.47549C18.1123 6.45349 18.1003 6.43049 18.0903 6.40649L17.5043 5.39049C17.1853 4.83549 16.4753 4.64449 15.9183 4.96149C15.3163 5.31749 14.6003 5.41949 13.9123 5.23849C13.2253 5.06049 12.6493 4.62549 12.2903 4.01149C12.0603 3.62749 11.9353 3.18049 11.9313 2.72549C11.9403 2.38349 11.8203 2.07649 11.6023 1.85149C11.3853 1.62749 11.0803 1.50049 10.7673 1.50049ZM10.1452 6.97459C12.0122 6.97459 13.5312 8.49459 13.5312 10.3616C13.5312 12.2286 12.0122 13.7466 10.1452 13.7466C8.27822 13.7466 6.75922 12.2286 6.75922 10.3616C6.75922 8.49459 8.27822 6.97459 10.1452 6.97459ZM10.1452 8.47459C9.10522 8.47459 8.25922 9.32159 8.25922 10.3616C8.25922 11.4016 9.10522 12.2466 10.1452 12.2466C11.1852 12.2466 12.0312 11.4016 12.0312 10.3616C12.0312 9.32159 11.1852 8.47459 10.1452 8.47459Z" fill="#494949"/>
</svg>
