<svg width="40" height="40" viewBox="0 0 40 40" fill="none" xmlns="http://www.w3.org/2000/svg">
<rect width="40" height="40" rx="20" fill="#F2F2F2"/>
<g clip-path="url(#clip0_112_502)">
<path d="M22.4998 28.9584H17.4998C12.9748 28.9584 11.0415 27.025 11.0415 22.5V17.5C11.0415 12.975 12.9748 11.0417 17.4998 11.0417H22.4998C27.0248 11.0417 28.9582 12.975 28.9582 17.5V22.5C28.9582 27.025 27.0248 28.9584 22.4998 28.9584ZM17.4998 12.2917C13.6582 12.2917 12.2915 13.6584 12.2915 17.5V22.5C12.2915 26.3417 13.6582 27.7084 17.4998 27.7084H22.4998C26.3415 27.7084 27.7082 26.3417 27.7082 22.5V17.5C27.7082 13.6584 26.3415 12.2917 22.4998 12.2917H17.4998Z" fill="#292D32"/>
<path fill-rule="evenodd" clip-rule="evenodd" d="M24.4932 23.1726C24.6327 23.4142 24.5499 23.7231 24.3083 23.8626C24.0668 24.0021 23.7579 23.9193 23.6184 23.6777L21.7867 20.5051H18.289L16.3757 23.6388C16.2303 23.8769 15.9195 23.9521 15.6814 23.8067C15.4433 23.6613 15.3682 23.3505 15.5135 23.1124L19.6356 16.3612C19.6456 16.3449 19.6563 16.3293 19.6678 16.3145C19.7105 16.2434 19.7713 16.1818 19.8482 16.1374C20.0898 15.9979 20.3987 16.0807 20.5381 16.3223L24.4932 23.1726ZM18.9058 19.4949L21.2035 19.4949L20.0868 17.5607L18.9058 19.4949Z" fill="#292D32"/>
</g>
<defs>
<clipPath id="clip0_112_502">
<rect width="20" height="20" fill="white" transform="translate(10 10)"/>
</clipPath>
</defs>
</svg>
