<svg width="41" height="40" viewBox="0 0 41 40" fill="none" xmlns="http://www.w3.org/2000/svg">
<rect x="0.5" width="40" height="40" rx="20" fill="#F2F2F2"/>
<g clip-path="url(#clip0_112_541)">
<path d="M28.5832 15.325H22.5249C22.1832 15.325 21.8999 15.0416 21.8999 14.7C21.8999 14.3583 22.1832 14.075 22.5249 14.075H28.5832C28.9249 14.075 29.2082 14.3583 29.2082 14.7C29.2082 15.0416 28.9249 15.325 28.5832 15.325Z" fill="#292D32"/>
<path d="M18.4832 15.325H12.4165C12.0748 15.325 11.7915 15.0416 11.7915 14.7C11.7915 14.3583 12.0748 14.075 12.4165 14.075H18.4748C18.8165 14.075 19.0998 14.3583 19.0998 14.7C19.0998 15.0416 18.8248 15.325 18.4832 15.325Z" fill="#292D32"/>
<path d="M28.5832 23.4H22.5249C22.1832 23.4 21.8999 23.1167 21.8999 22.775C21.8999 22.4334 22.1832 22.15 22.5249 22.15H28.5832C28.9249 22.15 29.2082 22.4334 29.2082 22.775C29.2082 23.1167 28.9249 23.4 28.5832 23.4Z" fill="#292D32"/>
<path d="M28.5832 28.45H22.5249C22.1832 28.45 21.8999 28.1666 21.8999 27.825C21.8999 27.4833 22.1832 27.2 22.5249 27.2H28.5832C28.9249 27.2 29.2082 27.4833 29.2082 27.825C29.2082 28.1666 28.9249 28.45 28.5832 28.45Z" fill="#292D32"/>
<path d="M25.5752 18.35C25.2335 18.35 24.9502 18.0666 24.9502 17.725V11.6666C24.9502 11.325 25.2335 11.0416 25.5752 11.0416C25.9169 11.0416 26.2002 11.325 26.2002 11.6666V17.725C26.2002 18.075 25.9252 18.35 25.5752 18.35Z" fill="#292D32"/>
<path d="M12.4169 28.9584C12.2585 28.9584 12.1002 28.9 11.9752 28.775C11.7335 28.5334 11.7335 28.1334 11.9752 27.8917L18.0335 21.8333C18.2752 21.5917 18.6752 21.5917 18.9169 21.8333C19.1585 22.075 19.1585 22.475 18.9169 22.7167L12.8585 28.775C12.7419 28.9 12.5835 28.9584 12.4169 28.9584Z" fill="#292D32"/>
<path d="M18.4835 28.9584C18.3252 28.9584 18.1668 28.9 18.0418 28.775L11.9835 22.7167C11.7418 22.475 11.7418 22.075 11.9835 21.8333C12.2252 21.5917 12.6252 21.5917 12.8668 21.8333L18.9252 27.8917C19.1668 28.1334 19.1668 28.5334 18.9252 28.775C18.8002 28.9 18.6418 28.9584 18.4835 28.9584Z" fill="#292D32"/>
</g>
<defs>
<clipPath id="clip0_112_541">
<rect width="20" height="20" fill="white" transform="translate(10.5 10)"/>
</clipPath>
</defs>
</svg>
