<svg width="40" height="40" viewBox="0 0 40 40" fill="none" xmlns="http://www.w3.org/2000/svg">
<rect width="40" height="40" rx="20" fill="#F2F2F2"/>
<g clip-path="url(#clip0_112_490)">
<path d="M23.9498 26.325H16.0581C15.3998 26.325 14.9248 26.2999 14.5165 26.2416C11.6248 25.9249 11.0498 24.1916 11.0498 21.3166V16.05C11.0498 13.175 11.6165 11.4416 14.5331 11.1249C14.9331 11.0666 15.4081 11.0416 16.0581 11.0416H23.9498C24.5998 11.0416 25.0748 11.0666 25.4915 11.1249C28.3915 11.4416 28.9581 13.175 28.9581 16.05V21.3166C28.9581 24.1916 28.3915 25.9249 25.4748 26.2416C25.0831 26.2999 24.6081 26.325 23.9498 26.325ZM16.0498 12.2916C15.4581 12.2916 15.0331 12.3166 14.6831 12.3666C12.8831 12.5666 12.2915 13.125 12.2915 16.0583V21.325C12.2915 24.25 12.8831 24.8166 14.6665 25.0083C15.0331 25.0583 15.4581 25.0833 16.0581 25.0833H23.9498C24.5498 25.0833 24.9665 25.0583 25.3165 25.0083C27.1165 24.8083 27.7081 24.25 27.7081 21.3166V16.05C27.7081 13.125 27.1165 12.5583 25.3331 12.3666C24.9581 12.3166 24.5415 12.2916 23.9415 12.2916H16.0498Z" fill="#292D32"/>
<path d="M24.3836 17.5583H21.3169C20.9752 17.5583 20.6919 17.275 20.6919 16.9333C20.6919 16.5917 20.9752 16.3083 21.3169 16.3083H24.3836C24.7252 16.3083 25.0086 16.5917 25.0086 16.9333C25.0086 17.275 24.7336 17.5583 24.3836 17.5583Z" fill="#292D32"/>
<path d="M18.3333 17.7668C17.875 17.7668 17.5 17.3918 17.5 16.9334C17.5 16.4751 17.8667 16.1001 18.3333 16.1001C18.7917 16.1001 19.1667 16.4751 19.1667 16.9334C19.1667 17.3918 18.8 17.7668 18.3333 17.7668Z" fill="#292D32"/>
<path d="M15.7083 17.7668C15.25 17.7668 14.875 17.3918 14.875 16.9334C14.875 16.4751 15.2417 16.1001 15.7083 16.1001H15.7167C16.175 16.1001 16.55 16.4751 16.55 16.9334C16.55 17.3918 16.1667 17.7668 15.7083 17.7668Z" fill="#292D32"/>
<path d="M24.3834 22.3833H15.625C15.2834 22.3833 14.9917 22.1 14.9917 21.7583C14.9917 21.4166 15.2667 21.1333 15.6084 21.1333H24.3834C24.725 21.1333 25.0084 21.4166 25.0084 21.7583C25.0084 22.1 24.7334 22.3833 24.3834 22.3833Z" fill="#292D32"/>
<path d="M24.1668 28.9584H15.8335C15.4918 28.9584 15.2085 28.675 15.2085 28.3334C15.2085 27.9917 15.4918 27.7084 15.8335 27.7084H24.1668C24.5085 27.7084 24.7918 27.9917 24.7918 28.3334C24.7918 28.675 24.5085 28.9584 24.1668 28.9584Z" fill="#292D32"/>
</g>
<defs>
<clipPath id="clip0_112_490">
<rect width="20" height="20" fill="white" transform="translate(10 10)"/>
</clipPath>
</defs>
</svg>
