<svg width="41" height="40" viewBox="0 0 41 40" fill="none" xmlns="http://www.w3.org/2000/svg">
<rect x="0.5" width="40" height="40" rx="20" fill="#F2F2F2"/>
<path d="M28 13.75H20.4113C20.1317 12.6748 19.1614 11.875 18 11.875C16.8386 11.875 15.8683 12.6748 15.5888 13.75H13C12.6548 13.75 12.375 14.0298 12.375 14.375C12.375 14.7202 12.6548 15 13 15H15.5888C15.8683 16.0752 16.8386 16.875 18 16.875C19.1614 16.875 20.1317 16.0752 20.4113 15H28C28.3452 15 28.625 14.7202 28.625 14.375C28.625 14.0298 28.3452 13.75 28 13.75ZM18 15.625C17.3106 15.625 16.75 15.0644 16.75 14.375C16.75 13.6856 17.3106 13.125 18 13.125C18.6894 13.125 19.25 13.6856 19.25 14.375C19.25 15.0644 18.6894 15.625 18 15.625ZM28 19.375H25.4113C25.1317 18.2998 24.1614 17.5 23 17.5C21.8386 17.5 20.8683 18.2998 20.5887 19.375H13C12.6548 19.375 12.375 19.6548 12.375 20C12.375 20.3452 12.6548 20.625 13 20.625H20.5887C20.8683 21.7002 21.8386 22.5 23 22.5C24.1614 22.5 25.1317 21.7002 25.4113 20.625H28C28.3452 20.625 28.625 20.3452 28.625 20C28.625 19.6548 28.3452 19.375 28 19.375ZM23 21.25C22.3106 21.25 21.75 20.6894 21.75 20C21.75 19.3106 22.3106 18.75 23 18.75C23.6894 18.75 24.25 19.3106 24.25 20C24.25 20.6894 23.6894 21.25 23 21.25ZM28 25H20.4113C20.1317 23.9248 19.1614 23.125 18 23.125C16.8386 23.125 15.8683 23.9248 15.5888 25H13C12.6548 25 12.375 25.2798 12.375 25.625C12.375 25.9702 12.6548 26.25 13 26.25H15.5888C15.8683 27.3252 16.8386 28.125 18 28.125C19.1614 28.125 20.1317 27.3252 20.4113 26.25H28C28.3452 26.25 28.625 25.9702 28.625 25.625C28.625 25.2798 28.3452 25 28 25ZM18 26.875C17.3106 26.875 16.75 26.3144 16.75 25.625C16.75 24.9356 17.3106 24.375 18 24.375C18.6894 24.375 19.25 24.9356 19.25 25.625C19.25 26.3144 18.6894 26.875 18 26.875Z" fill="#1C1C1C"/>
</svg>
