<svg width="24" height="24" viewBox="0 0 24 24" fill="none" xmlns="http://www.w3.org/2000/svg">
<path d="M14.9702 22.75H8.97021C3.54022 22.75 1.22021 20.43 1.22021 15V9C1.22021 3.57 3.54022 1.25 8.97021 1.25H10.9702C11.3802 1.25 11.7202 1.59 11.7202 2C11.7202 2.41 11.3802 2.75 10.9702 2.75H8.97021C4.36021 2.75 2.72021 4.39 2.72021 9V15C2.72021 19.61 4.36021 21.25 8.97021 21.25H14.9702C19.5802 21.25 21.2202 19.61 21.2202 15V13C21.2202 12.59 21.5602 12.25 21.9702 12.25C22.3802 12.25 22.7202 12.59 22.7202 13V15C22.7202 20.43 20.4102 22.75 14.9702 22.75Z" fill="#47A082"/>
<path d="M12.7801 15.24C12.6301 15.24 12.4901 15.2 12.3601 15.11C12.1501 14.97 12.0301 14.74 12.0301 14.49C12.0301 14.38 12.0201 14.26 12.0001 14.14C11.9301 13.61 11.6901 13.14 11.2901 12.73C10.8801 12.32 10.3801 12.06 9.83009 11.99C9.75009 11.98 9.62009 11.97 9.50009 11.98C9.25009 12 9.00009 11.89 8.85009 11.69C8.70009 11.49 8.66009 11.22 8.74009 10.98C8.86009 10.64 9.05009 10.32 9.27009 10.07L10.5001 8.53001C12.6401 5.86001 16.9501 2.66001 20.1301 1.39001C20.8601 1.11001 21.6301 1.27001 22.1601 1.80001C22.7101 2.35001 22.8701 3.13001 22.5801 3.84001C21.3101 7.01001 18.1101 11.33 15.4501 13.46L13.8801 14.72C13.5701 14.94 13.3201 15.09 13.0601 15.19C12.9701 15.22 12.8701 15.24 12.7801 15.24ZM10.7201 10.67C11.3301 10.87 11.8801 11.21 12.3501 11.67C12.8101 12.13 13.1401 12.66 13.3301 13.23L14.5101 12.28C17.0001 10.28 20.0001 6.24001 21.1901 3.27001C21.2701 3.08001 21.1801 2.94001 21.1001 2.85001C21.0501 2.80001 20.9101 2.69001 20.6801 2.78001C17.7201 3.97001 13.6801 6.97001 11.6801 9.46001L10.7201 10.67Z" fill="#47A082"/>
<path d="M7.69999 18.75C7.05999 18.75 6.44999 18.5 5.98999 18.04C5.45999 17.51 5.19999 16.78 5.28999 16.03L5.49999 14.07C5.71999 12.04 7.36999 10.54 9.43999 10.5C9.59999 10.49 9.79999 10.5 9.98999 10.51C10.9 10.63 11.71 11.03 12.35 11.68C12.99 12.32 13.38 13.08 13.49 13.94C13.52 14.13 13.53 14.32 13.53 14.5C13.53 15.59 13.11 16.62 12.34 17.39C11.71 18.02 10.89 18.41 9.95999 18.53L7.97999 18.74C7.87999 18.75 7.78999 18.75 7.69999 18.75ZM9.59999 11.99C9.56999 11.99 9.52999 11.99 9.49999 11.99C8.34999 12.02 7.13999 12.79 6.98999 14.23L6.77999 16.2C6.74999 16.49 6.84999 16.78 7.04999 16.98C7.24999 17.18 7.52999 17.28 7.80999 17.25L9.77999 17.04C10.36 16.97 10.88 16.72 11.27 16.33C11.75 15.84 12.02 15.2 12.02 14.5C12.02 14.39 12.01 14.27 11.99 14.15C11.92 13.62 11.68 13.15 11.28 12.74C10.87 12.33 10.37 12.07 9.81999 12C9.76999 11.99 9.68999 11.99 9.59999 11.99Z" fill="#47A082"/>
<path d="M15.8198 12.7299C15.4098 12.7299 15.0698 12.3899 15.0698 11.9799C15.0698 10.3099 13.7098 8.93994 12.0298 8.93994C11.6198 8.93994 11.2798 8.59994 11.2798 8.18994C11.2798 7.77994 11.6198 7.43994 12.0298 7.43994C14.5298 7.43994 16.5698 9.46994 16.5698 11.9799C16.5698 12.3899 16.2398 12.7299 15.8198 12.7299Z" fill="#47A082"/>
</svg>
