<svg width="40" height="40" viewBox="0 0 40 40" fill="none" xmlns="http://www.w3.org/2000/svg">
<rect width="40" height="40" rx="20" fill="#F2F2F2"/>
<g clip-path="url(#clip0_112_523)">
<path d="M15.2333 28.9583C13.4583 28.9583 12.0083 27.5083 12.0083 25.7333C12.0083 23.9583 13.4583 22.5083 15.2333 22.5083C17.0083 22.5083 18.4583 23.9583 18.4583 25.7333C18.4583 27.5083 17.0083 28.9583 15.2333 28.9583ZM15.2333 23.7583C14.1416 23.7583 13.2583 24.6416 13.2583 25.7333C13.2583 26.825 14.1416 27.7083 15.2333 27.7083C16.325 27.7083 17.2083 26.825 17.2083 25.7333C17.2083 24.6416 16.325 23.7583 15.2333 23.7583Z" fill="#292D32"/>
<path d="M17.8335 26.3584C17.4918 26.3584 17.2085 26.075 17.2085 25.7334V15.25C17.2085 13.9334 18.0002 12.9 19.2668 12.5584L24.4668 11.1417C25.5252 10.85 26.4168 10.9584 27.0418 11.4417C27.6752 11.925 27.9918 12.7334 27.9918 13.8417V24.0084C27.9918 24.35 27.7085 24.6334 27.3668 24.6334C27.0252 24.6334 26.7418 24.35 26.7418 24.0084V13.8334C26.7418 13.35 26.6585 12.7167 26.2835 12.4334C25.8752 12.1167 25.1752 12.2417 24.7918 12.35L19.5918 13.7667C18.8668 13.9667 18.4585 14.5084 18.4585 15.2584V25.7417C18.4585 26.075 18.1752 26.3584 17.8335 26.3584Z" fill="#292D32"/>
<path d="M24.7665 27.225C22.9915 27.225 21.5415 25.775 21.5415 24C21.5415 22.225 22.9915 20.775 24.7665 20.775C26.5415 20.775 27.9915 22.225 27.9915 24C27.9915 25.775 26.5415 27.225 24.7665 27.225ZM24.7665 22.025C23.6748 22.025 22.7915 22.9084 22.7915 24C22.7915 25.0917 23.6748 25.975 24.7665 25.975C25.8582 25.975 26.7415 25.0917 26.7415 24C26.7415 22.9084 25.8582 22.025 24.7665 22.025Z" fill="#292D32"/>
<path d="M17.8333 18.5584C17.5583 18.5584 17.3083 18.375 17.2333 18.1C17.1417 17.7667 17.3333 17.4167 17.6667 17.325L27.2 14.725C27.5333 14.6334 27.875 14.8334 27.9667 15.1667C28.0583 15.5 27.8583 15.8417 27.525 15.9334L18 18.5334C17.9417 18.55 17.8833 18.5584 17.8333 18.5584Z" fill="#292D32"/>
</g>
<defs>
<clipPath id="clip0_112_523">
<rect width="20" height="20" fill="white" transform="translate(10 10)"/>
</clipPath>
</defs>
</svg>
