<svg width="40" height="40" viewBox="0 0 40 40" fill="none" xmlns="http://www.w3.org/2000/svg">
<rect width="40" height="40" rx="20" fill="#F2F2F2"/>
<g clip-path="url(#clip0_112_533)">
<path d="M23.2002 28.9583H16.8002C14.5669 28.9583 13.5502 28.125 13.1002 27.4333C12.4419 26.4166 12.4669 25.025 13.1752 23.4083L16.3669 16.1583C15.9252 16.0416 15.5169 15.8083 15.1919 15.4833C14.7169 15 14.4335 14.3333 14.4335 13.6416C14.4335 12.2083 15.6002 11.0416 17.0335 11.0416H22.9585C23.6502 11.0416 24.3085 11.3166 24.8002 11.8083C25.4502 12.4583 25.7085 13.3833 25.4919 14.275C25.2752 15.1666 24.5419 15.875 23.6419 16.1333L26.8252 23.4166C27.5252 25.025 27.5502 26.4166 26.8835 27.4333C26.4335 28.125 25.4169 28.9583 23.2002 28.9583ZM17.0335 12.2916C16.2919 12.2916 15.6835 12.9 15.6835 13.6416C15.6835 14 15.8335 14.35 16.0752 14.6C16.3252 14.85 16.6752 14.9916 17.0335 14.9916H17.2835C17.4919 14.9916 17.6919 15.1 17.8085 15.275C17.9252 15.45 17.9419 15.675 17.8585 15.8666L14.3169 23.9083C13.7919 25.1083 13.7252 26.1166 14.1419 26.75C14.6585 27.5416 15.8669 27.7083 16.7919 27.7083H23.1919C24.1085 27.7083 25.3085 27.5416 25.8335 26.75C26.2502 26.1083 26.1919 25.1083 25.6752 23.9166L22.1669 15.8666C22.0835 15.675 22.1002 15.45 22.2169 15.275C22.3335 15.1 22.5252 14.9916 22.7419 14.9916H22.8752C23.5419 14.9916 24.1419 14.5666 24.2835 13.975C24.4002 13.5 24.2669 13.0333 23.9252 12.6916C23.6669 12.4333 23.3252 12.2916 22.9669 12.2916H17.0335Z" fill="#292D32"/>
<path d="M21.5333 22.5333C20.9833 22.5333 20.3916 22.4583 19.8 22.2583C17.4333 21.4666 14.9916 21.55 14.9666 21.55C14.6333 21.6 14.3333 21.2916 14.3166 20.95C14.3 20.6083 14.575 20.3166 14.9166 20.3C15.025 20.2916 17.6166 20.2083 20.1916 21.0666C22.3583 21.7916 24.4833 20.4166 24.5083 20.4C24.7916 20.2083 25.1833 20.2916 25.375 20.575C25.5666 20.8583 25.4916 21.25 25.2 21.4416C25.125 21.5 23.5416 22.5333 21.5333 22.5333Z" fill="#292D32"/>
</g>
<defs>
<clipPath id="clip0_112_533">
<rect width="20" height="20" fill="white" transform="translate(10 10)"/>
</clipPath>
</defs>
</svg>
