<svg width="24" height="24" viewBox="0 0 24 24" fill="none" xmlns="http://www.w3.org/2000/svg">
<path d="M4 11.7259C4 11.3462 4.28215 11.0324 4.64823 10.9827L4.75 10.9759L17.934 10.9765L13.171 6.23296C12.8775 5.9407 12.8765 5.46582 13.1687 5.1723C13.4344 4.90546 13.851 4.88036 14.1451 5.09758L14.2294 5.17002L20.2794 11.194C20.3181 11.2325 20.3517 11.2742 20.3802 11.3183C20.3883 11.3315 20.3965 11.3451 20.4042 11.3589C20.4114 11.3708 20.4178 11.3831 20.4239 11.3955C20.4324 11.4136 20.4407 11.4323 20.4482 11.4514C20.4543 11.4662 20.4594 11.4805 20.464 11.4949C20.4696 11.5128 20.4749 11.5319 20.4796 11.5512C20.483 11.5647 20.4857 11.5777 20.4881 11.5908C20.4914 11.6102 20.4943 11.6303 20.4963 11.6507C20.498 11.6662 20.4991 11.6816 20.4997 11.697C20.4998 11.7063 20.5 11.7161 20.5 11.7259L20.4996 11.7549C20.4991 11.7697 20.498 11.7844 20.4966 11.799L20.5 11.7259C20.5 11.7732 20.4956 11.8195 20.4872 11.8644C20.4853 11.8751 20.483 11.8861 20.4804 11.8971C20.4751 11.9197 20.4689 11.9414 20.4618 11.9627C20.4584 11.9733 20.4543 11.9846 20.45 11.9959C20.4412 12.0184 20.4317 12.04 20.4212 12.0609C20.4163 12.0708 20.4109 12.0811 20.4052 12.0913C20.3958 12.108 20.3861 12.1238 20.3759 12.1392C20.3687 12.1501 20.3607 12.1615 20.3524 12.1727L20.3459 12.1813C20.3257 12.2077 20.3038 12.2327 20.2803 12.2562L20.2794 12.2569L14.2294 18.2819C13.9359 18.5742 13.4611 18.5732 13.1688 18.2797C12.9031 18.0129 12.8797 17.5962 13.0982 17.303L13.171 17.2191L17.932 12.4765L4.75 12.4759C4.33579 12.4759 4 12.1401 4 11.7259Z" fill="white"/>
</svg>
