<svg width="20" height="20" viewBox="0 0 20 20" fill="none" xmlns="http://www.w3.org/2000/svg">
<path d="M4.61666 16.2666C4.10832 16.2666 3.63332 16.0916 3.29166 15.7666C2.85832 15.3583 2.64999 14.7416 2.72499 14.075L3.03332 11.375C3.09166 10.8666 3.39999 10.1916 3.75832 9.82496L10.6 2.58329C12.3083 0.774959 14.0917 0.72496 15.9 2.43329C17.7083 4.14163 17.7583 5.92496 16.05 7.73329L9.20832 14.975C8.85832 15.35 8.20832 15.7 7.69999 15.7833L5.01666 16.2416C4.87499 16.25 4.74999 16.2666 4.61666 16.2666ZM13.275 2.42496C12.6333 2.42496 12.075 2.82496 11.5083 3.42496L4.66666 10.675C4.49999 10.85 4.30832 11.2666 4.27499 11.5083L3.96666 14.2083C3.93332 14.4833 3.99999 14.7083 4.14999 14.85C4.29999 14.9916 4.52499 15.0416 4.79999 15L7.48332 14.5416C7.72499 14.5 8.12499 14.2833 8.29166 14.1083L15.1333 6.86663C16.1667 5.76663 16.5417 4.74996 15.0333 3.33329C14.3667 2.69163 13.7917 2.42496 13.275 2.42496Z" fill="#47A082"/>
<path d="M14.45 9.12504C14.4333 9.12504 14.4083 9.12504 14.3916 9.12504C11.7916 8.8667 9.69996 6.8917 9.29996 4.30837C9.24996 3.9667 9.48329 3.65004 9.82496 3.5917C10.1666 3.5417 10.4833 3.77504 10.5416 4.1167C10.8583 6.13337 12.4916 7.68337 14.525 7.88337C14.8666 7.9167 15.1166 8.22504 15.0833 8.5667C15.0416 8.88337 14.7666 9.12504 14.45 9.12504Z" fill="#47A082"/>
<path d="M17.5 18.9584H2.5C2.15833 18.9584 1.875 18.675 1.875 18.3334C1.875 17.9917 2.15833 17.7084 2.5 17.7084H17.5C17.8417 17.7084 18.125 17.9917 18.125 18.3334C18.125 18.675 17.8417 18.9584 17.5 18.9584Z" fill="#47A082"/>
</svg>
