<svg width="20" height="20" viewBox="0 0 20 20" fill="none" xmlns="http://www.w3.org/2000/svg">
<path d="M9.24984 18.9584H5.74984C2.4915 18.9584 1.0415 17.5084 1.0415 14.25V10.75C1.0415 7.49169 2.4915 6.04169 5.74984 6.04169H9.24984C12.5082 6.04169 13.9582 7.49169 13.9582 10.75V14.25C13.9582 17.5084 12.5082 18.9584 9.24984 18.9584ZM5.74984 7.29169C3.1665 7.29169 2.2915 8.16669 2.2915 10.75V14.25C2.2915 16.8334 3.1665 17.7084 5.74984 17.7084H9.24984C11.8332 17.7084 12.7082 16.8334 12.7082 14.25V10.75C12.7082 8.16669 11.8332 7.29169 9.24984 7.29169H5.74984V7.29169Z" fill="#9A9A9A"/>
<path d="M14.2498 13.9583H13.3332C12.9915 13.9583 12.7082 13.675 12.7082 13.3333V10.75C12.7082 8.16663 11.8332 7.29163 9.24984 7.29163H6.6665C6.32484 7.29163 6.0415 7.00829 6.0415 6.66663V5.74996C6.0415 2.49163 7.4915 1.04163 10.7498 1.04163H14.2498C17.5082 1.04163 18.9582 2.49163 18.9582 5.74996V9.24996C18.9582 12.5083 17.5082 13.9583 14.2498 13.9583ZM13.9582 12.7083H14.2498C16.8332 12.7083 17.7082 11.8333 17.7082 9.24996V5.74996C17.7082 3.16663 16.8332 2.29163 14.2498 2.29163H10.7498C8.1665 2.29163 7.2915 3.16663 7.2915 5.74996V6.04163H9.24984C12.5082 6.04163 13.9582 7.49163 13.9582 10.75V12.7083Z" fill="#9A9A9A"/>
</svg>
