<svg width="16" height="16" viewBox="0 0 16 16" fill="none" xmlns="http://www.w3.org/2000/svg">
<g clip-path="url(#clip0_10_627)">
<path d="M15.3957 6.6092L8.86944 6.60889C8.58125 6.60889 8.34766 6.84245 8.34766 7.13064V9.21548C8.34766 9.50361 8.58125 9.73723 8.86941 9.73723H12.5446C12.1422 10.7816 11.391 11.6563 10.4327 12.212L11.9998 14.9248C14.5136 13.471 15.9998 10.9201 15.9998 8.06451C15.9998 7.65792 15.9698 7.36726 15.9099 7.03998C15.8643 6.79132 15.6485 6.6092 15.3957 6.6092Z" fill="#406AD8"/>
<path d="M7.99985 12.8695C6.20129 12.8695 4.63116 11.8868 3.78788 10.4326L1.0752 11.9962C2.45566 14.3887 5.04173 15.9999 7.99985 15.9999C9.45101 15.9999 10.8203 15.6092 11.9999 14.9283V14.9246L10.4328 12.2117C9.71595 12.6275 8.88645 12.8695 7.99985 12.8695Z" fill="#12B347"/>
<path d="M12 14.9282V14.9245L10.4329 12.2117C9.71609 12.6274 8.88666 12.8694 8 12.8694V15.9998C9.45116 15.9998 10.8205 15.6091 12 14.9282Z" fill="#0F993E"/>
<path d="M3.13044 7.99994C3.13044 7.11341 3.37238 6.284 3.78803 5.56722L1.07534 4.00366C0.390687 5.17951 0 6.54507 0 7.99994C0 9.45482 0.390687 10.8204 1.07534 11.9962L3.78803 10.4327C3.37238 9.71588 3.13044 8.88647 3.13044 7.99994Z" fill="#FFD500"/>
<path d="M7.99985 3.13044C9.17269 3.13044 10.25 3.54719 11.0915 4.24041C11.2991 4.41141 11.6008 4.39906 11.7909 4.20891L13.2681 2.73172C13.4839 2.51597 13.4685 2.16281 13.238 1.96287C11.8282 0.739781 9.99382 0 7.99985 0C5.04173 0 2.45566 1.61116 1.0752 4.00372L3.78788 5.56728C4.63116 4.11312 6.20129 3.13044 7.99985 3.13044Z" fill="#FF4B26"/>
<path d="M11.0916 4.24041C11.2992 4.41141 11.601 4.39906 11.7911 4.20891L13.2683 2.73172C13.484 2.51597 13.4686 2.16281 13.2382 1.96288C11.8283 0.73975 9.99397 0 8 0V3.13044C9.17281 3.13044 10.2502 3.54719 11.0916 4.24041Z" fill="#D93F21"/>
</g>
<defs>
<clipPath id="clip0_10_627">
<rect width="16" height="16" fill="white"/>
</clipPath>
</defs>
</svg>
