<svg width="16" height="16" viewBox="0 0 16 16" fill="none" xmlns="http://www.w3.org/2000/svg">
<g clip-path="url(#clip0_10_636)">
<path d="M10.9992 0C10.1462 0.0589996 9.14917 0.604996 8.56818 1.31599C8.03818 1.96099 7.60219 2.91898 7.77219 3.84998C8.70418 3.87898 9.66717 3.31998 10.2252 2.59698C10.7472 1.92399 11.1422 0.971994 10.9992 0Z" fill="white"/>
<path d="M14.3701 5.36786C13.5511 4.34087 12.4001 3.74487 11.3131 3.74487C9.87808 3.74487 9.27108 4.43187 8.27409 4.43187C7.24609 4.43187 6.4651 3.74687 5.2241 3.74687C4.00511 3.74687 2.70712 4.49187 1.88412 5.76586C0.727132 7.55985 0.92513 10.9328 2.80012 13.8058C3.47112 14.8338 4.36711 15.9898 5.5391 15.9998C6.5821 16.0098 6.8761 15.3308 8.28909 15.3238C9.70208 15.3158 9.97008 16.0088 11.0111 15.9978C12.1841 15.9888 13.1291 14.7078 13.8001 13.6798C14.2811 12.9428 14.4601 12.5718 14.833 11.7398C12.1201 10.7068 11.6851 6.84886 14.3701 5.36786Z" fill="white"/>
</g>
<defs>
<clipPath id="clip0_10_636">
<rect width="16" height="16" fill="white"/>
</clipPath>
</defs>
</svg>
