<svg width="273" height="283" viewBox="0 0 273 283" fill="none" xmlns="http://www.w3.org/2000/svg">
<g clip-path="url(#clip0_10_662)">
<path d="M165.184 275.733C165.184 277.403 154.523 278.751 141.344 278.751C128.165 278.751 117.504 277.403 117.504 275.733C117.504 274.062 128.165 272.684 141.344 272.684C154.523 272.684 165.184 274.062 165.184 275.733Z" fill="#E0E0E0"/>
<path d="M94.4841 79.9793C96.4539 78.7937 98.5733 77.8751 100.786 77.2479L102.082 71.023L112.627 70.8401L114.143 77.0102C116.377 77.5579 118.528 78.4028 120.537 79.5221L125.867 76.0407L133.453 83.357L130.146 88.7894C131.337 90.7528 132.258 92.8671 132.884 95.0753L139.107 96.3312L139.29 106.848L133.104 108.36C132.554 110.589 131.707 112.734 130.586 114.738L134.076 120.054L126.741 127.614L121.295 124.322C119.323 125.508 117.201 126.426 114.986 127.054L113.69 133.278L103.152 133.461L101.63 127.291C99.3974 126.737 97.2476 125.893 95.236 124.779L89.9118 128.261L82.326 120.944L85.6268 115.512C84.4381 113.547 83.5171 111.434 82.8883 109.226L76.6473 107.934L76.4639 97.4165L82.656 95.9045C83.2065 93.677 84.0513 91.5325 85.1684 89.5271L81.678 84.2106L89.0133 76.6504L94.4597 79.9428L94.4841 79.9793ZM100.102 94.0022C98.5484 95.6072 97.507 97.6355 97.1094 99.8308C96.7117 102.026 96.9757 104.29 97.8678 106.335C98.76 108.381 100.24 110.117 102.121 111.323C104.003 112.53 106.2 113.153 108.437 113.114C110.673 113.074 112.847 112.375 114.685 111.103C116.522 109.831 117.94 108.044 118.76 105.969C119.579 103.893 119.763 101.622 119.289 99.4418C118.814 97.2618 117.702 95.2713 116.093 93.7218C113.938 91.6433 111.043 90.5034 108.046 90.5525C105.048 90.6017 102.193 91.8359 100.108 93.9839L100.102 94.0022Z" fill="#F5F5F5"/>
<path d="M200.02 220.428C200.163 220.525 200.273 220.662 200.337 220.821C200.402 220.98 200.417 221.155 200.382 221.324C200.348 221.492 200.264 221.646 200.141 221.767C200.019 221.888 199.863 221.97 199.694 222.003C199.525 222.036 199.35 222.018 199.19 221.952C199.031 221.886 198.895 221.774 198.8 221.631C198.704 221.489 198.653 221.321 198.652 221.149C198.652 220.977 198.703 220.809 198.798 220.665C198.861 220.568 198.944 220.485 199.04 220.42C199.136 220.356 199.245 220.311 199.359 220.289C199.473 220.267 199.59 220.267 199.704 220.291C199.817 220.315 199.925 220.362 200.02 220.428Z" fill="#E0E0E0"/>
<path d="M243.072 184.401C243.106 184.57 243.089 184.746 243.023 184.905C242.957 185.065 242.846 185.201 242.702 185.297C242.558 185.393 242.389 185.445 242.216 185.445C242.043 185.445 241.874 185.394 241.73 185.299C241.586 185.203 241.474 185.067 241.408 184.907C241.341 184.748 241.324 184.573 241.358 184.403C241.391 184.234 241.475 184.079 241.597 183.957C241.719 183.835 241.875 183.752 242.045 183.718C242.272 183.673 242.507 183.72 242.7 183.848C242.892 183.976 243.026 184.175 243.072 184.401Z" fill="#E0E0E0"/>
<path d="M205.986 222.165C205.992 222.194 205.992 222.223 205.986 222.251C205.98 222.28 205.969 222.307 205.953 222.331C205.937 222.355 205.916 222.375 205.892 222.392C205.867 222.408 205.84 222.419 205.812 222.424C205.783 222.43 205.754 222.43 205.726 222.424C205.697 222.419 205.67 222.407 205.646 222.391C205.622 222.375 205.601 222.354 205.585 222.33C205.569 222.306 205.558 222.279 205.552 222.251C205.541 222.193 205.553 222.134 205.585 222.085C205.618 222.036 205.669 222.003 205.726 221.991C205.784 221.98 205.843 221.992 205.892 222.025C205.941 222.057 205.975 222.108 205.986 222.165Z" fill="#E0E0E0"/>
<path d="M205.87 197.314C205.881 197.372 205.869 197.431 205.837 197.48C205.804 197.528 205.753 197.562 205.696 197.573C205.638 197.585 205.579 197.573 205.53 197.54C205.481 197.508 205.447 197.457 205.436 197.4C205.43 197.371 205.43 197.341 205.435 197.312C205.441 197.283 205.452 197.255 205.469 197.231C205.485 197.206 205.507 197.186 205.531 197.17C205.556 197.153 205.584 197.143 205.613 197.137C205.642 197.132 205.671 197.133 205.699 197.139C205.728 197.145 205.755 197.156 205.779 197.173C205.802 197.189 205.823 197.21 205.838 197.234C205.854 197.259 205.865 197.286 205.87 197.314Z" fill="#E0E0E0"/>
<path d="M242.149 202.228C242.154 202.257 242.154 202.286 242.148 202.314C242.142 202.342 242.13 202.369 242.114 202.393C242.097 202.417 242.076 202.437 242.052 202.453C242.028 202.469 242 202.479 241.972 202.484C241.944 202.491 241.915 202.491 241.886 202.486C241.858 202.48 241.831 202.469 241.807 202.454C241.783 202.438 241.763 202.417 241.747 202.393C241.731 202.369 241.72 202.342 241.715 202.314C241.709 202.285 241.708 202.256 241.714 202.227C241.719 202.199 241.73 202.171 241.746 202.147C241.762 202.122 241.782 202.101 241.806 202.085C241.83 202.069 241.858 202.057 241.886 202.051C241.915 202.045 241.945 202.045 241.974 202.051C242.003 202.056 242.031 202.068 242.055 202.084C242.08 202.101 242.101 202.122 242.117 202.147C242.133 202.171 242.144 202.199 242.149 202.228Z" fill="#E0E0E0"/>
<path d="M243.158 191.51C243.164 191.538 243.164 191.567 243.159 191.595C243.154 191.623 243.143 191.65 243.127 191.674C243.111 191.698 243.09 191.719 243.066 191.734C243.042 191.75 243.015 191.761 242.986 191.766C242.958 191.772 242.928 191.773 242.9 191.767C242.871 191.762 242.844 191.751 242.819 191.735C242.795 191.72 242.774 191.699 242.757 191.675C242.741 191.651 242.729 191.624 242.724 191.595C242.717 191.566 242.717 191.537 242.723 191.508C242.728 191.479 242.74 191.451 242.756 191.427C242.773 191.402 242.794 191.381 242.819 191.365C242.844 191.349 242.872 191.338 242.901 191.333C242.929 191.328 242.959 191.328 242.987 191.334C243.015 191.34 243.042 191.352 243.066 191.368C243.09 191.385 243.11 191.406 243.126 191.43C243.142 191.454 243.152 191.481 243.158 191.51Z" fill="#E0E0E0"/>
<path d="M193.902 70.6084C192.049 65.7583 189.21 61.343 185.564 57.6403C179.262 51.2141 172.079 45.5379 163.955 41.5505C155.832 37.5632 142.561 34.027 132.921 34.0818C127.933 33.8867 125.415 34.1977 120.879 35.9475C118.049 37.0388 115.671 39.5568 115.475 42.5382C115.292 45.3001 117.004 48.6961 119.29 50.3057C129.119 57.2196 136.564 57.5793 146.1 60.6216C155.636 63.664 165.441 68.1696 170.582 76.6321C173.375 81.217 174.964 87.0944 179.806 89.5271C184.5 91.8927 190.686 89.6002 193.565 85.2592C196.444 80.9182 195.76 75.4554 193.902 70.6084Z" fill="#F5F5F5"/>
<g opacity="0.3">
<path d="M62.8385 192.662C62.7835 192.796 61.8299 192.425 60.2345 192.272C58.1788 192.046 56.1016 192.424 54.2585 193.36C52.4155 194.296 50.887 195.749 49.8612 197.54C49.0482 198.918 48.7915 199.905 48.6387 199.869C48.4859 199.832 48.5715 198.79 49.2866 197.247C49.7112 196.346 50.2697 195.513 50.9432 194.778C51.7695 193.867 52.7529 193.111 53.8467 192.546C54.9479 191.997 56.1378 191.646 57.3615 191.51C58.354 191.399 59.3576 191.438 60.3384 191.626C61.995 191.979 62.8813 192.577 62.8385 192.662Z" fill="white"/>
</g>
<g opacity="0.3">
<path d="M31.8898 49.1411C31.8898 49.1777 31.5964 49.074 31.2785 48.6899C30.8429 48.1101 30.6128 47.4024 30.6244 46.6779C30.6219 46.1788 30.7089 45.6833 30.8812 45.2147C31.0758 44.6895 31.3411 44.1932 31.6697 43.7392C32.4309 42.7654 33.2602 41.8466 34.1515 40.9895C37.7763 37.2887 40.8388 34.4171 41.0038 34.5756C41.1689 34.7341 38.357 37.8557 34.7322 41.5566C33.8707 42.3862 33.0545 43.2613 32.2871 44.1782C31.9794 44.5746 31.7208 45.0065 31.5169 45.4647C31.3512 45.8525 31.2481 46.2641 31.2113 46.684C31.1518 47.3137 31.2704 47.9473 31.5536 48.5131C31.7431 48.9033 31.9326 49.0923 31.8898 49.1411Z" fill="white"/>
</g>
<path d="M79.9542 14.6327C79.8686 13.5047 78.9945 11.7183 76.8979 11.9805C76.0421 11.9805 75.1191 13.0353 74.899 13.8645C74.7997 14.2819 74.8179 14.7186 74.9517 15.1263C75.0855 15.534 75.3295 15.897 75.657 16.1752C75.994 16.4497 76.3897 16.6435 76.8135 16.7418C77.2374 16.8401 77.6782 16.8402 78.1021 16.7422C79.0984 16.5288 80.0337 15.6508 79.9542 14.6327Z" fill="#F5F5F5"/>
<path d="M177.14 131.779C177.054 130.651 176.18 128.865 174.083 129.127C173.228 129.127 172.305 130.182 172.085 131.011C171.985 131.429 172.003 131.865 172.137 132.273C172.271 132.681 172.515 133.044 172.843 133.322C173.18 133.596 173.575 133.79 173.999 133.889C174.423 133.987 174.864 133.987 175.288 133.889C176.284 133.676 177.219 132.798 177.14 131.779Z" fill="#BFBFBF"/>
<path d="M170.183 138.855C170.137 138.218 169.667 137.208 168.54 137.356C168.08 137.356 167.584 137.952 167.466 138.421C167.412 138.657 167.422 138.904 167.494 139.134C167.566 139.364 167.697 139.57 167.873 139.727C168.054 139.882 168.267 139.991 168.495 140.047C168.723 140.102 168.96 140.103 169.187 140.047C169.723 139.927 170.226 139.43 170.183 138.855Z" fill="#BFBFBF"/>
<path d="M25.4104 230.957L25.8811 231.744C26.4133 232.625 27.1875 233.336 28.1123 233.792L28.9375 234.201L28.1489 234.67C27.2652 235.201 26.5524 235.973 26.0951 236.895L25.6855 237.718L25.2148 236.932C24.6761 236.049 23.8956 235.338 22.9654 234.883L22.1401 234.475L22.9287 234.005C23.8125 233.475 24.5252 232.702 24.9826 231.78L25.4104 230.957Z" fill="#EBEBEB"/>
<path d="M227.613 239.566L228.09 240.352C228.618 241.237 229.393 241.948 230.321 242.401L231.14 242.809L230.351 243.285C229.469 243.815 228.757 244.585 228.297 245.504L227.894 246.327L227.417 245.541C226.885 244.659 226.111 243.948 225.186 243.492L224.361 243.09L225.149 242.614C226.036 242.087 226.75 241.314 227.203 240.389L227.613 239.566Z" fill="#EBEBEB"/>
<path d="M254.46 158.288L254.937 159.074C255.468 159.957 256.242 160.668 257.168 161.123L257.993 161.531L257.205 162.001C256.32 162.53 255.606 163.303 255.151 164.226L254.741 165.049L254.265 164.263C253.733 163.383 252.961 162.672 252.04 162.214L251.214 161.812L252.003 161.336C252.885 160.804 253.598 160.032 254.057 159.111L254.46 158.288Z" fill="#EBEBEB"/>
<path d="M262.511 270.702C262.511 270.788 208.266 270.861 141.375 270.861C74.4835 270.861 20.2271 270.77 20.2271 270.702C20.2271 270.635 74.4529 270.544 141.375 270.544C208.297 270.544 262.511 270.593 262.511 270.702Z" fill="#263238"/>
<path d="M49.727 81.4485L50.1671 82.1801C50.6603 82.9996 51.3797 83.66 52.2393 84.0824L53.0095 84.4604L52.276 84.9054C51.4528 85.3973 50.7887 86.1147 50.3627 86.9723L49.9837 87.7344L49.5436 87.0089C49.0483 86.1874 48.3269 85.525 47.4653 85.1005L46.7012 84.7225L47.4347 84.2836C48.2565 83.7892 48.9185 83.0696 49.3419 82.2106L49.727 81.4485Z" fill="#F7DF8A"/>
<path d="M208.395 161.739L208.835 162.47C209.33 163.29 210.049 163.952 210.907 164.379L211.677 164.757L210.944 165.196C210.12 165.69 209.456 166.409 209.031 167.269L208.652 168.031L208.212 167.299C207.715 166.481 206.997 165.819 206.139 165.391L205.369 165.013L206.103 164.574C206.926 164.082 207.59 163.365 208.016 162.507L208.395 161.739Z" fill="#F7DF8A"/>
<path d="M122.212 10.9744L122.652 11.706C123.145 12.527 123.864 13.1894 124.724 13.6143L125.494 13.9923L124.761 14.4313C123.944 14.9149 123.281 15.6186 122.848 16.4616L122.469 17.2298L122.028 16.4982C121.533 15.6767 120.812 15.0143 119.95 14.5898L119.186 14.2118L119.92 13.7728C120.74 13.2793 121.402 12.5622 121.827 11.706L122.212 10.9744Z" fill="#F7DF8A"/>
<path d="M225.382 79.8694L225.822 80.601C226.317 81.4225 227.039 82.0848 227.9 82.5093L228.665 82.8874L227.931 83.3263C227.111 83.8199 226.449 84.537 226.024 85.3932L225.645 86.1614L225.205 85.4298C224.709 84.6083 223.988 83.9459 223.126 83.5214L222.362 83.1434L223.09 82.7044C223.912 82.211 224.575 81.494 225.003 80.6376L225.382 79.8694Z" fill="#F7DF8A"/>
<path d="M66.4391 109.622L66.757 110.153C67.1188 110.751 67.6449 111.233 68.2729 111.543L68.8353 111.817L68.2974 112.14C67.6976 112.501 67.2139 113.026 66.9037 113.652L66.6286 114.207L66.3046 113.677C65.9428 113.078 65.4167 112.596 64.7887 112.287L64.2324 112.012L64.7642 111.689C65.3656 111.33 65.8497 110.805 66.1579 110.177L66.4391 109.622Z" fill="#F7DF8A"/>
<path d="M81.0363 177.944L81.3603 178.481C81.7223 179.074 82.2459 179.552 82.8701 179.859L83.4325 180.133L82.8945 180.456C82.2947 180.817 81.8111 181.342 81.5008 181.968L81.2258 182.523L80.9018 181.993C80.5416 181.395 80.0178 180.913 79.392 180.603L78.8296 180.322L79.3675 180.005C79.9673 179.644 80.4509 179.119 80.7612 178.493L81.0363 177.944Z" fill="#F7DF8A"/>
<path d="M220.589 59.1401L220.907 59.6706C221.267 60.2704 221.794 60.7532 222.423 61.0607L222.986 61.3411L222.448 61.6582C221.848 62.0191 221.364 62.5438 221.054 63.1702L220.779 63.7311L220.455 63.1946C220.093 62.5963 219.567 62.1139 218.939 61.8045L218.383 61.5301L218.915 61.207C219.516 60.848 220 60.3228 220.308 59.695L220.589 59.1401Z" fill="#47A082"/>
<path d="M37.8195 95.2092L38.1373 95.7397C38.4983 96.3402 39.0244 96.8247 39.6533 97.1359L40.2157 97.4102L39.6777 97.7272C39.0805 98.0913 38.5976 98.6152 38.284 99.2393L38.009 99.8002L37.685 99.2637C37.3231 98.6654 36.7971 98.183 36.169 97.8736L35.6128 97.5992L36.1446 97.2761C36.7459 96.9171 37.23 96.3918 37.5383 95.764L37.8195 95.2092Z" fill="#F7DF8A"/>
<path d="M236.043 62.4446L236.226 62.7494C236.434 63.0909 236.735 63.3659 237.094 63.542L237.418 63.7005L237.113 63.8834C236.763 64.0866 236.48 64.3876 236.3 64.7492L236.141 65.0723L235.957 64.7675C235.752 64.4229 235.45 64.1454 235.089 63.9688L234.771 63.8103L235.077 63.6274C235.419 63.4204 235.695 63.12 235.872 62.7616L236.043 62.4446Z" fill="#F7DF8A"/>
<path d="M224.618 150.216L224.801 150.527C225.009 150.868 225.31 151.143 225.669 151.319L225.987 151.478L225.681 151.661C225.337 151.867 225.06 152.168 224.881 152.526L224.722 152.849L224.538 152.538C224.331 152.197 224.03 151.922 223.67 151.746L223.353 151.587L223.658 151.404C224.002 151.198 224.28 150.897 224.459 150.539L224.618 150.216Z" fill="#F7DF8A"/>
<path d="M145.569 4.10327L145.752 4.40812C145.959 4.74955 146.261 5.02458 146.62 5.20071L146.944 5.35923L146.638 5.54824C146.291 5.74985 146.01 6.04876 145.831 6.4079L145.672 6.73104L145.489 6.42619C145.279 6.0812 144.973 5.80393 144.609 5.6275L144.303 5.48727L144.615 5.30436C144.957 5.09736 145.233 4.79694 145.41 4.4386L145.569 4.10327Z" fill="#F7DF8A"/>
<path d="M110.561 19.6687L110.744 19.9735C110.948 20.3151 111.245 20.592 111.6 20.7722L111.918 20.9308L111.612 21.1137C111.27 21.3207 110.994 21.6211 110.817 21.9794L110.659 22.2965L110.469 21.9916C110.264 21.6486 109.965 21.3714 109.607 21.1929L109.283 21.0344L109.589 20.8515C109.93 20.6447 110.204 20.344 110.377 19.9857L110.561 19.6687Z" fill="#F7DF8A"/>
<path d="M84.9729 185.956L85.1562 186.26C85.3634 186.604 85.6646 186.881 86.0242 187.059L86.3421 187.218L86.0365 187.401C85.6941 187.608 85.4184 187.908 85.2418 188.266L85.0829 188.583L84.8995 188.278C84.6908 187.937 84.39 187.66 84.0315 187.48L83.7075 187.321L84.0132 187.138C84.3586 186.933 84.6368 186.633 84.8139 186.273L84.9729 185.956Z" fill="#F7DF8A"/>
<path d="M174.915 230.969L99.1177 230.792C95.9758 230.792 93.4329 228.579 93.439 225.866C93.439 223.159 96.0002 220.989 99.1421 220.989L174.94 221.165C178.082 221.165 180.619 223.372 180.612 226.086C180.606 228.78 178.057 230.975 174.915 230.969Z" fill="#455A64"/>
<path d="M174.915 219.044L99.1177 218.873C95.9758 218.873 93.4329 216.66 93.439 213.947C93.439 211.233 96.0002 209.069 99.1421 209.069L174.94 209.24C178.082 209.24 180.619 211.453 180.612 214.166C180.606 216.861 178.057 219.05 174.915 219.044Z" fill="#455A64"/>
<path d="M171.871 232.749L102.48 232.591C101.163 232.681 99.9303 233.266 99.0298 234.228C98.1293 235.19 97.6284 236.457 97.6284 237.773C97.6284 239.089 98.1293 240.356 99.0298 241.318C99.9303 242.28 101.163 242.865 102.48 242.956H110.096L120.158 262.203C120.725 263.279 121.574 264.181 122.616 264.812C123.657 265.444 124.85 265.781 126.069 265.788L150.868 265.843C152.1 265.847 153.309 265.512 154.362 264.874C155.414 264.236 156.27 263.32 156.834 262.228L166.7 243.126H171.877C173.194 243.036 174.427 242.451 175.327 241.489C176.228 240.527 176.729 239.26 176.729 237.944C176.729 236.628 176.228 235.361 175.327 234.399C174.427 233.437 173.194 232.852 171.877 232.762L171.871 232.749Z" fill="#455A64"/>
<path d="M195.705 152.222C195.705 152.222 195.515 152.514 195.142 153.057L193.492 155.496L192.288 157.3C191.848 157.965 191.414 158.727 190.912 159.532L189.323 162.153C188.742 163.08 188.241 164.135 187.642 165.202C187.349 165.751 187.031 166.311 186.737 166.885C186.585 167.177 186.432 167.494 186.273 167.763C186.114 168.031 185.985 168.372 185.839 168.683C185.228 169.933 184.616 171.238 184.005 172.61L182.208 176.993C181.639 178.536 181.077 180.158 180.496 181.834C179.319 185.451 178.358 189.134 177.617 192.863C176.782 197.07 176.372 201.349 176.395 205.637V205.74H176.297L95.395 205.783H95.2667V205.655C94.417 196.211 91.9483 186.982 87.9681 178.371C85.884 173.804 83.4798 169.389 80.7734 165.159C79.4042 163.007 77.9493 160.891 76.4028 158.812C74.8563 156.733 73.1692 154.752 71.5126 152.715L71.3109 152.471H71.6349L71.5188 152.715C63.9406 142.996 58.7696 131.63 56.4265 119.542C56.0964 117.994 55.8947 116.421 55.6501 114.848C55.5523 114.055 55.479 113.262 55.3934 112.47L55.2712 111.25L55.1917 110.031C55.1489 109.232 55.0756 108.434 55.0511 107.629C55.0267 106.824 55.0511 106.019 55.0022 105.19C54.9533 104.361 55.0022 103.58 55.0022 102.751C55.0022 101.922 55.0022 101.129 55.0756 100.312C55.4456 93.7708 56.6157 87.2987 58.5598 81.0402C64.2033 63.3898 75.9125 48.2929 91.6235 38.4106C95.3663 36.0581 99.298 34.0189 103.378 32.3137C107.385 30.6517 111.526 29.3321 115.756 28.369C123.956 26.485 132.404 25.919 140.782 26.6924C144.812 27.073 148.809 27.7517 152.738 28.7226C156.556 29.7033 160.3 30.9502 163.943 32.4539C167.459 33.9638 170.871 35.7032 174.157 37.6607C177.316 39.5976 180.344 41.7381 183.223 44.0685C188.664 48.5296 193.485 53.6945 197.557 59.4266C201.32 64.7101 204.401 70.4458 206.726 76.498C207.337 77.9247 207.759 79.3879 208.26 80.8146C208.761 82.2413 209.092 83.6923 209.483 85.0824C209.807 86.5213 210.161 87.9297 210.442 89.3503C210.565 90.0575 210.693 90.7525 210.815 91.4476C210.938 92.1426 211.072 92.8316 211.145 93.5266C211.899 98.7115 212.135 103.958 211.848 109.19C211.35 117.592 209.492 125.858 206.347 133.669C205.195 136.506 203.885 139.276 202.423 141.967C201.127 144.296 199.941 146.234 198.926 147.722L197.575 149.704L196.536 151.088L195.686 152.222L196.505 151.088L197.532 149.679L198.877 147.685C199.88 146.173 201.053 144.253 202.337 141.924C203.787 139.23 205.087 136.457 206.231 133.62C211.277 120.896 212.906 107.078 210.956 93.5327C210.883 92.8377 210.748 92.1548 210.626 91.4598C210.504 90.7647 210.375 90.0697 210.247 89.3685C209.972 87.9663 209.636 86.564 209.287 85.1007C208.939 83.6375 208.505 82.2535 208.065 80.8329C207.624 79.4123 207.135 77.949 206.53 76.5285C204.206 70.4991 201.125 64.7876 197.361 59.5303C193.294 53.829 188.484 48.693 183.057 44.2575C180.183 41.942 177.163 39.8119 174.017 37.8802C170.742 35.9303 167.339 34.2011 163.833 32.7039C160.204 31.2071 156.474 29.9664 152.671 28.9909C148.754 28.0211 144.77 27.3465 140.751 26.9728C132.405 26.2046 123.99 26.7727 115.824 28.6556C111.609 29.6146 107.485 30.9302 103.494 32.5881C99.4302 34.2942 95.5148 36.3335 91.7885 38.685C76.1206 48.562 64.4589 63.6467 58.8654 81.2719C56.9284 87.5066 55.7624 93.9541 55.3934 100.471C55.3506 101.276 55.3445 102.081 55.3201 102.91C55.2956 103.739 55.2528 104.513 55.2895 105.318C55.3262 106.123 55.3201 106.922 55.3384 107.72C55.3567 108.519 55.4301 109.318 55.479 110.11L55.5523 111.33L55.6746 112.549C55.7602 113.335 55.8396 114.128 55.9374 114.915C56.1758 116.481 56.3776 118.048 56.7015 119.591C59.0336 131.632 64.1814 142.953 71.7266 152.636L71.9222 152.886H71.6043L71.7266 152.636C73.3954 154.654 75.113 156.63 76.6168 158.733C78.1205 160.836 79.6242 162.946 80.9935 165.104C83.71 169.343 86.1184 173.771 88.2004 178.353C92.1991 186.994 94.6803 196.255 95.5356 205.734L95.4011 205.606L176.303 205.649L176.205 205.752C176.194 201.453 176.616 197.164 177.464 192.949C178.201 189.21 179.156 185.517 180.325 181.889C180.936 180.212 181.48 178.591 182.055 177.048C182.63 175.506 183.278 174.061 183.889 172.658C184.5 171.256 185.154 169.982 185.723 168.738L186.157 167.817L186.627 166.939C186.939 166.366 187.239 165.805 187.538 165.257C188.149 164.178 188.651 163.123 189.231 162.208L190.833 159.593C191.334 158.788 191.774 158.026 192.22 157.367C192.667 156.709 193.082 156.111 193.443 155.581L195.118 153.142L195.729 152.319L195.705 152.222Z" fill="#263238"/>
<path d="M66.2006 130.84C66.1697 130.786 66.147 130.729 66.1333 130.669C66.0844 130.535 66.0294 130.364 65.9561 130.151C65.7972 129.675 65.5832 129.011 65.3081 128.163L64.8436 126.724C64.6907 126.194 64.5563 125.609 64.3973 124.987C64.0917 123.731 63.6821 122.316 63.4193 120.719C63.2726 119.92 63.1198 119.085 62.9547 118.213C62.7897 117.341 62.7163 116.421 62.588 115.469C62.3007 113.579 62.209 111.543 62.0684 109.372C61.8861 104.714 62.0905 100.048 62.6797 95.4228C63.3411 90.8073 64.3817 86.2538 65.791 81.8084C66.5001 79.7781 67.1358 77.8393 67.9183 76.0895C68.2973 75.2115 68.6212 74.3458 69.0063 73.5471L70.125 71.2546C70.8035 69.7792 71.5798 68.5232 72.2033 67.3953C72.5273 66.8405 72.8146 66.3101 73.1019 65.8406L73.9332 64.5724L75.0885 62.8287L75.3941 62.3836C75.4675 62.28 75.5042 62.2312 75.5103 62.2373C75.5164 62.2434 75.5103 62.2922 75.4247 62.4019L75.1435 62.8653L74.0371 64.6395L73.2302 65.9138C72.949 66.3893 72.674 66.9258 72.3622 67.4868C71.7509 68.6208 70.9868 69.8767 70.3267 71.3583L69.2264 73.6507C68.8535 74.4494 68.5357 75.3152 68.1628 76.1931C67.3926 77.9369 66.7691 79.8513 66.0722 81.8998C64.691 86.3328 63.6689 90.8693 63.0159 95.4655C62.425 100.072 62.2063 104.719 62.3618 109.36C62.4963 111.494 62.5758 113.531 62.8508 115.415C62.9731 116.36 63.0464 117.28 63.1993 118.152C63.3521 119.024 63.4988 119.853 63.6455 120.652C63.8839 122.255 64.2567 123.7 64.5685 124.92C64.7213 125.529 64.8497 126.139 64.9903 126.663C65.1309 127.188 65.2959 127.669 65.4243 128.108C65.6749 128.962 65.8766 129.632 66.0356 130.108L66.1823 130.632C66.199 130.7 66.2052 130.77 66.2006 130.84Z" fill="#263238"/>
<path d="M89.5513 48.7754C88.2208 50.1275 86.8168 51.4057 85.3458 52.6042C83.9432 53.8852 82.4676 55.0842 80.9263 56.1953C82.2581 54.8424 83.6642 53.5641 85.1379 52.3665C86.5396 51.087 88.0131 49.888 89.5513 48.7754Z" fill="#263238"/>
<path d="M196.566 139.686C196.566 139.686 196.566 139.638 196.621 139.546L196.805 139.15L197.532 137.65L198.064 136.571C198.254 136.174 198.437 135.729 198.675 135.26C199.079 134.315 199.586 133.26 200.032 132.047L200.766 130.151C201.016 129.492 201.23 128.791 201.475 128.072C201.988 126.639 202.41 125.072 202.881 123.426C203.822 119.842 204.529 116.2 204.996 112.525C205.419 108.841 205.605 105.135 205.552 101.428C205.485 99.7211 205.454 98.0932 205.295 96.5507C205.228 95.7947 205.185 95.0631 205.1 94.3619C205.014 93.6608 204.922 92.9901 204.843 92.35C204.702 91.0635 204.464 89.9112 204.299 88.9052C204.207 88.3992 204.134 87.9236 204.048 87.4907C203.963 87.0578 203.865 86.6737 203.786 86.3201L203.437 84.6861C203.407 84.5154 203.376 84.3752 203.358 84.2594C203.349 84.2109 203.349 84.1615 203.358 84.113C203.378 84.1582 203.395 84.2051 203.407 84.2533C203.437 84.3691 203.474 84.5032 203.517 84.674C203.62 85.0702 203.755 85.6068 203.926 86.2896L204.213 87.4602C204.311 87.8931 204.391 88.3626 204.488 88.8686C204.672 89.8807 204.929 91.033 205.1 92.3195L205.381 94.3314C205.473 95.0387 205.522 95.7703 205.595 96.5324C205.766 98.0445 205.809 99.6784 205.882 101.41C206.07 108.862 205.168 116.301 203.205 123.493C202.722 125.139 202.288 126.712 201.762 128.145C201.505 128.864 201.292 129.565 201.029 130.224L200.277 132.114C199.818 133.333 199.299 134.382 198.877 135.321C198.657 135.79 198.467 136.229 198.266 136.626L197.703 137.693L196.921 139.168L196.713 139.546C196.674 139.602 196.624 139.649 196.566 139.686Z" fill="#263238"/>
<path d="M185.887 55.2672C181.705 52.8772 177.329 50.7006 172.628 49.6642C171.976 49.4862 171.296 49.4283 170.623 49.4935C170.287 49.532 169.965 49.6493 169.684 49.8358C169.402 50.0223 169.169 50.2727 169.003 50.5665C168.6 51.4018 169.003 52.3956 169.498 53.1699C170.629 54.877 172.322 56.1147 174.028 57.2426C178.704 60.3337 183.723 62.8518 188.698 65.3637C188.087 61.8031 186.816 58.7486 185.856 55.2672" fill="#47A082"/>
<path d="M217.942 64.4553C219.311 69.0645 220.955 73.6494 223.633 77.6429C223.982 78.2229 224.436 78.7335 224.972 79.1488C225.239 79.3551 225.553 79.4938 225.886 79.5533C226.219 79.6127 226.562 79.5911 226.885 79.4903C227.753 79.1671 228.168 78.1794 228.327 77.271C228.694 75.259 228.327 73.1922 227.881 71.2046C226.659 65.7174 224.764 60.4679 222.887 55.2002C220.876 58.206 219.66 61.2971 217.942 64.4553Z" fill="#47A082"/>
<path d="M185.826 55.1696C185.826 55.1696 186.15 87.0869 204.109 87.7149C222.068 88.3429 222.82 55.4013 222.82 55.1696C222.82 55.1696 220.699 50.414 204.323 50.5969C187.947 50.7798 185.826 55.1696 185.826 55.1696Z" fill="#47A082"/>
<path d="M209.678 67.8452C209.588 69.0636 209.139 70.2283 208.386 71.192C207.633 72.1556 206.611 72.8749 205.448 73.2588C204.285 73.6428 203.034 73.6742 201.854 73.349C200.673 73.0239 199.615 72.3567 198.815 71.4321C198.014 70.5074 197.507 69.3667 197.356 68.1543C197.206 66.9418 197.419 65.7121 197.97 64.6207C198.52 63.5293 199.383 62.6252 200.448 62.0227C201.514 61.4202 202.734 61.1465 203.956 61.2361C205.593 61.3562 207.116 62.1199 208.189 63.3592C209.261 64.5986 209.797 66.2121 209.678 67.8452Z" fill="#263238"/>
<path d="M208.002 67.7232C207.937 68.6107 207.61 69.459 207.061 70.1608C206.512 70.8626 205.767 71.3864 204.92 71.6659C204.073 71.9454 203.162 71.9681 202.302 71.731C201.442 71.494 200.672 71.008 200.089 70.3344C199.506 69.6607 199.136 68.8298 199.026 67.9466C198.917 67.0634 199.072 66.1676 199.473 65.3725C199.874 64.5775 200.502 63.9188 201.278 63.4799C202.055 63.041 202.944 62.8415 203.834 62.9066C205.026 62.9955 206.135 63.5525 206.916 64.4554C207.698 65.3583 208.088 66.5334 208.002 67.7232Z" fill="white"/>
<path d="M205.826 68.5462C205.792 68.2999 205.778 68.0511 205.783 67.8024C205.783 67.333 205.783 66.6745 205.783 65.8636L205.832 65.949L203.491 64.6015H203.62L201.278 65.9124C201.217 66.0221 201.364 65.7722 201.352 65.7965V66.4855C201.352 66.7111 201.352 66.9428 201.352 67.1683C201.352 67.6134 201.352 68.0463 201.352 68.467L201.291 68.3511L203.583 69.7473H203.479C204.194 69.3632 204.787 69.0584 205.203 68.845C205.418 68.7229 205.643 68.6189 205.875 68.534C205.683 68.6792 205.478 68.8077 205.264 68.9182C204.873 69.1559 204.286 69.5278 203.552 69.9241L203.503 69.9546L203.455 69.9241L201.132 68.5767L201.064 68.5402V68.4609C201.064 68.0402 201.064 67.6073 201.064 67.1622C201.064 66.9367 201.064 66.7111 201.064 66.4794V65.8209C201.064 65.8209 201.199 65.5953 201.132 65.699L203.485 64.4003L203.552 64.3638L203.613 64.4003L205.906 65.8026H205.961V65.8575C205.961 66.6989 205.912 67.3756 205.887 67.839C205.889 68.0761 205.869 68.3129 205.826 68.5462Z" fill="#47A082"/>
<path d="M185.746 55.1452C185.746 55.1452 185.783 55.1452 185.844 55.1452L186.113 55.2367L187.158 55.6025L187.904 55.8708L188.815 56.1512C189.463 56.3463 190.196 56.5963 191.034 56.7609L192.336 57.0901C192.788 57.206 193.265 57.2913 193.76 57.395C194.738 57.6206 195.808 57.773 196.92 57.9559C201.785 58.6539 206.726 58.6539 211.591 57.9559C212.709 57.7791 213.773 57.6267 214.751 57.4011C215.246 57.2914 215.723 57.206 216.175 57.0962L217.477 56.7609C218.315 56.5658 219.048 56.3158 219.702 56.1512C220.026 56.0537 220.313 55.9683 220.607 55.8769L221.359 55.6086L222.398 55.2428L222.667 55.1513L222.765 55.1208C222.765 55.1208 222.734 55.1208 222.673 55.1635L222.404 55.2672L221.371 55.6513L220.625 55.9317C220.35 56.0293 220.014 56.1146 219.721 56.2244C219.073 56.4195 218.339 56.6756 217.502 56.8768L216.2 57.2182C215.747 57.334 215.271 57.4255 214.775 57.5352C213.791 57.7608 212.728 57.9193 211.609 58.1022C206.731 58.8176 201.774 58.8176 196.896 58.1022C195.771 57.9193 194.707 57.7608 193.723 57.5291C193.234 57.4255 192.751 57.334 192.299 57.2182L190.997 56.8768C190.159 56.6756 189.432 56.4195 188.778 56.2183L187.873 55.9317L187.128 55.6513L186.095 55.2611L185.826 55.1574L185.746 55.1452Z" fill="#263238"/>
<g opacity="0.3">
<path d="M185.826 55.1697C185.826 55.1697 187.947 50.786 204.323 50.597C220.699 50.408 222.82 55.1697 222.82 55.1697C222.82 55.1697 206.303 63.2969 185.826 55.1697Z" fill="black"/>
</g>
<path d="M191.455 77.8867C191.443 77.872 191.432 77.8556 191.424 77.838L191.345 77.6977L191.045 77.1368L190.838 76.7344L190.605 76.2406C190.44 75.887 190.257 75.4846 190.074 75.0212L189.78 74.3079L189.493 73.5275C189.279 72.9909 189.102 72.3995 188.882 71.7838C188.496 70.5644 188.124 69.1682 187.793 67.7049C187.463 66.2417 187.225 64.8394 187.029 63.5529C186.834 62.2665 186.705 61.1142 186.632 60.1326C186.583 59.6448 186.553 59.2058 186.528 58.8156C186.504 58.4254 186.485 58.0901 186.473 57.8157V57.2061V56.9805C186.473 56.9805 186.473 56.9805 186.473 57.0414V57.2C186.473 57.3585 186.473 57.5658 186.522 57.8096C186.571 58.0535 186.559 58.4193 186.595 58.8034C186.632 59.1876 186.663 59.6326 186.712 60.1204C186.803 61.0959 186.956 62.2482 187.139 63.5346C187.323 64.8211 187.592 66.2112 187.91 67.6744C188.227 69.1377 188.613 70.5034 188.985 71.7411C189.193 72.3508 189.364 72.9605 189.597 73.4848L189.878 74.2713L190.165 74.9846C190.336 75.4419 190.52 75.8443 190.679 76.204L190.899 76.704L191.1 77.1124L191.376 77.6795L191.443 77.8258L191.455 77.8867Z" fill="white"/>
<path d="M200.111 85.5627C200.014 85.5594 199.918 85.5471 199.823 85.5262C199.564 85.4851 199.309 85.4239 199.059 85.3432C198.687 85.2321 198.323 85.0935 197.971 84.9287C197.546 84.7211 197.137 84.4805 196.749 84.2092C196.36 83.934 195.994 83.6282 195.655 83.2947C195.377 83.0201 195.122 82.7245 194.891 82.4106C194.732 82.2042 194.589 81.9861 194.463 81.7583C194.409 81.6778 194.364 81.592 194.328 81.5022C194.328 81.5022 194.554 81.8436 194.939 82.3558C195.178 82.6563 195.435 82.9414 195.71 83.2093C196.05 83.5338 196.414 83.8334 196.798 84.1056C197.186 84.3744 197.595 84.6129 198.02 84.8189C198.365 84.9876 198.72 85.1343 199.084 85.2579C199.707 85.4652 200.111 85.5383 200.111 85.5627Z" fill="white"/>
<path d="M203.852 74.3017H203.681C203.571 74.3017 203.4 74.3017 203.186 74.3017C202.58 74.2914 201.979 74.1949 201.401 74.0152C200.535 73.7536 199.728 73.3293 199.023 72.7653C198.143 72.0872 197.449 71.1986 197.006 70.1818C196.563 69.165 196.384 68.053 196.486 66.9488C196.527 66.4683 196.612 65.9927 196.743 65.5283C196.863 65.1289 197.014 64.7396 197.195 64.3638C197.461 63.8168 197.802 63.3099 198.21 62.8578C198.318 62.7362 198.432 62.6202 198.552 62.5103C198.638 62.431 198.681 62.3945 198.687 62.4006C198.693 62.4067 198.522 62.5713 198.247 62.8944C197.857 63.3497 197.532 63.8565 197.281 64.4003C197.104 64.7736 196.958 65.1611 196.847 65.5588C196.723 66.0156 196.643 66.4831 196.608 66.9549C196.51 68.0397 196.687 69.1315 197.121 70.1307C197.556 71.1298 198.235 72.0042 199.096 72.6738C199.467 72.9688 199.864 73.2299 200.282 73.4542C200.651 73.6399 201.033 73.7988 201.425 73.9298C201.998 74.1123 202.591 74.2209 203.192 74.2529C203.613 74.3017 203.852 74.2895 203.852 74.3017Z" fill="white"/>
<path d="M203.075 21.9841C203.075 21.9841 187.415 21.7951 184.97 35.3364C182.524 48.8776 195.734 49.1093 199.542 49.3592C201.272 49.4751 204.964 49.4873 208.222 49.4263C215.441 49.3044 220.539 47.9082 222.282 41.2321C222.489 40.4478 222.62 39.6454 222.673 38.836C223.095 31.5197 218.125 21.6244 203.075 21.9841Z" fill="#47A082"/>
<path d="M214.433 42.5856L191.688 42.9392C191.118 42.9481 190.553 42.8445 190.024 42.6344C189.495 42.4244 189.013 42.112 188.605 41.7153C188.198 41.3186 187.873 40.8454 187.65 40.323C187.427 39.8005 187.31 39.2392 187.305 38.6714C187.287 37.5291 187.724 36.4265 188.521 35.6057C189.317 34.7849 190.408 34.313 191.553 34.2938L214.311 33.9706C214.88 33.9626 215.445 34.0667 215.974 34.277C216.503 34.4872 216.986 34.7995 217.393 35.196C217.801 35.5925 218.126 36.0653 218.35 36.5874C218.575 37.1095 218.693 37.6706 218.7 38.2385C218.709 39.3786 218.266 40.4761 217.466 41.2908C216.667 42.1055 215.576 42.5711 214.433 42.5856Z" fill="#263238"/>
<path d="M196.407 38.2325C196.354 38.5015 196.223 38.7489 196.029 38.9433C195.835 39.1376 195.588 39.2702 195.318 39.3243C195.049 39.3784 194.77 39.3514 194.516 39.2469C194.262 39.1424 194.044 38.965 193.892 38.7372C193.739 38.5094 193.657 38.2415 193.657 37.9674C193.657 37.6933 193.739 37.4254 193.892 37.1977C194.045 36.9699 194.262 36.7925 194.516 36.688C194.77 36.5835 195.049 36.5566 195.319 36.6107C195.678 36.6829 195.994 36.8939 196.198 37.1978C196.402 37.5017 196.477 37.8736 196.407 38.2325Z" fill="white"/>
<path d="M212.3 37.9764C212.247 38.2453 212.116 38.4926 211.923 38.6871C211.729 38.8816 211.483 39.0145 211.213 39.0689C210.944 39.1234 210.665 39.0971 210.411 38.9932C210.157 38.8893 209.939 38.7125 209.786 38.4853C209.633 38.2581 209.551 37.9906 209.55 37.7167C209.549 37.4428 209.63 37.1749 209.782 36.9468C209.934 36.7186 210.15 36.5406 210.403 36.4352C210.657 36.3298 210.936 36.3018 211.205 36.3547C211.566 36.4254 211.883 36.6359 212.089 36.9399C212.294 37.244 212.37 37.6167 212.3 37.9764Z" fill="white"/>
<path d="M200.392 37.5923C200.496 37.5923 200.441 38.0861 200.746 38.7324C200.922 39.1006 201.171 39.4286 201.48 39.6957C201.846 40.0139 202.3 40.2137 202.782 40.2688C203.268 40.3041 203.752 40.1891 204.17 39.9396C204.523 39.7325 204.829 39.4543 205.068 39.1226C205.484 38.5434 205.521 38.0617 205.624 38.0678C205.728 38.0739 205.704 38.1898 205.704 38.4215C205.69 38.747 205.604 39.0655 205.453 39.3543C205.226 39.7904 204.892 40.1618 204.481 40.4334C203.966 40.7818 203.348 40.9471 202.727 40.9029C202.108 40.8371 201.529 40.5617 201.089 40.1225C200.734 39.7879 200.471 39.3681 200.325 38.9031C200.225 38.5922 200.198 38.2628 200.245 37.9398C200.288 37.6959 200.349 37.5862 200.392 37.5923Z" fill="white"/>
<path d="M201.095 22.9963H201.04H200.875C200.728 22.9963 200.514 22.9963 200.264 23.0451C199.486 23.1222 198.714 23.2505 197.953 23.4292C196.825 23.6956 195.727 24.0756 194.677 24.5632C193.387 25.1647 192.179 25.9268 191.082 26.8313C189.096 28.4871 187.514 30.5721 186.455 32.9282C186.134 33.6383 185.862 34.3696 185.642 35.117C185.556 35.3852 185.514 35.5925 185.471 35.7267L185.422 35.8852V35.9401C185.422 35.9401 185.422 35.9401 185.422 35.8852L185.459 35.7206C185.489 35.5803 185.526 35.367 185.605 35.1109C185.798 34.3556 186.047 33.6158 186.351 32.8977C186.813 31.8233 187.389 30.8013 188.069 29.8493C190.434 26.5527 193.937 24.2428 197.904 23.3622C198.677 23.1904 199.461 23.0763 200.251 23.0207C200.526 23.0207 200.746 23.0207 200.863 23.0207H201.083L201.095 22.9963Z" fill="white"/>
<path d="M185.777 41.732C185.676 41.5823 185.6 41.4177 185.55 41.2443C185.408 40.848 185.302 40.44 185.232 40.0249C185.168 39.5992 185.141 39.1688 185.153 38.7384C185.15 38.5597 185.17 38.3813 185.214 38.208C185.257 38.208 185.214 39.025 185.361 40.0371C185.508 41.0492 185.813 41.7198 185.777 41.732Z" fill="white"/>
<path d="M210.674 33.1781C210.674 33.2146 207.678 33.2451 203.986 33.2451C200.294 33.2451 197.293 33.2451 197.293 33.1781C197.293 33.111 200.288 33.1171 203.986 33.1171C207.685 33.1171 210.674 33.1476 210.674 33.1781Z" fill="white"/>
<path d="M199.255 48.3959C199.255 48.3959 199.219 48.3959 199.145 48.3959H198.821C198.675 48.3959 198.503 48.3959 198.302 48.3959C198.1 48.3959 197.868 48.3959 197.611 48.3959C197.014 48.3909 196.419 48.3542 195.826 48.2861C195.1 48.202 194.38 48.0778 193.668 47.9142C192.958 47.7531 192.258 47.5495 191.572 47.3045C191.011 47.1023 190.462 46.8703 189.927 46.6095C189.695 46.4997 189.493 46.39 189.316 46.2924C189.139 46.1949 188.986 46.1156 188.864 46.0425L188.582 45.8718L188.491 45.8047C188.491 45.8047 188.527 45.8047 188.595 45.8474L188.888 45.9937C189.01 46.0608 189.163 46.1461 189.346 46.2315C189.53 46.3168 189.732 46.4266 189.958 46.5241C190.416 46.7375 190.972 46.9692 191.602 47.1948C192.288 47.4333 192.986 47.6368 193.693 47.8045C194.401 47.9675 195.117 48.0936 195.838 48.1825C196.498 48.2617 197.104 48.3044 197.611 48.3166C197.862 48.3166 198.094 48.3166 198.296 48.3166H199.249L199.255 48.3959Z" fill="white"/>
<path d="M218.4 57.1206H218.345L218.168 57.1876L217.489 57.4315C217.196 57.5352 216.835 57.6571 216.407 57.7851C215.979 57.9132 215.496 58.0717 214.958 58.2058L214.109 58.4314L213.18 58.6448C212.568 58.7972 211.847 58.9192 211.12 59.0594C209.535 59.3266 207.937 59.5138 206.333 59.6203C204.731 59.7021 203.125 59.7021 201.523 59.6203C200.783 59.5715 200.08 59.535 199.426 59.4618L198.479 59.3642L197.604 59.2423C197.048 59.1752 196.553 59.0777 196.113 59.0045C195.673 58.9314 195.3 58.8521 194.994 58.785L194.291 58.6265L194.108 58.5838H194.047C194.047 58.5838 194.047 58.5838 194.114 58.5838L194.297 58.6143L195.007 58.7484C195.312 58.8094 195.685 58.8826 196.125 58.9436C196.565 59.0045 197.06 59.1082 197.617 59.1691L198.491 59.2789C198.79 59.3155 199.102 59.3398 199.432 59.3703C200.086 59.4374 200.789 59.474 201.523 59.5167C203.002 59.5776 204.628 59.5776 206.327 59.4801C208.027 59.3825 209.64 59.1691 211.095 58.9314C211.823 58.7972 212.513 58.6814 213.155 58.529C213.473 58.4558 213.766 58.3948 214.084 58.3217L214.934 58.1083C215.478 57.9802 215.961 57.8278 216.383 57.7059C216.805 57.5839 217.177 57.4681 217.477 57.3706L218.162 57.1511L218.339 57.0962L218.4 57.1206Z" fill="white"/>
<path d="M154.322 127.072L156.834 150.1L171.7 155.044L172.312 162.214L151.333 160.812C151.333 160.812 144.865 160.97 143.459 152.471L143.117 130.132L154.322 127.072Z" fill="#FFBE9D"/>
<path d="M185.173 162.092C185.041 162.249 184.864 162.361 184.667 162.416C184.469 162.47 184.26 162.464 184.066 162.397C183.981 162.371 183.901 162.332 183.828 162.281C183.302 161.952 183.663 160.8 183.663 160.8L181.047 159.635C181.047 159.635 176.872 160.989 175.203 162.172C173.534 163.354 170.625 161.275 170.625 161.275L171.046 155.178L177.293 151.959C177.293 151.959 176.915 152.148 177.489 151.386C178.064 150.624 179.561 151.386 179.561 151.386C179.916 151.032 180.992 151.154 180.992 151.154L185.271 152.825C185.705 152.997 186.095 153.264 186.412 153.605C186.729 153.947 186.966 154.355 187.104 154.8L188.192 158.245C188.192 158.245 188.62 160.635 188.333 161.086C188.209 161.275 188.019 161.411 187.8 161.469C187.581 161.526 187.348 161.501 187.147 161.397C187.147 161.397 186.536 162.732 186.175 162.69C185.801 162.57 185.453 162.382 185.148 162.135L185.173 162.092Z" fill="#FFBE9D"/>
<path d="M176.395 161.489C176.505 161.454 176.611 161.409 176.713 161.354L177.617 160.958C178.737 160.484 179.884 160.077 181.053 159.739H180.985L183.602 160.928L183.534 160.787C183.468 161.008 183.427 161.235 183.412 161.464C183.383 161.72 183.43 161.979 183.547 162.208C183.626 162.323 183.736 162.414 183.864 162.47C183.981 162.535 184.11 162.577 184.243 162.592C184.519 162.621 184.796 162.552 185.026 162.397C185.085 162.358 185.14 162.313 185.191 162.263L185.228 162.226H185.056L185.13 162.287L185.454 162.501C185.564 162.575 185.681 162.64 185.802 162.696C185.867 162.727 185.934 162.752 186.004 162.769C186.089 162.799 186.182 162.799 186.267 162.769C186.413 162.709 186.54 162.61 186.633 162.482C186.719 162.374 186.796 162.26 186.866 162.141C187.01 161.908 187.138 161.665 187.251 161.415L187.061 161.482C187.236 161.572 187.433 161.612 187.629 161.598C187.825 161.584 188.013 161.517 188.174 161.403C188.339 161.28 188.456 161.103 188.504 160.903C188.564 160.723 188.603 160.537 188.62 160.348C188.597 159.622 188.519 158.899 188.388 158.184C188.204 157.574 188.009 156.965 187.807 156.355C187.685 155.959 187.563 155.575 187.44 155.184C187.335 154.788 187.188 154.403 187 154.038C186.795 153.677 186.516 153.364 186.181 153.118C185.858 152.884 185.499 152.705 185.118 152.587L181.071 151.02H181.04C180.78 150.996 180.518 150.996 180.258 151.02C179.984 151.032 179.72 151.13 179.506 151.301H179.671C179.472 151.14 179.237 151.029 178.986 150.978C178.735 150.928 178.475 150.938 178.228 151.008C177.789 151.182 177.431 151.515 177.226 151.941L177.275 151.892L172.996 154.093L171.828 154.703C171.688 154.766 171.555 154.843 171.431 154.934C171.578 154.885 171.72 154.826 171.859 154.758L173.045 154.197L177.391 152.081H177.422V152.044C177.604 151.676 177.918 151.389 178.302 151.24C178.512 151.183 178.732 151.177 178.945 151.223C179.158 151.268 179.356 151.364 179.524 151.502L179.61 151.569L179.689 151.496C179.868 151.37 180.082 151.301 180.301 151.301C180.543 151.276 180.786 151.276 181.028 151.301H180.998L185.032 152.892C185.387 153.008 185.723 153.176 186.028 153.392C186.33 153.614 186.582 153.896 186.768 154.221C186.944 154.572 187.083 154.939 187.184 155.319C187.3 155.703 187.428 156.093 187.55 156.483C187.746 157.093 187.948 157.702 188.131 158.312C188.26 159.011 188.34 159.718 188.369 160.428C188.373 160.593 188.361 160.759 188.333 160.922C188.298 161.059 188.215 161.18 188.101 161.263C187.982 161.343 187.844 161.39 187.701 161.398C187.558 161.407 187.415 161.377 187.288 161.312L187.153 161.257L187.098 161.385C186.991 161.623 186.871 161.855 186.737 162.08C186.635 162.284 186.484 162.46 186.297 162.592C186.259 162.601 186.219 162.601 186.181 162.592C186.124 162.577 186.069 162.557 186.016 162.531C185.907 162.48 185.801 162.423 185.698 162.36C185.594 162.293 185.49 162.226 185.393 162.153L185.319 162.098C185.478 162.098 185.099 162.098 185.136 162.098L185.105 162.129C185.067 162.168 185.023 162.203 184.977 162.232C184.799 162.357 184.582 162.414 184.366 162.391C184.262 162.38 184.162 162.347 184.072 162.293C183.98 162.263 183.901 162.203 183.846 162.123C183.699 161.729 183.699 161.297 183.846 160.903V160.806L183.754 160.763L181.126 159.611H181.089H181.059C179.889 159.972 178.745 160.412 177.636 160.928C177.244 161.111 176.951 161.263 176.755 161.373C176.63 161.393 176.508 161.432 176.395 161.489Z" fill="#EB996E"/>
<path d="M179.897 153.093C180.292 153.422 180.733 153.691 181.206 153.892C182.343 154.448 183.547 154.858 184.788 155.111L184.665 154.977C184.665 155.209 184.702 155.459 184.733 155.715C184.912 157.141 185.364 158.52 186.065 159.775C186.274 160.154 186.511 160.517 186.774 160.861C186.964 161.105 187.08 161.227 187.092 161.214C187.104 161.202 186.738 160.641 186.249 159.678C185.623 158.421 185.21 157.07 185.026 155.678C184.995 155.428 184.977 155.184 184.959 154.959V154.861H184.843C183.622 154.617 182.431 154.243 181.291 153.746C180.423 153.337 179.922 153.032 179.897 153.093Z" fill="#EB996E"/>
<path d="M183.418 156.776C183.343 158.674 184.022 160.525 185.307 161.928C185.38 161.879 184.653 160.861 184.14 159.434C183.626 158.007 183.51 156.764 183.418 156.776Z" fill="#EB996E"/>
<path d="M170.221 159.269C170.221 159.269 170.257 159.318 170.343 159.391C170.465 159.496 170.596 159.59 170.734 159.672C171.248 160.003 171.821 160.232 172.421 160.349C173.343 160.526 174.296 160.442 175.172 160.105C176.282 159.668 177.21 158.865 177.8 157.831L177.611 157.892C178.985 158.551 180.477 158.935 182 159.019C182.409 159.062 182.822 159.037 183.222 158.946C183.448 158.896 183.646 158.763 183.779 158.574C183.839 158.478 183.879 158.371 183.896 158.258C183.913 158.146 183.906 158.032 183.877 157.922C183.818 157.704 183.675 157.517 183.479 157.404L183.002 157.142C181.743 156.465 180.557 155.922 179.592 155.477C178.626 155.032 177.758 154.727 177.22 154.52C176.931 154.396 176.63 154.302 176.321 154.24C176.597 154.389 176.883 154.52 177.177 154.63C177.733 154.867 178.528 155.239 179.506 155.666C180.484 156.093 181.627 156.697 182.868 157.386L183.339 157.648C183.402 157.684 183.458 157.733 183.502 157.792C183.546 157.851 183.578 157.918 183.595 157.989C183.615 158.062 183.619 158.137 183.609 158.212C183.598 158.286 183.573 158.358 183.534 158.422C183.44 158.549 183.299 158.634 183.143 158.66C182.774 158.739 182.394 158.76 182.018 158.721C180.536 158.63 179.084 158.26 177.739 157.629L177.617 157.568L177.55 157.69C177.004 158.672 176.143 159.441 175.105 159.873C174.273 160.212 173.363 160.315 172.476 160.172C171.892 160.076 171.328 159.885 170.808 159.605C170.416 159.391 170.233 159.251 170.221 159.269Z" fill="#EB996E"/>
<path d="M188.156 245.321C188.2 245.133 188.2 244.937 188.156 244.748C188.067 244.225 187.869 243.727 187.575 243.285C187.48 243.129 187.362 242.987 187.227 242.864C187.142 242.784 187.037 242.728 186.923 242.703C186.809 242.677 186.69 242.682 186.579 242.718C186.512 242.742 186.451 242.78 186.401 242.831C186.352 242.882 186.314 242.943 186.291 243.01C186.25 243.135 186.25 243.27 186.291 243.394C186.375 243.606 186.477 243.81 186.597 244.004C186.817 244.382 187.007 244.76 187.294 245.187C187.381 245.308 187.498 245.404 187.635 245.466C187.771 245.527 187.922 245.55 188.07 245.534C188.342 245.487 188.598 245.374 188.816 245.205C189.219 244.911 189.586 244.572 189.91 244.193C190.066 244.015 190.211 243.828 190.344 243.632C190.493 243.44 190.603 243.22 190.668 242.986C190.703 242.849 190.689 242.704 190.629 242.576C190.569 242.449 190.466 242.345 190.338 242.285C190.218 242.25 190.091 242.247 189.969 242.275C189.847 242.302 189.734 242.36 189.641 242.443C189.365 242.686 189.12 242.963 188.914 243.266C188.609 243.696 188.366 244.166 188.192 244.663C188.112 244.836 188.07 245.026 188.07 245.217C188.356 244.575 188.704 243.963 189.109 243.388C189.313 243.113 189.549 242.863 189.812 242.645C189.867 242.595 189.933 242.559 190.004 242.541C190.075 242.523 190.15 242.523 190.222 242.541C190.282 242.576 190.329 242.632 190.353 242.697C190.377 242.762 190.379 242.834 190.356 242.901C190.298 243.09 190.202 243.266 190.075 243.419C189.947 243.602 189.806 243.779 189.659 243.949C189.345 244.302 188.995 244.62 188.614 244.9C188.435 245.037 188.225 245.13 188.003 245.169C187.912 245.181 187.82 245.167 187.737 245.129C187.654 245.091 187.583 245.031 187.532 244.955C187.294 244.608 187.068 244.175 186.842 243.821C186.735 243.653 186.639 243.478 186.554 243.297C186.493 243.132 186.554 243.023 186.64 242.98C186.903 242.87 187.159 243.169 187.337 243.419C187.729 243.995 188.007 244.641 188.156 245.321Z" fill="#263238"/>
<path d="M173.235 245.833L165.826 261.85L153.87 256.338L161.535 236.517L173.235 245.833Z" fill="#FFBE9D"/>
<path d="M167.226 260.777L162.892 269.014C162.892 269.014 173.95 280.458 172.935 282.994L146.883 270.538L154.041 254.021L167.226 260.777Z" fill="#47A082"/>
<path d="M155.379 264.032C155.092 263.99 154.8 264.054 154.558 264.212C154.315 264.371 154.14 264.613 154.065 264.892C154.008 265.176 154.063 265.471 154.219 265.716C154.375 265.96 154.62 266.135 154.902 266.203C155.208 266.255 155.521 266.189 155.78 266.02C156.039 265.85 156.223 265.589 156.296 265.288C156.322 264.986 156.23 264.685 156.038 264.448C155.847 264.212 155.571 264.059 155.269 264.02" fill="#E0E0E0"/>
<g opacity="0.6">
<path d="M146.883 270.538L147.971 268.465L172.538 281.189C172.538 281.189 173.461 282.244 172.935 283.018L146.883 270.538Z" fill="white"/>
</g>
<path d="M163.381 269.081C163.314 269.209 162.653 268.959 161.828 269.081C161.003 269.203 160.416 269.562 160.324 269.459C160.233 269.355 160.777 268.709 161.773 268.593C162.77 268.477 163.466 268.977 163.381 269.081Z" fill="#263238"/>
<path d="M165.569 271.52C165.539 271.654 164.885 271.605 164.194 271.934C163.503 272.263 163.106 272.776 162.971 272.708C162.837 272.641 163.112 271.885 163.98 271.489C164.848 271.093 165.624 271.392 165.569 271.52Z" fill="#263238"/>
<path d="M165.557 275.519C165.428 275.519 165.557 274.775 166.217 274.233C166.877 273.69 167.604 273.702 167.604 273.836C167.604 273.97 167.06 274.166 166.529 274.611C165.997 275.056 165.685 275.58 165.557 275.519Z" fill="#263238"/>
<path d="M164.621 265.91C164.511 266.002 164.01 265.545 163.271 265.252C162.531 264.959 161.859 264.917 161.846 264.776C161.834 264.636 162.586 264.441 163.46 264.776C164.334 265.112 164.732 265.825 164.621 265.91Z" fill="#263238"/>
<path d="M169.671 258.643L189.201 209.868C189.201 209.868 188.761 201.551 187.226 198.924C185.692 196.296 139.162 180.974 139.162 180.974C139.162 180.974 127.31 178.127 119.412 180.974C111.514 183.822 105.585 193.668 106.679 199.143C107.773 204.618 112.822 209.069 112.822 209.069L146.626 209.679L165.27 216.44L152.708 252.345L169.671 258.643Z" fill="#263238"/>
<path d="M187.037 225.329L187.477 242.962L174.31 243.285L172.416 222.122L187.037 225.329Z" fill="#FFBE9D"/>
<path d="M188.26 241.383L188.009 250.68C188.009 250.68 203.01 256.058 203.205 258.807L174.317 259.1L173.43 241.126L188.26 241.383Z" fill="#47A082"/>
<path d="M179.072 249.522C178.795 249.609 178.56 249.796 178.412 250.046C178.264 250.295 178.214 250.591 178.272 250.875C178.349 251.155 178.531 251.394 178.78 251.544C179.029 251.693 179.326 251.742 179.61 251.68C179.907 251.591 180.158 251.392 180.313 251.125C180.469 250.858 180.517 250.542 180.448 250.241C180.338 249.958 180.122 249.729 179.846 249.602C179.57 249.475 179.256 249.459 178.968 249.558" fill="#E0E0E0"/>
<g opacity="0.6">
<path d="M174.329 259.118L174.384 256.783L202.062 257.393C202.062 257.393 203.358 257.936 203.217 258.844L174.329 259.118Z" fill="white"/>
</g>
<path d="M188.486 250.528C188.486 250.668 187.777 250.741 187.092 251.199C186.407 251.656 186.034 252.253 185.906 252.198C185.778 252.144 185.979 251.333 186.823 250.79C187.666 250.247 188.516 250.4 188.486 250.528Z" fill="#263238"/>
<path d="M191.53 251.747C191.567 251.881 190.955 252.131 190.485 252.729C190.014 253.326 189.873 253.948 189.739 253.948C189.604 253.948 189.501 253.15 190.1 252.412C190.699 251.674 191.524 251.613 191.53 251.747Z" fill="#263238"/>
<path d="M193.29 255.344C193.162 255.381 192.954 254.68 193.29 253.905C193.626 253.131 194.305 252.814 194.366 252.93C194.427 253.046 194.024 253.466 193.755 254.107C193.486 254.747 193.425 255.332 193.29 255.344Z" fill="#263238"/>
<path d="M188.199 247.138C188.144 247.266 187.49 247.077 186.695 247.138C185.9 247.199 185.277 247.455 185.203 247.339C185.13 247.223 185.723 246.729 186.664 246.65C187.606 246.571 188.266 247.022 188.199 247.138Z" fill="#263238"/>
<path d="M179.347 176.365C179.347 176.365 187.239 175.755 188.113 184.291C188.987 192.827 189.843 232.652 189.843 232.652L171.407 234.188L168.552 193.473L139.144 180.993C139.144 180.993 174.078 175.274 179.347 176.365Z" fill="#263238"/>
<path d="M146.834 164.848C146.834 164.848 151.62 178.261 150.709 179.731C149.799 181.2 137.482 187.358 137.482 187.358L106.673 199.162C106.673 199.162 103.513 194.144 103.513 186.431C103.513 178.719 114.229 164.848 114.229 164.848H146.834Z" fill="#263238"/>
<path d="M137.701 180.31C137.701 180.31 137.744 180.34 137.842 180.389L138.282 180.59L139.987 181.346L146.393 184.126L168.503 193.619L168.399 193.479C168.68 197.503 168.98 201.85 169.298 206.344C170.044 216.849 170.734 226.53 171.284 234.194V234.334H171.425L184.873 233.158L188.541 232.816L189.506 232.713C189.618 232.706 189.728 232.689 189.837 232.664H189.506L188.535 232.725L184.83 232.999L171.382 234.054L171.529 234.182C171.003 226.518 170.337 216.83 169.616 206.325C169.298 201.832 169.004 197.485 168.705 193.467V193.363L168.613 193.327L146.455 183.944L140.012 181.249L138.288 180.541L137.836 180.365L137.701 180.31Z" fill="#455A64"/>
<path d="M113.195 181.651C113.491 181.597 113.781 181.517 114.063 181.413L116.38 180.669C118.912 179.814 121.508 179.16 124.143 178.712C126.777 178.282 129.467 178.315 132.09 178.81C133.166 179.062 134.229 179.37 135.274 179.731C135.024 179.566 134.756 179.43 134.474 179.328C133.721 179.01 132.942 178.759 132.145 178.578C129.499 178 126.767 177.929 124.094 178.371C121.439 178.827 118.832 179.529 116.307 180.468C115.335 180.81 114.552 181.108 114.021 181.316C113.735 181.399 113.458 181.512 113.195 181.651Z" fill="#455A64"/>
<path d="M117.554 174.591C118.449 174.536 119.348 174.536 120.243 174.591C121.075 174.646 122.077 174.774 123.165 174.902C124.253 175.03 125.464 175.176 126.711 175.414C128.851 175.755 130.903 176.513 132.75 177.646C133.485 178.158 134.183 178.72 134.84 179.328C134.722 179.114 134.571 178.919 134.394 178.749C133.94 178.261 133.434 177.823 132.884 177.444C131.04 176.228 128.956 175.422 126.772 175.079C125.506 174.835 124.29 174.701 123.19 174.585C122.089 174.469 121.099 174.371 120.256 174.347C119.588 174.318 118.919 174.346 118.257 174.432C118.016 174.45 117.779 174.503 117.554 174.591Z" fill="#455A64"/>
<path d="M131.161 66.9988C127.615 66.3891 124.498 67.7548 121.509 69.7485C118.527 71.8009 116.245 74.7131 114.968 78.0952C113.549 81.6318 113.321 85.533 114.32 89.2098C114.833 91.0325 115.71 92.7327 116.9 94.2081C118.089 95.6834 119.565 96.9033 121.24 97.7943C125.849 100.129 131.747 99.3185 135.874 96.2091C140 93.0997 142.359 87.9539 142.555 82.7959C142.742 79.2192 141.797 75.6742 139.853 72.6628C138.871 71.1743 137.593 69.9032 136.098 68.9288C134.602 67.9543 132.922 67.2974 131.161 66.9988Z" fill="#263238"/>
<path d="M121.081 79.0218C121.6 77.6683 121.399 76.1563 121.6 74.7235C122.053 71.5653 124.602 69.0351 127.554 67.8035C130.299 66.6573 133.667 66.9073 136.955 67.9742C139.249 68.6699 141.297 70.0021 142.86 71.8153C143.856 73.0452 144.542 74.4952 144.862 76.0438C145.181 77.5925 145.123 79.1948 144.694 80.7168L128.502 78.3695C126.986 79.6193 125.445 80.8875 123.611 81.5886C123.082 81.8217 122.5 81.9141 121.924 81.8569C121.637 81.8234 121.365 81.7078 121.141 81.5239C120.918 81.3401 120.753 81.0958 120.665 80.8204C120.488 80.2107 120.855 79.6071 121.081 79.0218Z" fill="#263238"/>
<path d="M137.273 72.4311L123.135 75.4186C122.479 75.4685 121.865 75.7602 121.413 76.2371C120.961 76.7139 120.703 77.3415 120.689 77.9976L120.861 108.519C120.874 110.601 121.574 112.622 122.853 114.268L124.204 116.006C127.261 119.963 133.502 119.56 135.849 115.14C135.992 114.889 136.103 114.62 136.179 114.341C136.222 114.067 136.295 113.884 136.307 113.652L136.583 110.677C136.717 107.958 136.735 105.19 136.735 105.226C136.735 105.263 142.524 104.495 144.003 97.0565C144.743 93.3618 144.792 87.2527 144.67 82.2532C144.572 77.7537 141.803 72.1324 137.273 72.4311Z" fill="#FFBE9D"/>
<path d="M142.298 88.4905C142.29 88.7407 142.185 88.9779 142.005 89.152C141.824 89.3261 141.583 89.4234 141.332 89.4233C141.21 89.4282 141.087 89.4086 140.972 89.3657C140.857 89.3228 140.752 89.2574 140.662 89.1733C140.573 89.0893 140.501 88.9883 140.451 88.8763C140.402 88.7643 140.375 88.6435 140.373 88.521C140.379 88.2703 140.484 88.0321 140.664 87.8577C140.845 87.6833 141.087 87.5865 141.338 87.5882C141.461 87.5824 141.584 87.6014 141.7 87.644C141.815 87.6867 141.921 87.752 142.01 87.8362C142.1 87.9204 142.171 88.0218 142.221 88.1342C142.27 88.2466 142.297 88.3678 142.298 88.4905Z" fill="#263238"/>
<path d="M143.227 85.3567C143.105 85.4786 142.396 84.9116 141.363 84.875C140.33 84.8385 139.529 85.3262 139.438 85.1982C139.346 85.0701 139.517 84.9177 139.859 84.686C140.319 84.396 140.856 84.2534 141.4 84.2775C141.938 84.2959 142.457 84.4861 142.879 84.8202C143.191 85.0945 143.289 85.3567 143.227 85.3567Z" fill="#263238"/>
<path d="M132.732 87.9966C132.724 88.2467 132.619 88.484 132.438 88.6581C132.258 88.8322 132.017 88.9295 131.766 88.9294C131.644 88.9335 131.522 88.9133 131.408 88.87C131.293 88.8267 131.189 88.7611 131.1 88.6772C131.011 88.5932 130.94 88.4925 130.891 88.3809C130.842 88.2693 130.815 88.149 130.812 88.0271C130.819 87.7764 130.924 87.5382 131.104 87.3638C131.285 87.1893 131.527 87.0926 131.778 87.0942C131.901 87.0893 132.023 87.109 132.138 87.152C132.252 87.195 132.357 87.2605 132.446 87.3446C132.535 87.4287 132.606 87.5297 132.655 87.6417C132.704 87.7537 132.73 87.8744 132.732 87.9966Z" fill="#263238"/>
<path d="M133.398 85.1249C133.276 85.2469 132.567 84.6799 131.528 84.6433C130.488 84.6067 129.694 85.0945 129.608 84.9603C129.523 84.8262 129.688 84.6799 130.024 84.4543C130.485 84.1623 131.025 84.0196 131.57 84.0458C132.109 84.0641 132.628 84.2543 133.05 84.5884C133.361 84.8445 133.459 85.0701 133.398 85.1249Z" fill="#263238"/>
<path d="M136.503 92.9776C137.056 92.8305 137.625 92.7507 138.197 92.7399C138.459 92.7399 138.716 92.6789 138.765 92.5021C138.8 92.2311 138.748 91.9561 138.618 91.7156C138.398 91.0693 138.16 90.3865 137.915 89.6792C136.943 86.7771 136.247 84.3932 136.363 84.3566C136.479 84.32 137.365 86.6369 138.343 89.539C138.576 90.2523 138.802 90.9352 139.01 91.5876C139.167 91.9121 139.201 92.2822 139.107 92.6301C139.066 92.7214 139.005 92.8019 138.927 92.8654C138.85 92.9288 138.759 92.9735 138.661 92.9959C138.513 93.0309 138.361 93.0472 138.209 93.0447C137.64 93.0947 137.067 93.0722 136.503 92.9776Z" fill="#263238"/>
<path d="M136.742 105.226C133.209 105.148 129.769 104.092 126.802 102.178C126.802 102.178 129.125 107.458 136.662 107.056L136.742 105.226Z" fill="#EB996E"/>
<path d="M135.971 95.453C135.786 95.1949 135.536 94.9894 135.246 94.8568C134.957 94.7243 134.638 94.6692 134.321 94.6969C134.086 94.709 133.856 94.7694 133.646 94.8743C133.435 94.9792 133.249 95.1264 133.098 95.3066C132.955 95.4725 132.865 95.6782 132.842 95.8962C132.819 96.1142 132.864 96.334 132.97 96.526C133.127 96.7206 133.34 96.8624 133.581 96.9322C133.821 97.002 134.077 96.9964 134.315 96.9162C134.809 96.7645 135.269 96.5157 135.666 96.1846C135.786 96.1059 135.89 96.0044 135.971 95.8858C136.01 95.8292 136.031 95.7623 136.031 95.6938C136.031 95.6253 136.01 95.5584 135.971 95.5017" fill="#EB996E"/>
<path d="M133.429 93.5753C133.6 93.5753 133.557 94.6911 134.486 95.5263C135.415 96.3616 136.619 96.2824 136.619 96.4409C136.619 96.508 136.344 96.6482 135.843 96.6421C135.184 96.6253 134.552 96.377 134.058 95.9409C133.583 95.5227 133.29 94.9369 133.239 94.307C133.215 93.8375 133.355 93.5631 133.429 93.5753Z" fill="#263238"/>
<path d="M133.337 82.0643C133.227 82.3386 132.2 82.1679 130.977 82.2655C129.755 82.363 128.765 82.6557 128.612 82.3996C128.545 82.2716 128.728 82.0155 129.131 81.7594C129.673 81.447 130.278 81.2616 130.902 81.2172C131.526 81.1728 132.151 81.2707 132.732 81.5034C133.172 81.6985 133.392 81.9301 133.337 82.0643Z" fill="#263238"/>
<path d="M143.105 80.851C142.909 81.0766 142.206 80.8083 141.351 80.7656C140.495 80.7229 139.761 80.8571 139.602 80.6071C139.535 80.4852 139.657 80.2535 139.987 80.0462C140.42 79.7894 140.922 79.6743 141.424 79.717C141.928 79.7454 142.41 79.9285 142.805 80.2413C143.099 80.4791 143.19 80.7412 143.105 80.851Z" fill="#263238"/>
<path d="M118.489 76.8209C119.956 72.553 126.356 66.6756 130.886 67.0658L138.038 71.541C137.779 72.7697 137.191 73.9057 136.338 74.8287C135.485 75.7517 134.397 76.4274 133.19 76.7843C131.9 77.144 130.36 77.2233 129.571 78.3085C128.783 79.3938 129.199 81.0521 128.447 82.1983C127.414 83.7774 124.675 83.6494 123.887 85.3687C123.544 86.1187 123.697 87.0271 123.336 87.777C122.86 88.7647 120.28 89.9841 119.253 89.6061C118.226 89.2281 118.238 87.4722 117.914 86.5576C117.501 85.4934 117.471 84.3189 117.829 83.2348C118.324 81.1558 117.786 78.8877 118.489 76.8209Z" fill="#263238"/>
<path d="M122.334 90.6122C122.334 90.0574 121.759 88.7222 121.215 88.6124C119.748 88.3259 117.089 88.3441 116.936 92.0694C116.704 97.1725 121.888 96.3372 121.9 96.2092C121.912 96.0811 122.267 92.5388 122.334 90.6122Z" fill="#FFBE9D"/>
<path d="M120.409 94.2032C120.409 94.2032 120.317 94.2642 120.164 94.3252C119.95 94.4103 119.712 94.4103 119.498 94.3252C118.966 94.1057 118.55 93.2277 118.569 92.3071C118.573 91.8688 118.678 91.4372 118.874 91.045C118.93 90.8877 119.023 90.7461 119.145 90.6324C119.268 90.5188 119.416 90.4365 119.577 90.3927C119.681 90.3715 119.788 90.3867 119.882 90.4356C119.975 90.4845 120.049 90.5641 120.091 90.6609C120.152 90.8073 120.091 90.9109 120.14 90.917C120.189 90.9231 120.256 90.8377 120.225 90.6243C120.199 90.4973 120.132 90.3819 120.036 90.2951C119.901 90.1829 119.728 90.1281 119.553 90.1427C119.341 90.1755 119.141 90.2615 118.972 90.3927C118.803 90.524 118.671 90.696 118.587 90.8926C118.347 91.3239 118.217 91.8076 118.208 92.301C118.208 93.3314 118.679 94.313 119.431 94.5629C119.566 94.608 119.709 94.6226 119.851 94.6058C119.993 94.5889 120.129 94.541 120.25 94.4654C120.396 94.3252 120.427 94.2154 120.409 94.2032Z" fill="#EB996E"/>
<path d="M117.395 75.5163C117.395 73.925 115.414 72.8824 113.855 72.5166C112.263 72.2438 110.626 72.5557 109.246 73.3946C108.421 73.8457 107.596 74.4798 107.413 75.4004C107.229 76.3211 108.116 77.4063 108.99 77.0771C108.549 77.2075 108.143 77.4354 107.803 77.7439C107.463 78.0523 107.197 78.4333 107.025 78.8586C106.853 79.2838 106.779 79.7422 106.809 80.1998C106.84 80.6573 106.973 81.1022 107.199 81.5013C107.426 81.9003 107.74 82.2433 108.117 82.5046C108.495 82.7659 108.927 82.9389 109.381 83.0106C109.835 83.0823 110.3 83.0509 110.74 82.9187C111.18 82.7865 111.585 82.557 111.924 82.2472C111.478 83.7219 110.54 84.9999 109.265 85.8688C110.589 86.0576 111.94 85.8947 113.182 85.3966C114.423 84.8985 115.511 84.0828 116.335 83.0317C117.16 81.9806 117.692 80.7313 117.878 79.4097C118.064 78.0881 117.897 76.741 117.395 75.5041V75.5163Z" fill="#263238"/>
<path d="M113.843 83.6312C113.694 83.1353 113.63 82.618 113.654 82.1009C113.629 79.58 114.459 77.1246 116.007 75.1321C116.302 74.7077 116.666 74.3349 117.083 74.0286C117.181 74.0956 115.463 75.7906 114.564 78.5281C113.666 81.2656 113.959 83.6312 113.843 83.6312Z" fill="#47A082"/>
<path d="M136.552 70.0351C137.023 72.1142 140.189 74.7785 141.577 76.3942C144.23 79.4792 144.749 80.5035 144.725 87.3686C145.948 84.9847 146.932 82.6496 146.834 79.967C146.777 77.2496 145.725 74.6469 143.875 72.6507C142.944 71.6702 141.795 70.9203 140.522 70.4609C139.248 70.0015 137.885 69.8453 136.54 70.0047" fill="#263238"/>
<path d="M158.24 126.779C158.24 126.779 152.739 117.634 151.198 115.762C149.968 114.33 148.425 113.2 146.687 112.457C145.998 112.171 145.278 111.966 144.541 111.848L136.595 110.098C136.595 110.098 136.595 115.488 130.916 115.823C125.238 116.158 120.476 108.281 120.476 108.281C120.476 108.281 111.307 109.695 109.124 110.817C106.942 111.939 103.495 113.372 101.6 122.834L100.267 132.089L116.075 133.522L117.584 156.922L125.415 162.361C125.415 162.361 147.121 167.988 148.509 168.36C149.896 168.732 150.342 133.522 150.342 133.522C150.342 133.522 155.929 129.931 158.24 126.779Z" fill="#47A082"/>
<path d="M147.849 122.846C147.975 123.058 148.078 123.283 148.154 123.517C148.332 123.962 148.564 124.608 148.821 125.425C150.145 129.677 150.692 134.132 150.434 138.576C150.379 139.424 150.318 140.113 150.245 140.582C150.228 140.828 150.185 141.071 150.116 141.308C150.087 141.063 150.087 140.815 150.116 140.57C150.147 140.095 150.184 139.412 150.202 138.564C150.262 136.359 150.159 134.152 149.896 131.961C149.621 129.775 149.188 127.611 148.601 125.486C148.374 124.669 148.173 124.011 148.032 123.56C147.946 123.329 147.885 123.09 147.849 122.846Z" fill="#263238"/>
<path d="M147.176 161.172L117.45 154.721L116.075 133.522L102.859 132.303C102.859 132.303 103.348 146.789 103.855 151.099C104.583 157.294 108.256 165.732 110.402 167.433C112.548 169.134 148.509 168.36 148.509 168.36L147.176 161.172Z" fill="#FFBE9D"/>
<path d="M164.047 165.013C163.948 165.218 163.79 165.389 163.593 165.504C163.396 165.619 163.169 165.673 162.941 165.659C162.843 165.65 162.746 165.629 162.653 165.598C161.993 165.391 162.042 164.055 162.042 164.055L158.894 163.543C158.894 163.543 154.799 166.177 153.338 167.921C151.877 169.665 148.166 168.256 148.166 168.256L146.876 161.55L152.677 156.318C152.677 156.318 152.317 156.635 152.72 155.654C153.124 154.672 154.939 155.044 154.939 155.044C155.226 154.563 156.412 154.386 156.412 154.386L161.498 154.995C162.016 155.055 162.513 155.229 162.954 155.505C163.396 155.782 163.769 156.153 164.047 156.593L166.199 159.989C166.199 159.989 167.336 162.428 167.152 163.007C167.071 163.244 166.905 163.442 166.687 163.565C166.468 163.687 166.211 163.725 165.966 163.671C165.966 163.671 165.716 165.281 165.294 165.336C164.859 165.313 164.432 165.21 164.035 165.031L164.047 165.013Z" fill="#FFBE9D"/>
<path d="M153.222 160.202C153.222 160.257 153.906 160.202 154.988 160.245C156.401 160.307 157.799 160.568 159.139 161.019C159.877 161.266 160.594 161.569 161.284 161.928C161.896 162.275 162.537 162.537 162.733 163.007C162.779 163.104 162.797 163.212 162.788 163.319C162.778 163.426 162.74 163.529 162.678 163.616C162.586 163.761 162.452 163.874 162.293 163.94C162.149 163.986 161.998 164.009 161.847 164.007C161.847 164.007 162.006 164.147 162.336 164.055C162.531 164 162.703 163.882 162.825 163.72C162.912 163.61 162.97 163.479 162.991 163.34C163.012 163.201 162.997 163.059 162.947 162.928C162.82 162.634 162.607 162.385 162.336 162.214C162.061 162.031 161.773 161.848 161.449 161.672C160.751 161.29 160.021 160.969 159.267 160.714C157.898 160.254 156.463 160.019 155.019 160.019C154.414 159.991 153.808 160.053 153.222 160.202Z" fill="#EB996E"/>
<path d="M152.867 163.44C152.867 163.537 154.946 163.44 157.488 163.598C160.031 163.757 162.079 164.055 162.091 163.964C161.668 163.797 161.224 163.688 160.771 163.641C159.691 163.457 158.601 163.335 157.507 163.275C156.411 163.214 155.313 163.214 154.218 163.275C153.762 163.267 153.308 163.323 152.867 163.44Z" fill="#EB996E"/>
<path d="M164.016 164.885C164.063 164.71 164.085 164.529 164.084 164.348C164.115 163.853 164.115 163.356 164.084 162.86C164.066 162.514 164.019 162.169 163.943 161.83C163.852 161.432 163.681 161.057 163.442 160.727C162.944 159.959 162.297 159.298 161.541 158.782C160.787 158.262 159.964 157.852 159.096 157.562C158.379 157.359 157.64 157.248 156.895 157.233C156.284 157.233 155.758 157.233 155.41 157.233C155.227 157.221 155.043 157.24 154.866 157.288C155.535 157.38 156.208 157.435 156.883 157.453C157.603 157.501 158.314 157.632 159.004 157.843C159.833 158.144 160.619 158.554 161.339 159.062C162.059 159.553 162.681 160.173 163.173 160.891C163.569 161.48 163.798 162.165 163.833 162.873C163.98 164.11 163.949 164.891 164.016 164.885Z" fill="#EB996E"/>
<path d="M156.669 155.684C156.669 155.733 157.433 155.751 158.649 155.892C159.866 156.032 161.706 156.154 162.757 157.763C163.793 158.966 164.657 160.306 165.325 161.745C165.542 162.361 165.704 162.996 165.807 163.641C165.85 163.465 165.861 163.284 165.838 163.104C165.807 162.613 165.706 162.128 165.538 161.665C164.923 160.17 164.068 158.785 163.008 157.562C162.724 157.19 162.393 156.856 162.024 156.568C161.657 156.303 161.242 156.113 160.801 156.008C160.095 155.822 159.372 155.707 158.643 155.666C157.987 155.586 157.323 155.592 156.669 155.684Z" fill="#EB996E"/>
<path d="M154.462 166.842C154.573 166.777 154.676 166.699 154.768 166.61C154.988 166.439 155.269 166.208 155.618 165.927C156.687 165.1 157.804 164.335 158.961 163.635H158.888L162.036 164.171L161.926 164.037C161.919 164.295 161.94 164.552 161.987 164.805C162.029 165.086 162.152 165.349 162.342 165.561C162.461 165.663 162.608 165.729 162.763 165.75C162.909 165.781 163.058 165.781 163.204 165.75C163.508 165.705 163.786 165.551 163.986 165.318C164.04 165.262 164.087 165.201 164.127 165.135L164.157 165.086V165.055L163.974 165.122L164.072 165.159L164.475 165.305C164.616 165.348 164.756 165.385 164.909 165.415C164.986 165.421 165.064 165.421 165.141 165.415C165.242 165.423 165.344 165.404 165.435 165.36C165.574 165.251 165.68 165.105 165.74 164.94C165.804 164.801 165.857 164.659 165.899 164.513C165.985 164.221 166.053 163.923 166.101 163.623L165.918 163.751C166.131 163.794 166.353 163.78 166.559 163.709C166.766 163.638 166.949 163.514 167.091 163.348C167.233 163.177 167.308 162.961 167.305 162.739C167.295 162.531 167.258 162.327 167.195 162.129C166.961 161.355 166.671 160.599 166.327 159.867C165.967 159.288 165.575 158.678 165.184 158.038L164.457 156.892C164.232 156.492 163.963 156.117 163.656 155.776C163.333 155.449 162.946 155.192 162.519 155.02C162.1 154.867 161.662 154.777 161.217 154.752L156.425 154.215H156.388C156.101 154.263 155.818 154.337 155.544 154.435C155.253 154.523 154.998 154.703 154.817 154.947L154.994 154.892C154.734 154.773 154.449 154.72 154.164 154.736C153.878 154.752 153.601 154.837 153.356 154.983C152.932 155.294 152.644 155.754 152.549 156.27L152.592 156.203L148.594 159.788C148.142 160.196 147.787 160.525 147.518 160.775C147.386 160.883 147.265 161.003 147.158 161.135C147.302 161.045 147.437 160.941 147.561 160.824L148.68 159.885L152.751 156.379V156.337C152.84 155.89 153.092 155.492 153.46 155.221C153.669 155.102 153.904 155.035 154.144 155.026C154.384 155.016 154.624 155.064 154.841 155.166L154.951 155.209L155.019 155.111C155.178 154.923 155.391 154.786 155.63 154.721C155.884 154.633 156.146 154.568 156.412 154.526H156.376L161.162 155.087C161.58 155.111 161.992 155.197 162.384 155.343C162.773 155.496 163.125 155.729 163.418 156.026C163.705 156.352 163.957 156.707 164.169 157.087L164.897 158.233L166.046 160.062C166.38 160.778 166.666 161.515 166.902 162.269C166.955 162.444 166.99 162.624 167.006 162.806C167.013 162.964 166.958 163.12 166.853 163.238C166.749 163.36 166.614 163.451 166.462 163.501C166.31 163.552 166.147 163.56 165.991 163.525H165.832V163.677C165.785 163.965 165.722 164.25 165.643 164.531C165.592 164.781 165.479 165.014 165.312 165.208C165.272 165.214 165.231 165.214 165.19 165.208C165.125 165.214 165.06 165.214 164.995 165.208C164.86 165.183 164.728 165.151 164.597 165.11C164.469 165.074 164.341 165.025 164.212 164.976L164.121 164.94L163.937 165.007V165.043C163.908 165.098 163.873 165.149 163.833 165.196C163.676 165.377 163.459 165.498 163.222 165.537C163.107 165.558 162.989 165.558 162.874 165.537C162.767 165.527 162.667 165.484 162.586 165.415C162.319 165.033 162.197 164.568 162.244 164.104V163.988H162.14L158.986 163.495H158.943H158.912C157.756 164.213 156.651 165.012 155.605 165.885C155.245 166.189 154.994 166.439 154.786 166.61C154.671 166.676 154.562 166.754 154.462 166.842Z" fill="#EB996E"/>
<path d="M196.603 145.533L157.452 145.85C156.18 145.85 154.97 146.46 154.78 147.679L150.501 176.146H130.329C130.018 176.146 129.72 176.269 129.5 176.488C129.279 176.708 129.156 177.006 129.156 177.316C129.156 177.627 129.279 177.924 129.5 178.144C129.72 178.363 130.018 178.487 130.329 178.487H194.733L199.134 148.447C199.185 148.086 199.157 147.717 199.053 147.367C198.949 147.017 198.772 146.693 198.532 146.417C198.292 146.141 197.996 145.919 197.664 145.767C197.331 145.614 196.97 145.535 196.603 145.533Z" fill="#E0E0E0"/>
<path d="M196.604 145.533C196.809 145.519 197.015 145.538 197.215 145.588C197.817 145.73 198.349 146.082 198.712 146.582C198.979 146.938 199.146 147.359 199.195 147.801C199.209 148.341 199.162 148.881 199.055 149.411L198.486 153.374C197.624 159.336 196.383 167.939 194.855 178.511V178.615H194.733L132.243 178.651H130.55C130.242 178.683 129.933 178.626 129.657 178.487C129.373 178.334 129.156 178.082 129.046 177.779C128.936 177.481 128.938 177.153 129.05 176.856C129.162 176.558 129.378 176.31 129.657 176.158C129.928 176.019 130.234 175.962 130.537 175.993H150.471L150.318 176.121L154.597 147.886C154.636 147.316 154.895 146.783 155.318 146.399C155.746 146.045 156.265 145.816 156.816 145.74C157.34 145.692 157.867 145.674 158.393 145.685H159.933L165.826 145.649L176.303 145.582L191.218 145.509H195.21H196.237H196.585C196.585 145.509 196.469 145.509 196.237 145.509H195.21L191.218 145.57L176.303 145.734L165.826 145.838L159.933 145.893H158.399C157.885 145.883 157.371 145.901 156.859 145.948C156.353 146.017 155.878 146.228 155.489 146.557C155.119 146.906 154.899 147.385 154.878 147.892C153.601 156.428 152.182 165.933 150.654 176.127V176.261H130.55C130.3 176.23 130.047 176.273 129.822 176.383C129.615 176.501 129.455 176.687 129.37 176.91C129.285 177.132 129.281 177.377 129.358 177.603C129.443 177.829 129.605 178.019 129.816 178.139C130.044 178.255 130.301 178.302 130.556 178.273H132.237L194.727 178.31L194.605 178.414L198.34 153.282C198.566 151.801 198.761 150.478 198.951 149.325C199.059 148.806 199.113 148.277 199.11 147.746C199.069 147.307 198.913 146.886 198.657 146.527C198.307 146.036 197.794 145.684 197.209 145.533C197.007 145.517 196.805 145.517 196.604 145.533Z" fill="#263238"/>
<path d="M172.917 161.665C172.917 162.148 173.06 162.619 173.329 163.02C173.598 163.421 173.98 163.734 174.426 163.918C174.873 164.103 175.365 164.151 175.839 164.057C176.313 163.963 176.749 163.731 177.091 163.39C177.433 163.049 177.666 162.614 177.76 162.141C177.855 161.668 177.806 161.178 177.621 160.732C177.436 160.286 177.123 159.906 176.721 159.638C176.318 159.37 175.846 159.227 175.362 159.227C174.714 159.227 174.092 159.484 173.633 159.941C173.175 160.398 172.917 161.019 172.917 161.665Z" fill="white"/>
<path d="M152.084 178.255C152.139 178.255 153.386 171.018 154.866 162.068C156.345 153.118 157.506 145.856 157.451 145.85C157.396 145.844 156.149 153.087 154.67 162.037C153.191 170.988 152.029 178.249 152.084 178.255Z" fill="#263238"/>
<path d="M229.059 101.133H229.057L190.155 101.133L190.153 101.133C188.528 101.137 186.969 101.783 185.819 102.93C184.669 104.077 184.02 105.632 184.015 107.255V107.256L184.015 124.279L184.015 124.281C184.021 125.782 184.621 127.22 185.685 128.28C186.749 129.341 188.189 129.94 189.693 129.945H189.695H190.061L188.334 137.226L188.039 138.468L189.099 137.757L200.739 129.945L229.393 129.945L229.395 129.945C231.019 129.941 232.575 129.295 233.724 128.149C234.873 127.003 235.521 125.45 235.526 123.828V123.827L235.526 107.586L235.526 107.585C235.521 105.875 234.838 104.237 233.626 103.028C232.414 101.819 230.772 101.138 229.059 101.133Z" fill="#F5F5F5" stroke="#E0E0E0"/>
<path opacity="0.6" d="M230.101 114.911H189.537C189.271 114.911 189.015 114.805 188.827 114.617C188.639 114.429 188.533 114.174 188.532 113.909C188.533 113.643 188.639 113.389 188.828 113.202C189.016 113.014 189.271 112.908 189.537 112.907H230.101C230.367 112.908 230.622 113.014 230.81 113.202C230.998 113.389 231.105 113.643 231.106 113.909C231.105 114.174 230.999 114.429 230.81 114.617C230.622 114.805 230.367 114.911 230.101 114.911Z" fill="#47A082"/>
<path opacity="0.6" d="M230.101 119.389H189.537C189.271 119.388 189.016 119.283 188.828 119.095C188.639 118.908 188.533 118.653 188.532 118.388C188.533 118.122 188.639 117.868 188.827 117.68C189.015 117.492 189.271 117.386 189.537 117.385H230.101C230.367 117.386 230.622 117.492 230.81 117.68C230.999 117.868 231.105 118.122 231.106 118.388C231.105 118.653 230.998 118.908 230.81 119.095C230.622 119.283 230.367 119.388 230.101 119.389Z" fill="#47A082"/>
<path opacity="0.6" d="M230.101 123.87H189.537C189.271 123.869 189.015 123.763 188.827 123.576C188.639 123.388 188.533 123.133 188.532 122.867C188.533 122.602 188.639 122.348 188.828 122.16C189.016 121.973 189.271 121.867 189.537 121.866H230.101C230.367 121.867 230.622 121.973 230.81 122.16C230.998 122.348 231.105 122.602 231.106 122.867C231.105 123.133 230.999 123.388 230.81 123.576C230.622 123.763 230.367 123.869 230.101 123.87Z" fill="#47A082"/>
<path d="M208.002 107.939H190.78C190.464 107.938 190.16 107.812 189.936 107.589C189.712 107.365 189.586 107.062 189.584 106.746C189.585 106.43 189.712 106.127 189.936 105.904C190.16 105.68 190.464 105.554 190.78 105.553H208.002C208.319 105.554 208.623 105.68 208.847 105.904C209.071 106.127 209.197 106.43 209.198 106.746C209.197 107.062 209.07 107.365 208.846 107.589C208.622 107.812 208.319 107.938 208.002 107.939Z" fill="#47A082"/>
<path d="M222.798 105.552H212.438C211.915 105.552 211.492 105.974 211.492 106.495V106.995C211.492 107.516 211.915 107.938 212.438 107.938H222.798C223.32 107.938 223.744 107.516 223.744 106.995V106.495C223.744 105.974 223.32 105.552 222.798 105.552Z" fill="#47A082"/>
</g>
<defs>
<clipPath id="clip0_10_662">
<rect width="273" height="283" fill="white"/>
</clipPath>
</defs>
</svg>
