<svg width="271" height="253" viewBox="0 0 271 253" fill="none" xmlns="http://www.w3.org/2000/svg">
<g clip-path="url(#clip0_10_829)">
<line x1="4.93896" y1="213.182" x2="266.715" y2="213.182" stroke="#1C1C1C" stroke-width="0.750603"/>
<path d="M232.735 163.288H180.861C179.858 163.286 178.898 162.888 178.19 162.18C177.482 161.472 177.084 160.513 177.084 159.513V128.081C177.084 126.876 177.563 125.72 178.417 124.867C179.27 124.014 180.428 123.534 181.636 123.533H218.849C219.028 123.533 219.2 123.603 219.326 123.73C219.453 123.856 219.524 124.027 219.524 124.205C219.524 124.384 219.453 124.555 219.326 124.681C219.2 124.807 219.028 124.878 218.849 124.878H181.636C180.786 124.88 179.971 125.218 179.371 125.819C178.77 126.419 178.433 127.233 178.433 128.081V159.479C178.433 160.122 178.688 160.739 179.143 161.195C179.599 161.65 180.216 161.907 180.861 161.908H232.735C233.381 161.908 234 161.653 234.457 161.197C234.913 160.741 235.17 160.124 235.17 159.479V128.902C235.17 127.832 234.744 126.805 233.985 126.047C233.226 125.29 232.197 124.865 231.123 124.865H223.948C223.769 124.865 223.597 124.794 223.471 124.668C223.345 124.542 223.274 124.37 223.274 124.192C223.274 124.013 223.345 123.842 223.471 123.716C223.597 123.59 223.769 123.519 223.948 123.519H231.137C232.568 123.519 233.94 124.086 234.952 125.096C235.964 126.105 236.532 127.475 236.532 128.902V159.479C236.536 159.979 236.44 160.474 236.251 160.936C236.062 161.399 235.782 161.819 235.429 162.173C235.076 162.527 234.656 162.808 234.194 162.999C233.732 163.191 233.236 163.289 232.735 163.288Z" fill="#FFA000"/>
<path d="M179.558 162.332C179.463 162.332 179.368 162.312 179.281 162.272C179.193 162.233 179.116 162.175 179.053 162.104C178.934 161.97 178.873 161.796 178.883 161.618C178.893 161.44 178.973 161.274 179.106 161.155L200.296 142.347C200.362 142.287 200.44 142.241 200.524 142.212C200.608 142.182 200.697 142.169 200.786 142.174C200.875 142.179 200.962 142.202 201.043 142.241C201.123 142.28 201.195 142.334 201.254 142.401C201.372 142.535 201.431 142.71 201.42 142.888C201.409 143.066 201.327 143.232 201.193 143.35L180.003 162.191C179.877 162.29 179.719 162.34 179.558 162.332Z" fill="#FFA000"/>
<path d="M233.841 162.851C233.675 162.852 233.514 162.792 233.389 162.682L212.233 143.969C212.108 143.849 212.034 143.685 212.026 143.512C212.019 143.338 212.079 143.169 212.194 143.039C212.309 142.909 212.47 142.828 212.643 142.813C212.816 142.798 212.988 142.851 213.123 142.959L234.286 161.673C234.353 161.732 234.407 161.803 234.446 161.884C234.485 161.964 234.508 162.051 234.513 162.14C234.518 162.228 234.505 162.317 234.475 162.401C234.446 162.485 234.4 162.562 234.34 162.628C234.277 162.698 234.2 162.754 234.114 162.792C234.028 162.83 233.935 162.85 233.841 162.851Z" fill="#FFA000"/>
<path d="M206.804 147.535C206.075 147.535 205.365 147.299 204.781 146.862L177.954 127.186C177.822 127.077 177.737 126.921 177.716 126.751C177.695 126.581 177.74 126.41 177.841 126.272C177.943 126.134 178.093 126.039 178.262 126.008C178.431 125.977 178.605 126.011 178.749 126.103L205.604 145.792C205.951 146.047 206.37 146.184 206.801 146.184C207.232 146.184 207.651 146.047 207.998 145.792L234.259 126.695C234.403 126.603 234.578 126.569 234.747 126.6C234.915 126.631 235.066 126.726 235.167 126.864C235.268 127.002 235.313 127.173 235.292 127.343C235.272 127.513 235.187 127.669 235.055 127.779L208.794 146.882C208.217 147.305 207.52 147.534 206.804 147.535Z" fill="#FFA000"/>
<path d="M233.194 119.34C233.466 119.538 233.794 119.645 234.131 119.645C234.468 119.645 234.796 119.538 235.069 119.34L257.384 103.11C256.943 102.571 256.388 102.137 255.758 101.837C255.128 101.538 254.44 101.382 253.743 101.38H213.704C213.118 101.379 212.539 101.511 212.012 101.766C211.485 102.022 211.023 102.394 210.662 102.854C210.662 102.854 210.716 102.854 210.736 102.888L233.194 119.34Z" fill="#47A082"/>
<path d="M235.864 120.43C235.362 120.8 234.755 120.999 234.131 120.999C233.507 120.999 232.9 120.8 232.398 120.43L228.985 117.927L211.768 133.209H211.728C212.107 133.372 212.515 133.454 212.928 133.451H255.327C255.555 133.45 255.781 133.423 256.002 133.37L238.906 118.203L235.864 120.43Z" fill="#47A082"/>
<path d="M227.873 117.106L210.021 104.018C209.891 104.411 209.825 104.822 209.826 105.236V130.376C209.827 131.171 210.136 131.936 210.689 132.509C210.72 132.391 210.783 132.284 210.871 132.199L227.873 117.106Z" fill="#47A082"/>
<path d="M257.202 132.637C257.237 132.673 257.267 132.714 257.29 132.758C257.645 132.47 257.932 132.107 258.129 131.695C258.326 131.283 258.429 130.833 258.429 130.376V106.091C258.428 105.477 258.309 104.87 258.079 104.301L239.998 117.456L257.202 132.637Z" fill="#47A082"/>
<g opacity="0.69">
<path d="M258.504 195.917H223.3C222.297 195.915 221.336 195.517 220.627 194.81C219.918 194.102 219.518 193.143 219.517 192.142V171.753C219.518 170.548 219.999 169.393 220.854 168.541C221.709 167.689 222.868 167.211 224.076 167.211H256.912C258.343 167.211 259.715 167.778 260.727 168.788C261.739 169.797 262.307 171.166 262.307 172.594V192.162C262.305 192.658 262.204 193.149 262.011 193.605C261.819 194.062 261.538 194.477 261.185 194.826C260.832 195.174 260.413 195.45 259.953 195.638C259.493 195.825 259 195.92 258.504 195.917ZM224.069 168.557C223.219 168.557 222.403 168.893 221.801 169.493C221.199 170.092 220.86 170.905 220.859 171.753V192.142C220.859 192.461 220.922 192.777 221.044 193.072C221.166 193.367 221.346 193.634 221.572 193.86C221.798 194.085 222.066 194.264 222.362 194.386C222.657 194.509 222.974 194.571 223.293 194.571H258.497C258.817 194.571 259.133 194.509 259.428 194.386C259.724 194.264 259.992 194.085 260.218 193.86C260.444 193.634 260.624 193.367 260.746 193.072C260.868 192.777 260.931 192.461 260.931 192.142V172.574C260.931 171.503 260.505 170.476 259.746 169.719C258.987 168.962 257.958 168.537 256.885 168.537L224.069 168.557Z" fill="white"/>
<path d="M236.13 180.646L221.024 194.065L221.921 195.07L237.026 181.651L236.13 180.646Z" fill="white"/>
<path d="M245.539 181.074L244.644 182.081L259.735 195.426L260.629 194.419L245.539 181.074Z" fill="white"/>
<path d="M240.929 184.707C240.376 184.707 239.837 184.53 239.391 184.202L220.252 170.172L221.054 169.088L240.187 183.118C240.401 183.275 240.66 183.36 240.926 183.36C241.191 183.36 241.45 183.275 241.664 183.118L261.471 168.671L262.26 169.761L242.44 184.182C242.004 184.51 241.475 184.694 240.929 184.707Z" fill="white"/>
</g>
<path d="M258.173 109.953C262.851 109.953 266.644 106.169 266.644 101.502C266.644 96.8338 262.851 93.0498 258.173 93.0498C253.495 93.0498 249.703 96.8338 249.703 101.502C249.703 106.169 253.495 109.953 258.173 109.953Z" fill="#FFA000"/>
<path d="M256.299 104.745H255.368V99.1463L254.431 99.725V98.7695L255.368 98.137H256.299V104.745Z" fill="white"/>
<path d="M258.281 104.341C258.113 104.155 257.984 103.936 257.902 103.7C257.82 103.463 257.786 103.212 257.802 102.962V99.9605C257.82 99.5887 257.944 99.2296 258.157 98.9245C258.371 98.6195 258.667 98.3808 259.011 98.2361C259.355 98.0913 259.732 98.0462 260.101 98.106C260.469 98.1659 260.813 98.3282 261.093 98.5743C261.262 98.7614 261.393 98.9804 261.476 99.2185C261.559 99.4565 261.594 99.7088 261.578 99.9605V102.962C261.606 103.216 261.577 103.473 261.492 103.713C261.406 103.954 261.268 104.173 261.087 104.353C260.905 104.534 260.686 104.671 260.444 104.755C260.202 104.839 259.944 104.868 259.69 104.839C259.433 104.857 259.176 104.823 258.933 104.737C258.691 104.651 258.469 104.517 258.281 104.341ZM260.412 103.668C260.58 103.459 260.664 103.195 260.648 102.928V99.9269C260.667 99.6602 260.585 99.3961 260.418 99.1867C260.212 99.0206 259.955 98.93 259.69 98.93C259.425 98.93 259.168 99.0206 258.962 99.1867C258.793 99.3955 258.709 99.6594 258.726 99.9269V102.928C258.709 103.195 258.793 103.459 258.962 103.668C259.167 103.834 259.423 103.924 259.687 103.924C259.951 103.924 260.206 103.834 260.412 103.668Z" fill="white"/>
<path d="M70.1576 99.1464C69.9238 99.1463 69.6925 99.0985 69.478 99.006C69.2634 98.9134 69.0701 98.778 68.91 98.608L63.1978 92.6999C63.0092 92.5043 62.783 92.3486 62.5327 92.2423C62.2824 92.1359 62.0132 92.081 61.7411 92.0808L5.64471 92.0135C4.14873 92.01 2.71505 91.4154 1.65723 90.36C0.599415 89.3045 0.00356186 87.874 0 86.3813V65.1578C0.00178477 63.6628 0.597776 62.2295 1.65724 61.1724C2.71671 60.1153 4.15314 59.5206 5.65145 59.5188H65.4705C67.1752 59.5224 68.8088 60.2001 70.0136 61.4034C71.2183 62.6067 71.8958 64.2375 71.8975 65.9383V97.4103C71.8984 97.7559 71.7954 98.0939 71.6018 98.3805C71.4083 98.6672 71.1331 98.8894 70.8118 99.0185C70.6031 99.0996 70.3815 99.1429 70.1576 99.1464ZM5.65145 60.8646C4.51032 60.8646 3.41592 61.3169 2.60902 62.1221C1.80211 62.9272 1.3488 64.0192 1.3488 65.1578V86.3813C1.35058 87.5187 1.80469 88.609 2.6114 89.4127C3.41811 90.2163 4.51149 90.6677 5.65145 90.6677L61.7411 90.735C62.1944 90.735 62.643 90.8262 63.0601 91.0031C63.4773 91.18 63.8544 91.439 64.1689 91.7646L69.8811 97.6794C69.935 97.7359 70.0046 97.775 70.081 97.7916C70.1574 97.8082 70.237 97.8016 70.3096 97.7726C70.3822 97.7437 70.4444 97.6937 70.4882 97.6291C70.5321 97.5645 70.5555 97.4883 70.5555 97.4103V65.9383C70.5555 64.5939 70.0207 63.3044 69.0685 62.3531C68.1164 61.4017 66.8247 60.8664 65.4773 60.8646H5.65145Z" fill="#47A082"/>
<path d="M56.1441 72.0685H41.7862C41.6074 72.0685 41.4358 71.9976 41.3093 71.8714C41.1829 71.7452 41.1118 71.574 41.1118 71.3956C41.1118 71.2171 41.1829 71.0459 41.3093 70.9197C41.4358 70.7936 41.6074 70.7227 41.7862 70.7227H56.1441C56.323 70.7227 56.4945 70.7936 56.621 70.9197C56.7475 71.0459 56.8185 71.2171 56.8185 71.3956C56.8185 71.574 56.7475 71.7452 56.621 71.8714C56.4945 71.9976 56.323 72.0685 56.1441 72.0685Z" fill="#FFA000"/>
<path d="M33.0389 72.0685H11.0333C10.8544 72.0685 10.6829 71.9976 10.5564 71.8714C10.4299 71.7452 10.3589 71.574 10.3589 71.3956C10.3589 71.2171 10.4299 71.0459 10.5564 70.9197C10.6829 70.7936 10.8544 70.7227 11.0333 70.7227H33.0389C33.2177 70.7227 33.3893 70.7936 33.5158 70.9197C33.6422 71.0459 33.7133 71.2171 33.7133 71.3956C33.7133 71.574 33.6422 71.7452 33.5158 71.8714C33.3893 71.9976 33.2177 72.0685 33.0389 72.0685Z" fill="#FFA000"/>
<path d="M56.1439 77.1556H19.9625C19.7836 77.1556 19.6121 77.0847 19.4856 76.9585C19.3591 76.8323 19.2881 76.6612 19.2881 76.4827C19.2881 76.3043 19.3591 76.1331 19.4856 76.0069C19.6121 75.8807 19.7836 75.8098 19.9625 75.8098H56.1439C56.3228 75.8098 56.4943 75.8807 56.6208 76.0069C56.7473 76.1331 56.8183 76.3043 56.8183 76.4827C56.8183 76.6612 56.7473 76.8323 56.6208 76.9585C56.4943 77.0847 56.3228 77.1556 56.1439 77.1556Z" fill="#FFA000"/>
<path d="M56.144 82.2899H32.1759C31.997 82.2899 31.8255 82.219 31.699 82.0928C31.5725 81.9666 31.5015 81.7955 31.5015 81.617C31.5015 81.4385 31.5725 81.2674 31.699 81.1412C31.8255 81.015 31.997 80.9441 32.1759 80.9441H56.144C56.3228 80.9441 56.4944 81.015 56.6208 81.1412C56.7473 81.2674 56.8184 81.4385 56.8184 81.617C56.8184 81.7955 56.7473 81.9666 56.6208 82.0928C56.4944 82.219 56.3228 82.2899 56.144 82.2899Z" fill="#FFA000"/>
<path d="M62.4496 62.9507H42.9595C42.654 62.9467 42.3508 63.0042 42.0681 63.1199C41.7853 63.2355 41.5289 63.4068 41.314 63.6236L36.4651 68.6435C36.3403 68.7741 36.179 68.8644 36.0023 68.9026C35.8255 68.9409 35.6412 68.9252 35.4734 68.8578C35.3056 68.7904 35.1619 68.6743 35.061 68.5245C34.9601 68.3747 34.9065 68.1982 34.9072 68.0177V41.3234C34.9072 40.0295 35.4224 38.7886 36.3393 37.8737C37.2562 36.9588 38.4999 36.4448 39.7966 36.4448H63.2252C64.2805 36.4448 65.2925 36.8631 66.0387 37.6077C66.7849 38.3522 67.2041 39.362 67.2041 40.415V58.2067C67.2041 59.4649 66.7032 60.6715 65.8116 61.5612C64.9199 62.4509 63.7106 62.9507 62.4496 62.9507Z" fill="#FFA000"/>
<path d="M45.1917 50.2865C45.1917 50.6166 45.0936 50.9392 44.9098 51.2136C44.726 51.4881 44.4648 51.702 44.1592 51.8283C43.8536 51.9546 43.5173 51.9876 43.1929 51.9232C42.8685 51.8588 42.5704 51.6999 42.3365 51.4665C42.1026 51.2331 41.9434 50.9358 41.8788 50.6121C41.8143 50.2883 41.8474 49.9528 41.974 49.6479C42.1006 49.3429 42.3149 49.0823 42.59 48.8989C42.865 48.7156 43.1884 48.6177 43.5192 48.6177C43.9628 48.6177 44.3882 48.7935 44.7018 49.1065C45.0155 49.4194 45.1917 49.8439 45.1917 50.2865Z" fill="white"/>
<path d="M53.0081 50.2865C53.0081 50.6168 52.9098 50.9398 52.7258 51.2143C52.5417 51.4889 52.2801 51.7028 51.9741 51.8289C51.6681 51.955 51.3314 51.9877 51.0068 51.9227C50.6822 51.8578 50.3842 51.6982 50.1506 51.4641C49.9169 51.2301 49.7582 50.9321 49.6944 50.6079C49.6306 50.2838 49.6647 49.948 49.7923 49.6432C49.92 49.3384 50.1354 49.0782 50.4113 48.8957C50.6872 48.7131 51.0113 48.6164 51.3423 48.6177C51.7847 48.6195 52.2084 48.7961 52.5206 49.1088C52.8328 49.4216 53.0081 49.8451 53.0081 50.2865Z" fill="white"/>
<path d="M59.3469 51.9418C60.2669 51.9418 61.0127 51.1977 61.0127 50.2798C61.0127 49.3618 60.2669 48.6177 59.3469 48.6177C58.4269 48.6177 57.6812 49.3618 57.6812 50.2798C57.6812 51.1977 58.4269 51.9418 59.3469 51.9418Z" fill="white"/>
<path d="M62.7133 129.994C68.0304 119.409 63.7407 106.527 53.132 101.222C42.5233 95.9165 29.6129 100.197 24.2959 110.782C18.9788 121.367 23.2685 134.249 33.8772 139.554C44.4859 144.86 57.3962 140.579 62.7133 129.994Z" fill="#47A082"/>
<path d="M43.4991 132.152C42.3548 132.153 41.2502 131.734 40.3958 130.975C39.5413 130.215 38.9968 129.168 38.866 128.034L38.7783 127.281H48.2199L48.1322 128.034C48 129.168 47.455 130.214 46.6009 130.973C45.7468 131.732 44.643 132.152 43.4991 132.152ZM40.3766 128.626C40.6107 129.265 41.0358 129.816 41.5943 130.206C42.1527 130.595 42.8177 130.804 43.4991 130.804C44.1805 130.804 44.8455 130.595 45.404 130.206C45.9624 129.816 46.3875 129.265 46.6216 128.626H40.3766Z" fill="white"/>
<path d="M51.801 124.178H35.2378V116.568C35.2414 114.461 36.0816 112.442 37.5745 110.952C39.0674 109.463 41.0912 108.624 43.2024 108.621H43.8768C45.9893 108.623 48.0148 109.46 49.5091 110.95C51.0034 112.44 51.8446 114.46 51.8482 116.568L51.801 124.178ZM36.5529 122.833H50.4522V116.568C50.4504 114.817 49.7519 113.137 48.5101 111.9C47.2683 110.662 45.5849 109.967 43.8296 109.967H43.1552C41.4093 109.981 39.7397 110.682 38.5096 111.919C37.2794 113.155 36.5883 114.826 36.5866 116.568L36.5529 122.833Z" fill="white"/>
<path d="M51.1263 128.626H35.8714C35.1279 128.625 34.4153 128.329 33.8896 127.804C33.3638 127.28 33.0677 126.569 33.0659 125.827V125.605C33.0659 124.863 33.3615 124.151 33.8876 123.626C34.4138 123.101 35.1274 122.806 35.8714 122.806H51.1263C51.871 122.806 52.5853 123.1 53.1125 123.625C53.6397 124.15 53.9367 124.862 53.9385 125.605V125.8C53.9412 126.17 53.8704 126.537 53.7303 126.88C53.5902 127.223 53.3834 127.535 53.122 127.797C52.8606 128.06 52.5497 128.269 52.2072 128.411C51.8647 128.553 51.4973 128.626 51.1263 128.626ZM35.9119 124.178C35.7197 124.174 35.5285 124.207 35.3492 124.277C35.1699 124.346 35.0061 124.45 34.8671 124.582C34.728 124.715 34.6165 124.873 34.5389 125.049C34.4613 125.224 34.4191 125.413 34.4147 125.605V125.8C34.4147 126.186 34.5682 126.555 34.8414 126.828C35.1146 127.1 35.4851 127.254 35.8714 127.254H51.1263C51.5133 127.254 51.8845 127.101 52.1587 126.828C52.433 126.556 52.588 126.186 52.5897 125.8V125.605C52.588 125.219 52.433 124.849 52.1587 124.577C51.8845 124.304 51.5133 124.151 51.1263 124.151L35.9119 124.178Z" fill="white"/>
<path d="M84.9894 22.9835C90.2594 17.7252 90.2594 9.19965 84.9894 3.94128C79.7194 -1.31708 71.175 -1.31708 65.905 3.94129C60.635 9.19966 60.635 17.7252 65.905 22.9835C71.175 28.2419 79.7194 28.2419 84.9894 22.9835Z" fill="#47A082"/>
<path d="M74.6963 8.1355H76.1935V16.0624H74.6963V8.1355ZM74.6963 17.3005H76.1935V18.7944H74.6963V17.3005Z" fill="white"/>
<path d="M257.506 43.5103H186.761C184.956 43.512 183.225 44.2289 181.949 45.5032C180.673 46.7776 179.957 48.5053 179.957 50.3066V87.5184C179.957 87.7685 180.032 88.0128 180.173 88.22C180.313 88.4272 180.512 88.588 180.744 88.6819C180.977 88.7757 181.232 88.7984 181.477 88.747C181.722 88.6956 181.947 88.5724 182.121 88.3932L188.865 81.4017C189.163 81.0924 189.52 80.8464 189.915 80.6787C190.31 80.511 190.736 80.425 191.165 80.426L257.499 80.3453C258.273 80.347 259.04 80.1961 259.756 79.9011C260.471 79.606 261.121 79.1728 261.668 78.6262C262.215 78.0797 262.649 77.4306 262.944 76.7163C263.239 76.002 263.389 75.2365 263.386 74.464V49.378C263.386 48.6074 263.234 47.8444 262.939 47.1325C262.643 46.4206 262.21 45.7738 261.664 45.2289C261.118 44.684 260.469 44.2518 259.756 43.9569C259.043 43.662 258.278 43.5103 257.506 43.5103Z" fill="#FFA000"/>
<path d="M214.769 57.4259H197.767C197.588 57.4259 197.417 57.355 197.29 57.2288C197.164 57.1026 197.093 56.9315 197.093 56.753C197.093 56.5745 197.164 56.4034 197.29 56.2772C197.417 56.151 197.588 56.0801 197.767 56.0801H214.769C214.948 56.0801 215.119 56.151 215.246 56.2772C215.372 56.4034 215.443 56.5745 215.443 56.753C215.443 56.9315 215.372 57.1026 215.246 57.2288C215.119 57.355 214.948 57.4259 214.769 57.4259Z" fill="white"/>
<path d="M251.133 57.4259H225.114C224.935 57.4259 224.764 57.355 224.637 57.2288C224.511 57.1026 224.44 56.9315 224.44 56.753C224.44 56.5745 224.511 56.4034 224.637 56.2772C224.764 56.151 224.935 56.0801 225.114 56.0801H251.133C251.311 56.0801 251.483 56.151 251.609 56.2772C251.736 56.4034 251.807 56.5745 251.807 56.753C251.807 56.9315 251.736 57.1026 251.609 57.2288C251.483 57.355 251.311 57.4259 251.133 57.4259Z" fill="white"/>
<path d="M240.578 63.4686H197.767C197.588 63.4686 197.417 63.3977 197.29 63.2715C197.164 63.1453 197.093 62.9742 197.093 62.7957C197.093 62.6172 197.164 62.4461 197.29 62.3199C197.417 62.1937 197.588 62.1228 197.767 62.1228H240.578C240.757 62.1228 240.928 62.1937 241.055 62.3199C241.181 62.4461 241.252 62.6172 241.252 62.7957C241.252 62.9742 241.181 63.1453 241.055 63.2715C240.928 63.3977 240.757 63.4686 240.578 63.4686Z" fill="white"/>
<path d="M226.132 69.5113H197.767C197.588 69.5113 197.417 69.4404 197.29 69.3143C197.164 69.1881 197.093 69.0169 197.093 68.8384C197.093 68.66 197.164 68.4888 197.29 68.3626C197.417 68.2364 197.588 68.1655 197.767 68.1655H226.132C226.311 68.1655 226.483 68.2364 226.609 68.3626C226.736 68.4888 226.807 68.66 226.807 68.8384C226.807 69.0169 226.736 69.1881 226.609 69.3143C226.483 69.4404 226.311 69.5113 226.132 69.5113Z" fill="white"/>
<path d="M167.561 44.9166H187.274C187.582 44.9126 187.889 44.97 188.175 45.0855C188.461 45.2011 188.721 45.3724 188.94 45.5895L193.842 50.6699C193.968 50.8024 194.131 50.894 194.31 50.9328C194.488 50.9716 194.674 50.9559 194.844 50.8876C195.014 50.8194 195.159 50.7018 195.26 50.5501C195.362 50.3985 195.415 50.2198 195.414 50.0374V23.0403C195.414 21.7322 194.893 20.4776 193.966 19.5526C193.039 18.6276 191.781 18.1079 190.47 18.1079H166.779C165.706 18.1079 164.676 18.5333 163.918 19.2905C163.159 20.0476 162.732 21.0746 162.732 22.1454V40.1456C162.74 41.4169 163.252 42.6335 164.157 43.528C165.063 44.4225 166.287 44.9219 167.561 44.9166Z" fill="#47A082"/>
<path d="M185.021 32.1044C185.021 32.4371 185.12 32.7624 185.305 33.039C185.49 33.3157 185.754 33.5313 186.062 33.6586C186.37 33.7859 186.709 33.8192 187.036 33.7543C187.363 33.6894 187.663 33.5292 187.899 33.2939C188.135 33.0587 188.296 32.7589 188.361 32.4326C188.426 32.1063 188.392 31.768 188.265 31.4606C188.137 31.1532 187.921 30.8905 187.644 30.7056C187.366 30.5208 187.04 30.4221 186.707 30.4221C186.26 30.4221 185.831 30.5994 185.515 30.9148C185.199 31.2303 185.021 31.6582 185.021 32.1044Z" fill="white"/>
<path d="M177.111 32.1044C177.111 32.4371 177.21 32.7624 177.395 33.039C177.58 33.3157 177.844 33.5313 178.152 33.6586C178.46 33.7859 178.799 33.8192 179.126 33.7543C179.453 33.6894 179.753 33.5292 179.989 33.2939C180.225 33.0587 180.385 32.7589 180.45 32.4326C180.515 32.1063 180.482 31.768 180.354 31.4606C180.227 31.1532 180.011 30.8905 179.734 30.7056C179.456 30.5208 179.13 30.4221 178.797 30.4221C178.35 30.4221 177.921 30.5994 177.605 30.9148C177.288 31.2303 177.111 31.6582 177.111 32.1044Z" fill="white"/>
<path d="M169.011 32.1044C169.009 32.4387 169.108 32.7659 169.293 33.0446C169.478 33.3232 169.742 33.5407 170.051 33.6696C170.36 33.7985 170.701 33.8329 171.03 33.7685C171.358 33.7041 171.661 33.5437 171.898 33.3078C172.135 33.0719 172.297 32.7709 172.363 32.4431C172.429 32.1153 172.396 31.7753 172.268 31.4663C172.14 31.1573 171.923 30.8931 171.645 30.7072C171.366 30.5214 171.039 30.4221 170.704 30.4221C170.256 30.4221 169.826 30.5991 169.509 30.9144C169.192 31.2297 169.013 31.6576 169.011 32.1044Z" fill="white"/>
<path d="M267.928 55.7132C272.018 51.6321 272.018 45.0154 267.928 40.9343C263.838 36.8532 257.206 36.8532 253.116 40.9343C249.026 45.0154 249.026 51.6321 253.116 55.7132C257.206 59.7943 263.838 59.7943 267.928 55.7132Z" fill="#47A082"/>
<path d="M261.721 53.2H260.284V44.5195L258.821 45.4145V43.9206L260.284 42.9517H261.721V53.2Z" fill="white"/>
<g opacity="0.61">
<path d="M169.753 200.029H152.104C151.925 200.029 151.753 199.958 151.627 199.832C151.5 199.706 151.429 199.534 151.429 199.356C151.429 199.178 151.5 199.006 151.627 198.88C151.753 198.754 151.925 198.683 152.104 198.683H169.753C169.931 198.683 170.103 198.754 170.229 198.88C170.356 199.006 170.427 199.178 170.427 199.356C170.427 199.534 170.356 199.706 170.229 199.832C170.103 199.958 169.931 200.029 169.753 200.029Z" fill="white"/>
<path d="M207.526 200.029H180.503C180.324 200.029 180.153 199.958 180.026 199.832C179.9 199.706 179.829 199.534 179.829 199.356C179.829 199.178 179.9 199.006 180.026 198.88C180.153 198.754 180.324 198.683 180.503 198.683H207.526C207.705 198.683 207.877 198.754 208.003 198.88C208.129 199.006 208.201 199.178 208.201 199.356C208.201 199.534 208.129 199.706 208.003 199.832C207.877 199.958 207.705 200.029 207.526 200.029Z" fill="white"/>
<path d="M196.56 206.307H152.104C151.925 206.307 151.753 206.236 151.627 206.11C151.5 205.984 151.429 205.813 151.429 205.634C151.429 205.456 151.5 205.284 151.627 205.158C151.753 205.032 151.925 204.961 152.104 204.961H196.56C196.739 204.961 196.91 205.032 197.037 205.158C197.163 205.284 197.234 205.456 197.234 205.634C197.234 205.813 197.163 205.984 197.037 206.11C196.91 206.236 196.739 206.307 196.56 206.307Z" fill="white"/>
<path d="M181.582 212.578H152.104C151.925 212.578 151.753 212.508 151.627 212.381C151.5 212.255 151.429 212.084 151.429 211.906C151.429 211.727 151.5 211.556 151.627 211.43C151.753 211.304 151.925 211.233 152.104 211.233H181.582C181.76 211.233 181.932 211.304 182.058 211.43C182.185 211.556 182.256 211.727 182.256 211.906C182.256 212.084 182.185 212.255 182.058 212.381C181.932 212.508 181.76 212.578 181.582 212.578Z" fill="white"/>
<path d="M55.982 190.097H10.359C10.1801 190.097 10.0086 190.026 9.8821 189.899C9.75562 189.773 9.68457 189.602 9.68457 189.424C9.68457 189.245 9.75562 189.074 9.8821 188.948C10.0086 188.822 10.1801 188.751 10.359 188.751H55.982C56.1608 188.751 56.3324 188.822 56.4588 188.948C56.5853 189.074 56.6564 189.245 56.6564 189.424C56.6564 189.602 56.5853 189.773 56.4588 189.899C56.3324 190.026 56.1608 190.097 55.982 190.097Z" fill="white"/>
<path d="M55.982 176.033H10.359C10.1801 176.033 10.0086 175.962 9.8821 175.836C9.75562 175.71 9.68457 175.539 9.68457 175.36C9.68457 175.182 9.75562 175.011 9.8821 174.884C10.0086 174.758 10.1801 174.687 10.359 174.687H55.982C56.1608 174.687 56.3324 174.758 56.4588 174.884C56.5853 175.011 56.6564 175.182 56.6564 175.36C56.6564 175.539 56.5853 175.71 56.4588 175.836C56.3324 175.962 56.1608 176.033 55.982 176.033Z" fill="white"/>
<path d="M55.9816 183.065H31.3863C31.2075 183.065 31.0359 182.994 30.9094 182.868C30.783 182.742 30.7119 182.57 30.7119 182.392C30.7119 182.213 30.783 182.042 30.9094 181.916C31.0359 181.79 31.2075 181.719 31.3863 181.719H55.9816C56.1605 181.719 56.332 181.79 56.4585 181.916C56.5849 182.042 56.656 182.213 56.656 182.392C56.656 182.57 56.5849 182.742 56.4585 182.868C56.332 182.994 56.1605 183.065 55.9816 183.065Z" fill="white"/>
<path d="M55.9816 168.577H31.3863C31.2075 168.577 31.0359 168.506 30.9094 168.38C30.783 168.254 30.7119 168.083 30.7119 167.904C30.7119 167.726 30.783 167.554 30.9094 167.428C31.0359 167.302 31.2075 167.231 31.3863 167.231H55.9816C56.1605 167.231 56.332 167.302 56.4585 167.428C56.5849 167.554 56.656 167.726 56.656 167.904C56.656 168.083 56.5849 168.254 56.4585 168.38C56.332 168.506 56.1605 168.577 55.9816 168.577Z" fill="white"/>
<path d="M55.9824 161.861H39.3922C39.2133 161.861 39.0418 161.791 38.9153 161.664C38.7888 161.538 38.7178 161.367 38.7178 161.189C38.7178 161.01 38.7888 160.839 38.9153 160.713C39.0418 160.587 39.2133 160.516 39.3922 160.516H55.9824C56.1612 160.516 56.3328 160.587 56.4592 160.713C56.5857 160.839 56.6568 161.01 56.6568 161.189C56.6568 161.367 56.5857 161.538 56.4592 161.664C56.3328 161.791 56.1612 161.861 55.9824 161.861Z" fill="white"/>
</g>
<path d="M156.744 60.1043C156.744 60.1043 156.676 60.1043 156.69 60.1043C164.951 49.109 154.613 34.5338 145.603 33.6119C142.409 29.6463 138.194 26.6224 133.41 24.8641C130.81 23.9095 128.082 23.3493 125.317 23.202C125.306 21.1935 124.807 19.2175 123.861 17.4443C122.916 15.6711 121.553 14.1537 119.889 13.0227C118.226 11.8918 116.311 11.1811 114.312 10.952C112.312 10.7229 110.286 10.9821 108.409 11.7074C106.532 12.4327 104.859 13.6023 103.536 15.1156C102.212 16.6288 101.277 18.4404 100.81 20.3943C100.344 22.3482 100.36 24.386 100.858 26.3321C101.356 28.2783 102.321 30.0745 103.669 31.5662C101.633 33.6193 99.933 35.9785 98.6309 38.5578C98.3139 39.1836 98.0374 39.8161 97.7744 40.4486C93.6319 40.31 89.5581 41.5298 86.1766 43.9213C82.795 46.3129 80.2922 49.7442 79.0513 53.6902C77.8103 57.6361 77.8996 61.8791 79.3055 65.7696C80.7115 69.66 83.3565 72.9835 86.8357 75.2313C83.4097 77.0347 81.2382 79.5244 81.0156 82.3977C80.7526 85.7623 83.1737 88.9788 87.2808 91.482C86.4035 93.2142 85.9417 95.1263 85.932 97.0671C85.932 104.772 93.0266 111.023 101.78 111.023C107.695 111.023 112.854 108.163 115.578 103.938C117.561 105.229 119.648 106.354 121.817 107.302C133.477 112.362 145.077 111.562 147.72 105.505C148.417 103.766 148.438 101.83 147.781 100.075C148.479 99.9559 149.168 99.7918 149.845 99.5838C173.428 92.0405 176.612 69.0809 156.744 60.1043Z" fill="#233863"/>
<path d="M161.182 160.441L159.61 156L171.433 149.271L171.803 149.063V147.912C171.803 126.224 157.843 108.648 140.613 108.648H122.33L122.566 109.085L90.316 109.348C82.2772 109.408 75.4793 115.175 72.7817 123.23L50.0747 173.819L53.3455 174.223L71.9724 176.497L72.3905 227.921H152.266L154.903 185.951L157.904 181.059L159.354 178.704C160.982 175.98 161.99 172.932 162.306 169.776C162.622 166.62 162.238 163.433 161.182 160.441Z" fill="#47A082"/>
<path d="M94.3889 179.438L75.472 177.237C75.3836 177.227 75.3028 177.183 75.2472 177.113C75.1917 177.044 75.1658 176.956 75.1753 176.867C75.1854 176.779 75.2301 176.698 75.2996 176.643C75.3691 176.588 75.4577 176.562 75.5462 176.571L93.8696 178.698L99.0692 156.303C99.09 156.217 99.1442 156.142 99.22 156.095C99.2958 156.049 99.3871 156.034 99.4738 156.054C99.5171 156.064 99.5581 156.082 99.5943 156.107C99.6305 156.133 99.6612 156.166 99.6844 156.203C99.7077 156.241 99.7232 156.283 99.7299 156.327C99.7365 156.37 99.7343 156.415 99.7233 156.458L94.3889 179.438Z" fill="#374081"/>
<path d="M114.142 131.278C108.839 131.272 103.754 129.168 100.004 125.426C96.2541 121.684 94.145 116.611 94.1396 111.319V109.072C94.1396 108.942 94.1915 108.817 94.2838 108.724C94.3762 108.632 94.5014 108.581 94.632 108.581C94.6963 108.581 94.76 108.593 94.8193 108.618C94.8787 108.643 94.9325 108.679 94.9777 108.725C95.0229 108.771 95.0585 108.825 95.0825 108.884C95.1065 108.944 95.1184 109.008 95.1175 109.072V111.319C95.1175 116.354 97.1219 121.182 100.69 124.742C104.258 128.302 109.097 130.302 114.142 130.302C119.188 130.302 124.027 128.302 127.595 124.742C131.163 121.182 133.167 116.354 133.167 111.319V109.072C133.167 108.942 133.219 108.817 133.311 108.724C133.404 108.632 133.529 108.581 133.659 108.581C133.724 108.581 133.787 108.593 133.847 108.618C133.906 108.643 133.96 108.679 134.005 108.725C134.05 108.771 134.086 108.825 134.11 108.884C134.134 108.944 134.146 109.008 134.145 109.072V111.319C134.14 116.611 132.03 121.684 128.28 125.426C124.53 129.168 119.446 131.272 114.142 131.278Z" fill="#233863"/>
<path d="M100.776 120.417C100.696 120.417 100.617 120.398 100.546 120.36C100.476 120.322 100.415 120.268 100.371 120.202C98.5108 117.466 97.5192 114.235 97.5249 110.929V109.072C97.5249 108.942 97.5768 108.817 97.6691 108.724C97.7614 108.632 97.8867 108.581 98.0172 108.581C98.0816 108.581 98.1453 108.593 98.2046 108.618C98.264 108.643 98.3178 108.679 98.363 108.725C98.4082 108.771 98.4438 108.825 98.4678 108.884C98.4918 108.944 98.5037 109.008 98.5028 109.072V110.929C98.5009 114.049 99.441 117.097 101.2 119.677C101.271 119.784 101.297 119.914 101.273 120.039C101.249 120.165 101.177 120.276 101.072 120.35C100.982 120.401 100.879 120.424 100.776 120.417Z" fill="#233863"/>
<path d="M114.142 127.496C110.381 127.509 106.729 126.233 103.797 123.882C103.699 123.802 103.636 123.687 103.623 123.561C103.609 123.435 103.645 123.309 103.723 123.209C103.803 123.112 103.918 123.049 104.044 123.034C104.169 123.019 104.296 123.053 104.397 123.129C107.162 125.327 110.593 126.523 114.129 126.523C117.664 126.523 121.095 125.327 123.86 123.129C123.961 123.051 124.088 123.017 124.214 123.032C124.34 123.047 124.455 123.111 124.535 123.209C124.611 123.31 124.646 123.435 124.632 123.561C124.619 123.686 124.557 123.801 124.461 123.882C121.535 126.226 117.894 127.501 114.142 127.496Z" fill="#233863"/>
<path d="M128.149 119.347C128.066 119.348 127.984 119.324 127.913 119.28C127.856 119.248 127.806 119.206 127.766 119.155C127.725 119.104 127.695 119.045 127.678 118.983C127.66 118.92 127.655 118.855 127.663 118.79C127.671 118.726 127.692 118.663 127.724 118.607C129.054 116.263 129.751 113.615 129.748 110.922V109.065C129.748 108.935 129.799 108.81 129.892 108.718C129.984 108.625 130.109 108.574 130.24 108.574C130.304 108.574 130.368 108.586 130.427 108.611C130.487 108.636 130.54 108.672 130.586 108.718C130.631 108.764 130.666 108.818 130.69 108.877C130.714 108.937 130.726 109.001 130.725 109.065V110.922C130.728 113.786 129.985 116.601 128.567 119.091C128.528 119.168 128.468 119.232 128.394 119.278C128.32 119.323 128.236 119.347 128.149 119.347Z" fill="#233863"/>
<path d="M161.694 241.54L149.096 222.638C146.216 218.964 144.564 214.503 141.219 213.595L138.96 213.023V212.989L82.4454 198.952L87.1662 178.341L53.3991 174.223L42.9662 208.541C42.3281 211.387 42.3205 214.337 42.944 217.186C43.5674 220.035 44.8069 222.713 46.5757 225.034C48.3445 227.355 50.6 229.263 53.1846 230.624C55.7692 231.985 58.6204 232.767 61.5391 232.914L121.115 232.766C127.3 239.226 146.648 252.468 146.648 252.468C147.009 252.782 147.463 252.969 147.94 253.001C148.417 253.033 148.892 252.908 149.292 252.646C149.691 252.384 149.994 251.998 150.154 251.548C150.313 251.098 150.321 250.608 150.175 250.154H150.337L150.506 250.194L151.335 250.995C151.8 251.44 152.422 251.685 153.066 251.675C153.71 251.665 154.324 251.401 154.775 250.941L154.829 250.88C155.232 250.467 155.471 249.922 155.503 249.346C155.956 249.803 156.571 250.064 157.216 250.07C157.86 250.076 158.481 249.828 158.942 249.38L159.003 249.326C159.461 248.874 159.722 248.26 159.728 247.617C159.735 246.974 159.486 246.355 159.037 245.894L158.808 245.659L158.706 245.403C159.164 245.661 159.693 245.765 160.215 245.698C160.736 245.631 161.222 245.398 161.599 245.033L161.66 244.979C162.121 244.527 162.383 243.911 162.389 243.267C162.395 242.622 162.145 242.001 161.694 241.54Z" fill="#FFBA94"/>
<path d="M158.888 245.753C158.797 245.752 158.71 245.716 158.646 245.652L151.153 237.981C151.122 237.949 151.098 237.911 151.081 237.87C151.065 237.829 151.057 237.785 151.057 237.74C151.058 237.696 151.067 237.652 151.085 237.611C151.102 237.571 151.128 237.534 151.16 237.503C151.192 237.472 151.229 237.448 151.271 237.431C151.312 237.415 151.356 237.407 151.401 237.407C151.445 237.408 151.489 237.417 151.53 237.435C151.571 237.452 151.608 237.478 151.639 237.51L159.131 245.154C159.163 245.185 159.188 245.222 159.205 245.263C159.222 245.304 159.231 245.348 159.231 245.393C159.231 245.437 159.222 245.481 159.205 245.522C159.188 245.563 159.163 245.6 159.131 245.632C159.101 245.667 159.064 245.696 159.022 245.717C158.98 245.737 158.935 245.75 158.888 245.753Z" fill="#FB8E77"/>
<path d="M154.909 248.747C154.818 248.747 154.731 248.711 154.667 248.646L147.188 241.002C147.156 240.971 147.131 240.935 147.114 240.894C147.097 240.854 147.088 240.81 147.088 240.767C147.088 240.723 147.097 240.679 147.114 240.639C147.131 240.598 147.156 240.562 147.188 240.531C147.251 240.469 147.335 240.435 147.424 240.435C147.512 240.435 147.597 240.469 147.66 240.531L155.159 248.182C155.191 248.213 155.216 248.25 155.233 248.291C155.25 248.332 155.259 248.376 155.259 248.421C155.259 248.465 155.25 248.509 155.233 248.55C155.216 248.591 155.191 248.628 155.159 248.66C155.09 248.719 155.001 248.75 154.909 248.747Z" fill="#FB8E77"/>
<path d="M150.175 250.315C150.132 250.316 150.088 250.308 150.048 250.292C150.007 250.275 149.97 250.251 149.939 250.221L142.224 242.819C142.188 242.789 142.159 242.753 142.138 242.712C142.117 242.67 142.105 242.625 142.102 242.579C142.099 242.533 142.106 242.487 142.122 242.443C142.138 242.4 142.163 242.36 142.195 242.327C142.227 242.293 142.266 242.267 142.309 242.249C142.352 242.231 142.398 242.222 142.444 242.223C142.49 242.224 142.536 242.234 142.578 242.253C142.621 242.272 142.658 242.3 142.689 242.334L150.411 249.736C150.46 249.783 150.493 249.843 150.507 249.909C150.521 249.975 150.515 250.043 150.49 250.105C150.464 250.168 150.421 250.221 150.365 250.258C150.309 250.296 150.243 250.315 150.175 250.315Z" fill="#FB8E77"/>
<path d="M88.1303 200.715H88.0224L70.6364 195.137C70.5908 195.126 70.5478 195.107 70.5101 195.079C70.4725 195.052 70.4409 195.017 70.4176 194.976C70.3943 194.936 70.3796 194.891 70.3745 194.845C70.3695 194.798 70.3741 194.751 70.3882 194.707C70.4023 194.662 70.4255 194.621 70.4563 194.586C70.4871 194.551 70.5249 194.523 70.5673 194.503C70.6097 194.483 70.6557 194.473 70.7024 194.472C70.7491 194.471 70.7956 194.479 70.8388 194.497L88.2315 200.076C88.3209 200.089 88.4014 200.137 88.4551 200.21C88.5089 200.282 88.5315 200.373 88.5181 200.463C88.5047 200.552 88.4563 200.632 88.3836 200.686C88.3109 200.739 88.2197 200.762 88.1303 200.749V200.715Z" fill="#FB8E77"/>
<path d="M130.327 50.7305C127.009 51.2284 123.86 54.2902 121.337 57.6547C120.954 58.1676 120.528 58.647 120.063 59.088C118.454 60.5683 116.417 61.5019 114.243 61.7546C112.069 62.0073 109.871 61.5661 107.964 60.4944L107.034 60.3261C105.045 59.9738 102.999 60.4239 101.343 61.5773C99.6876 62.7306 98.559 64.4929 98.2056 66.4765V66.6178C98.0289 67.5997 98.0481 68.6068 98.262 69.5813C98.476 70.5558 98.8805 71.4786 99.4525 72.2968C100.024 73.1151 100.753 73.8126 101.595 74.3496C102.438 74.8866 103.378 75.2525 104.363 75.4262L106.238 75.7626L105.745 78.5216C105.454 80.1463 105.366 81.8008 105.482 83.4473L101.133 107.807C100.812 109.492 100.829 111.223 101.184 112.902C101.539 114.58 102.224 116.171 103.199 117.584C104.175 118.996 105.421 120.201 106.867 121.129C108.312 122.058 109.928 122.691 111.62 122.991C113.313 123.292 115.048 123.255 116.726 122.882C118.404 122.509 119.991 121.808 121.395 120.819C122.799 119.829 123.993 118.572 124.907 117.119C125.821 115.666 126.437 114.047 126.719 112.355L128.459 102.625C133.189 102.641 137.774 100.992 141.405 97.968C145.037 94.9438 147.483 90.7383 148.313 86.0918L148.651 84.2211L152.778 61.1C148.111 60.5213 131.676 57.9911 130.327 50.7305Z" fill="#FFBA94"/>
<path opacity="0.46" d="M125.31 100.452L124.933 100.384C120.129 99.5305 115.8 96.9623 112.754 93.1589C109.707 89.3554 108.151 84.5763 108.376 79.7127C108.423 78.9187 108.246 78.1274 107.864 77.4291C107.483 76.7307 106.912 76.1533 106.218 75.7627L105.726 78.5216C105.204 81.4142 105.328 84.3859 106.09 87.2251C106.851 90.0642 108.23 92.7009 110.129 94.9473L126.511 113.56L128.433 102.793L128.028 102.618C132.822 102.723 137.496 101.115 141.206 98.0828C144.916 95.051 147.418 90.7957 148.26 86.0851L148.597 84.2144C147.663 89.4469 144.686 94.0958 140.32 97.1401C135.954 100.185 130.556 101.376 125.31 100.452Z" fill="#FB8E77"/>
<path d="M128.432 95.203C128.365 95.2034 128.299 95.1837 128.243 95.1463C128.187 95.1089 128.144 95.0557 128.118 94.9934C128.093 94.9311 128.087 94.8627 128.101 94.7969C128.115 94.7311 128.148 94.671 128.196 94.6243C128.196 94.6243 130.132 92.8209 132.384 94.0052C132.463 94.0481 132.522 94.1198 132.548 94.2053C132.575 94.2908 132.567 94.3832 132.526 94.4628C132.482 94.5401 132.41 94.5978 132.325 94.624C132.24 94.6503 132.148 94.6432 132.068 94.6041C131.515 94.3369 130.894 94.2421 130.287 94.3322C129.679 94.4222 129.113 94.6928 128.662 95.1088C128.601 95.1687 128.518 95.2025 128.432 95.203Z" fill="#FB8E77"/>
<path d="M133.875 73.051C133.831 73.2947 133.715 73.5199 133.543 73.6981C133.371 73.8763 133.149 73.9995 132.907 74.0522C132.665 74.1049 132.412 74.0846 132.181 73.994C131.95 73.9034 131.751 73.7465 131.61 73.5432C131.468 73.3398 131.39 73.0992 131.386 72.8516C131.382 72.6041 131.451 72.3608 131.585 72.1525C131.719 71.9443 131.912 71.7804 132.14 71.6816C132.367 71.5828 132.619 71.5536 132.863 71.5976C133.19 71.6565 133.481 71.8428 133.67 72.1153C133.86 72.3879 133.934 72.7245 133.875 73.051Z" fill="#233863"/>
<path d="M148.745 75.6953C148.701 75.939 148.586 76.1642 148.414 76.3424C148.241 76.5206 148.02 76.6438 147.778 76.6965C147.535 76.7492 147.283 76.7289 147.052 76.6383C146.821 76.5477 146.622 76.3908 146.48 76.1874C146.339 75.9841 146.261 75.7434 146.257 75.4959C146.252 75.2484 146.321 75.0051 146.456 74.7968C146.59 74.5886 146.783 74.4247 147.01 74.3259C147.238 74.2271 147.489 74.1978 147.734 74.2418C148.061 74.3008 148.351 74.4871 148.541 74.7596C148.731 75.0322 148.804 75.3688 148.745 75.6953Z" fill="#233863"/>
<path d="M136.673 82.539C135.931 82.5256 135.196 82.3938 134.495 82.1488C134.41 82.121 134.34 82.0608 134.299 81.9813C134.259 81.9019 134.252 81.8096 134.279 81.7248C134.309 81.6411 134.369 81.572 134.448 81.5318C134.527 81.4917 134.619 81.4837 134.704 81.5095C137.543 82.4448 138.751 81.2807 139.142 80.7357C139.213 80.6363 139.242 80.513 139.223 80.3925L137.746 70.9112C137.732 70.822 137.755 70.7311 137.809 70.6585C137.862 70.5859 137.943 70.5377 138.032 70.5243C138.122 70.5109 138.213 70.5335 138.286 70.5871C138.358 70.6408 138.407 70.721 138.42 70.8103L139.87 80.2915C139.893 80.4371 139.887 80.5857 139.852 80.7289C139.818 80.8721 139.755 81.007 139.668 81.1259C139.323 81.5881 138.869 81.9586 138.347 82.205C137.825 82.4514 137.25 82.5661 136.673 82.539Z" fill="#FB8E77"/>
<path d="M122.802 79.2685L132.741 84.968L130.043 89.6515C129.821 90.0381 129.453 90.3206 129.022 90.4369C128.59 90.5531 128.13 90.4936 127.743 90.2714L125.126 88.7708C123.57 87.8785 122.433 86.4059 121.965 84.6771C121.497 82.9482 121.736 81.1047 122.631 79.552L122.796 79.2651L122.802 79.2685Z" fill="white"/>
<path d="M128.669 79.0398C126.583 79.038 124.583 78.211 123.108 76.7402C121.632 75.2693 120.802 73.2747 120.798 71.1937C120.797 69.1104 121.624 67.1116 123.098 65.6365C124.573 64.1615 126.574 63.331 128.662 63.3274C130.71 63.3872 132.654 64.2411 134.082 65.7079C135.51 67.1747 136.308 69.1389 136.308 71.1836C136.308 73.2283 135.51 75.1925 134.082 76.6593C132.654 78.126 130.71 78.98 128.662 79.0398H128.669ZM122.147 71.1937C122.151 72.9177 122.839 74.5701 124.062 75.7885C125.284 77.007 126.941 77.6922 128.669 77.694C129.543 77.722 130.414 77.5744 131.23 77.2599C132.047 76.9453 132.791 76.4703 133.42 75.8629C134.048 75.2556 134.548 74.5284 134.889 73.7246C135.231 72.9207 135.407 72.0566 135.407 71.1836C135.407 70.3106 135.231 69.4465 134.889 68.6426C134.548 67.8388 134.048 67.1116 133.42 66.5043C132.791 65.8969 132.047 65.4219 131.23 65.1073C130.414 64.7928 129.543 64.6452 128.669 64.6732C126.938 64.6768 125.28 65.3655 124.059 66.5882C122.837 67.8108 122.152 69.4673 122.154 71.1937H122.147Z" fill="white"/>
<path d="M146.58 82.5388C144.494 82.5371 142.493 81.7103 141.017 80.2396C139.541 78.7689 138.708 76.7743 138.703 74.6927C138.703 72.6099 139.531 70.6122 141.005 69.1375C142.479 67.6629 144.479 66.8318 146.567 66.8264C148.615 66.8862 150.559 67.7402 151.987 69.207C153.415 70.6738 154.213 72.638 154.213 74.6826C154.213 76.7273 153.415 78.6915 151.987 80.1583C150.559 81.6251 148.615 82.479 146.567 82.5388H146.58ZM140.052 74.686C140.055 76.4118 140.745 78.0659 141.968 79.2856C143.192 80.5053 144.85 81.1912 146.58 81.193C148.274 81.1387 149.881 80.4289 151.06 79.2139C152.239 77.9989 152.898 76.3739 152.898 74.6826C152.898 72.9913 152.239 71.3663 151.06 70.1513C149.881 68.9363 148.274 68.2266 146.58 68.1722C144.85 68.174 143.191 68.8611 141.968 70.0824C140.746 71.3038 140.059 72.9596 140.059 74.686H140.052Z" fill="white"/>
<path d="M139.176 73.7911H139.095L136.289 73.5219C136.201 73.5135 136.114 73.4876 136.036 73.4458C135.957 73.404 135.888 73.347 135.831 73.2781C135.775 73.2093 135.733 73.13 135.707 73.0448C135.681 72.9596 135.673 72.8702 135.682 72.7817C135.699 72.6042 135.786 72.4407 135.924 72.3271C136.062 72.2136 136.24 72.1592 136.417 72.1761L139.223 72.452C139.402 72.46 139.57 72.5386 139.691 72.6705C139.812 72.8024 139.875 72.9767 139.867 73.1552C139.859 73.3337 139.78 73.5016 139.648 73.6221C139.516 73.7427 139.341 73.8058 139.162 73.7978L139.176 73.7911Z" fill="white"/>
<path d="M127.63 60.7098C128.121 60.8266 128.631 60.838 129.127 60.7434C129.653 60.6829 130.186 60.6358 130.651 60.6089C131.117 60.5819 131.656 60.6089 132.189 60.6089C132.691 60.6505 133.197 60.5863 133.673 60.4204C134.064 60.232 134.199 59.7475 133.673 59.1688C133.24 58.7801 132.729 58.4868 132.175 58.3082C131.621 58.1297 131.035 58.0698 130.456 58.1325C129.882 58.1254 129.313 58.242 128.788 58.4743C128.263 58.7065 127.794 59.049 127.414 59.4784C127.016 60.0907 127.219 60.5685 127.63 60.7098Z" fill="#233863"/>
<path d="M150.863 64.6599C150.362 64.5892 149.882 64.415 149.453 64.1485C148.981 63.9062 148.502 63.6707 148.105 63.4755C147.707 63.2804 147.181 63.0785 146.682 62.8901C146.198 62.7502 145.75 62.5094 145.367 62.1836C145.07 61.8673 145.124 61.3559 145.798 61.0127C146.341 60.8018 146.922 60.7083 147.503 60.7384C148.084 60.7686 148.653 60.9217 149.17 61.1877C149.711 61.3919 150.2 61.7107 150.605 62.1219C151.011 62.5331 151.322 63.0271 151.517 63.5698C151.659 64.3032 151.301 64.6733 150.863 64.6599Z" fill="#233863"/>
<path d="M102.927 70.0497C102.837 70.0613 102.747 70.037 102.676 69.9821C102.604 69.9272 102.557 69.8462 102.546 69.757C102.534 69.6678 102.559 69.5776 102.614 69.5063C102.669 69.435 102.75 69.3884 102.839 69.3768L105.247 68.7645L104.154 64.727C104.132 64.6414 104.144 64.5502 104.188 64.4734C104.232 64.3965 104.305 64.3402 104.39 64.3165C104.433 64.3034 104.478 64.2991 104.522 64.3039C104.566 64.3088 104.609 64.3227 104.647 64.3448C104.686 64.3669 104.72 64.3968 104.746 64.4324C104.773 64.4681 104.792 64.5088 104.802 64.5521L106.076 69.2288L103.008 70.0161L102.927 70.0497Z" fill="#FB8E77"/>
<path d="M188.676 94.7993H170.09C168.272 94.7993 166.799 96.2695 166.799 98.0831V133.727C166.799 135.541 168.272 137.011 170.09 137.011H188.676C190.494 137.011 191.967 135.541 191.967 133.727V98.0831C191.967 96.2695 190.494 94.7993 188.676 94.7993Z" fill="#233863"/>
<path d="M204.592 168.126L202.522 130.719L203.014 126.177C203.695 119.828 201.836 113.468 197.842 108.48C197.464 108.009 197.093 107.531 196.715 107.087V100.983C196.716 100.666 196.654 100.352 196.534 100.059C196.413 99.7664 196.235 99.5 196.011 99.2756C195.786 99.0512 195.52 98.8731 195.227 98.7516C194.933 98.6302 194.619 98.5676 194.301 98.5676C193.995 98.5676 193.691 98.6278 193.408 98.7448C193.125 98.8619 192.868 99.0334 192.651 99.2496C192.434 99.4657 192.263 99.7224 192.145 100.005C192.028 100.287 191.968 100.59 191.968 100.896V103.211C191.968 105.327 191.126 107.356 189.628 108.854C188.129 110.351 186.097 111.195 183.976 111.198H176.996L166.556 110.31C165.965 110.262 165.376 110.427 164.897 110.776C164.417 111.125 164.079 111.634 163.945 112.21C163.81 112.786 163.887 113.392 164.162 113.917C164.437 114.441 164.892 114.849 165.444 115.067L165.167 115.155H164.877C164.552 115.125 164.224 115.16 163.913 115.257C163.601 115.354 163.311 115.511 163.061 115.72C162.81 115.929 162.603 116.185 162.452 116.474C162.301 116.762 162.208 117.078 162.179 117.402C162.121 118.058 162.327 118.71 162.751 119.215C163.174 119.72 163.781 120.036 164.439 120.094C163.997 120.493 163.717 121.038 163.65 121.628C163.613 121.951 163.641 122.277 163.731 122.589C163.821 122.901 163.972 123.192 164.174 123.446C164.377 123.7 164.629 123.911 164.913 124.068C165.198 124.225 165.511 124.324 165.835 124.36L166.934 124.481L167.082 124.589L167.163 124.737C166.717 124.913 166.341 125.23 166.093 125.64C165.845 126.049 165.738 126.529 165.79 127.005C165.841 127.481 166.047 127.927 166.377 128.274C166.707 128.622 167.142 128.852 167.615 128.929C167.615 128.929 175.297 131.453 178.615 132.388L175.809 146.896L175.209 149.991L171.412 149.318L159.59 156.047L161.161 160.489C162.223 163.482 162.612 166.671 162.3 169.831C161.987 172.991 160.982 176.043 159.354 178.772L157.904 181.127L163.677 183.495C170.974 186.483 181.521 189.592 189.304 187.741C191.406 187.296 193.435 186.56 195.333 185.554C201.011 182.58 204.923 175.885 204.592 168.126Z" fill="#FFBA94"/>
<path d="M175.998 116.184H175.964L165.262 115.269C165.217 115.266 165.174 115.254 165.134 115.233C165.095 115.213 165.06 115.186 165.031 115.152C165.002 115.118 164.98 115.079 164.966 115.037C164.953 114.994 164.948 114.95 164.951 114.906C164.962 114.816 165.006 114.735 165.075 114.677C165.144 114.619 165.232 114.59 165.322 114.596L176.025 115.511C176.114 115.511 176.2 115.547 176.263 115.61C176.327 115.673 176.362 115.759 176.362 115.848C176.362 115.937 176.327 116.023 176.263 116.086C176.2 116.149 176.114 116.184 176.025 116.184H175.998Z" fill="#FB8E77"/>
<path d="M176.186 121.177L165.484 120.269C165.439 120.265 165.396 120.252 165.357 120.231C165.317 120.21 165.283 120.181 165.254 120.147C165.226 120.113 165.205 120.073 165.192 120.03C165.18 119.988 165.175 119.943 165.18 119.899C165.183 119.855 165.196 119.812 165.216 119.773C165.236 119.734 165.264 119.699 165.298 119.671C165.332 119.642 165.371 119.621 165.414 119.608C165.456 119.596 165.5 119.591 165.544 119.596L176.247 120.504C176.336 120.515 176.418 120.559 176.476 120.628C176.534 120.697 176.563 120.785 176.557 120.875C176.553 120.919 176.54 120.962 176.519 121.001C176.498 121.04 176.469 121.075 176.435 121.103C176.401 121.131 176.361 121.152 176.318 121.165C176.275 121.178 176.231 121.182 176.186 121.177Z" fill="#FB8E77"/>
<path d="M177.974 126.15H177.933L167.264 124.932C167.22 124.927 167.177 124.913 167.139 124.891C167.1 124.869 167.065 124.84 167.038 124.805C167.01 124.77 166.99 124.73 166.978 124.687C166.966 124.644 166.962 124.6 166.968 124.555C166.973 124.511 166.987 124.468 167.009 124.43C167.031 124.391 167.06 124.357 167.095 124.329C167.13 124.302 167.17 124.281 167.213 124.269C167.256 124.257 167.301 124.254 167.345 124.259L178.014 125.491C178.103 125.502 178.184 125.548 178.24 125.619C178.295 125.689 178.321 125.778 178.311 125.867C178.297 125.947 178.255 126.018 178.194 126.07C178.132 126.121 178.054 126.15 177.974 126.15Z" fill="#FB8E77"/>
<path d="M170.852 167.891H170.792C170.748 167.88 170.707 167.861 170.671 167.835C170.634 167.809 170.604 167.776 170.581 167.738C170.557 167.699 170.542 167.657 170.535 167.613C170.529 167.568 170.531 167.523 170.542 167.48L175.89 144.837C175.911 144.747 175.966 144.67 176.044 144.621C176.122 144.573 176.215 144.557 176.305 144.578C176.394 144.598 176.472 144.653 176.521 144.731C176.569 144.809 176.585 144.902 176.565 144.991L171.217 167.642C171.195 167.719 171.146 167.787 171.08 167.832C171.013 167.878 170.933 167.898 170.852 167.891Z" fill="#FB8E77"/>
<path d="M159.448 156.478L152.63 140.739C152.612 140.698 152.602 140.654 152.602 140.61C152.601 140.566 152.609 140.522 152.625 140.48C152.641 140.439 152.666 140.402 152.697 140.37C152.727 140.338 152.764 140.312 152.805 140.295C152.846 140.277 152.89 140.267 152.934 140.267C152.978 140.266 153.022 140.274 153.064 140.29C153.105 140.306 153.143 140.331 153.175 140.361C153.207 140.392 153.232 140.429 153.25 140.47L159.765 155.522L171.634 148.793C171.713 148.751 171.806 148.741 171.892 148.765C171.979 148.789 172.053 148.845 172.099 148.921C172.143 148.999 172.154 149.091 172.13 149.176C172.106 149.262 172.049 149.335 171.971 149.379L159.448 156.478Z" fill="#374081"/>
</g>
<defs>
<clipPath id="clip0_10_829">
<rect width="271" height="253" fill="white"/>
</clipPath>
</defs>
</svg>
