<svg width="16" height="9" viewBox="0 0 16 9" fill="none" xmlns="http://www.w3.org/2000/svg">
<path d="M1.38097 8.58382C1.0652 6.53131 0.749437 4.47885 0.433669 2.42633C0.363643 1.97134 0.881339 1.66102 1.24959 1.93724C2.23338 2.67508 3.21713 3.41288 4.20092 4.15072C4.52484 4.39366 4.98632 4.3146 5.21088 3.97771L7.66793 0.29211C7.92758 -0.0973699 8.49983 -0.0973699 8.75949 0.29211L11.2165 3.97771C11.4411 4.3146 11.9026 4.39361 12.2265 4.15072C13.2103 3.41288 14.194 2.67508 15.1778 1.93724C15.5461 1.66102 16.0638 1.97134 15.9938 2.42633C15.678 4.47885 15.3623 6.53131 15.0465 8.58382H1.38097Z" fill="#FFB743"/>
</svg>
