<svg width="22" height="24" viewBox="0 0 22 24" fill="none" xmlns="http://www.w3.org/2000/svg">
<path d="M17.5074 16.1435C16.3575 16.1435 15.3214 16.64 14.6024 17.43L8.13493 13.4243C8.3076 12.9823 8.40337 12.5022 8.40337 12C8.40337 11.4975 8.3076 11.0174 8.13493 10.5756L14.6024 6.56981C15.3214 7.35973 16.3575 7.85649 17.5074 7.85649C19.6735 7.85649 21.4357 6.09429 21.4357 3.92815C21.4357 1.76202 19.6735 0 17.5074 0C15.3412 0 13.579 1.7622 13.579 3.92834C13.579 4.43059 13.675 4.9107 13.8474 5.35271L7.38017 9.35832C6.66112 8.5684 5.62511 8.07164 4.47521 8.07164C2.30908 8.07164 0.546875 9.83403 0.546875 12C0.546875 14.1661 2.30908 15.9283 4.47521 15.9283C5.62511 15.9283 6.66112 15.4317 7.38017 14.6416L13.8474 18.6472C13.675 19.0893 13.579 19.5694 13.579 20.0718C13.579 22.2377 15.3412 24 17.5074 24C19.6735 24 21.4357 22.2377 21.4357 20.0718C21.4357 17.9057 19.6735 16.1435 17.5074 16.1435ZM15.0114 3.92834C15.0114 2.55212 16.1311 1.43243 17.5074 1.43243C18.8836 1.43243 20.0033 2.55212 20.0033 3.92834C20.0033 5.30455 18.8836 6.42424 17.5074 6.42424C16.1311 6.42424 15.0114 5.30455 15.0114 3.92834ZM4.47521 14.4959C3.09881 14.4959 1.97912 13.3762 1.97912 12C1.97912 10.6238 3.09881 9.50407 4.47521 9.50407C5.85143 9.50407 6.97093 10.6238 6.97093 12C6.97093 13.3762 5.85143 14.4959 4.47521 14.4959ZM15.0114 20.0716C15.0114 18.6954 16.1311 17.5757 17.5074 17.5757C18.8836 17.5757 20.0033 18.6954 20.0033 20.0716C20.0033 21.4478 18.8836 22.5675 17.5074 22.5675C16.1311 22.5675 15.0114 21.4478 15.0114 20.0716Z" fill="#47A082"/>
</svg>
