<svg width="24" height="24" viewBox="0 0 24 24" fill="none" xmlns="http://www.w3.org/2000/svg">
<path d="M12.0001 22.75C6.80008 22.75 2.58008 18.52 2.58008 13.33C2.58008 11.46 3.13008 9.65 4.17008 8.09C4.40008 7.75 4.87008 7.65 5.21008 7.88C5.55008 8.11 5.65008 8.58 5.42008 8.92C4.55008 10.22 4.09008 11.75 4.09008 13.32C4.09008 17.69 7.64008 21.24 12.0101 21.24C16.3801 21.24 19.9301 17.69 19.9301 13.32C19.9301 8.95 16.3701 5.4 12.0001 5.4C11.0801 5.4 10.1801 5.53 9.33008 5.79C8.93008 5.91 8.51008 5.69 8.39008 5.29C8.27008 4.89 8.49008 4.47 8.89008 4.35C9.89008 4.05 10.9301 3.89 12.0001 3.89C17.2001 3.89 21.4201 8.12 21.4201 13.31C21.4201 18.5 17.2001 22.75 12.0001 22.75Z" fill="#47A082"/>
<path d="M7.86987 6.07C7.69987 6.07 7.51987 6.01 7.37987 5.89C7.05987 5.61 7.02987 5.14 7.29987 4.83L10.1899 1.51C10.4599 1.2 10.9399 1.16 11.2499 1.44C11.5599 1.71 11.5899 2.19 11.3199 2.5L8.42987 5.81C8.27987 5.98 8.06987 6.07 7.86987 6.07Z" fill="#47A082"/>
<path d="M11.2401 8.53C11.0901 8.53 10.9301 8.48 10.8001 8.39L7.42008 5.92C7.09008 5.68 7.02008 5.21 7.26008 4.88C7.50008 4.54 7.97008 4.47 8.31008 4.71L11.6801 7.17C12.0101 7.41 12.0901 7.88 11.8401 8.22C11.7001 8.43 11.4701 8.53 11.2401 8.53Z" fill="#47A082"/>
</svg>
