<svg width="24" height="24" viewBox="0 0 24 24" fill="none" xmlns="http://www.w3.org/2000/svg">
<path d="M15.24 22.27H15.11C10.67 22.27 8.53002 20.52 8.16002 16.6C8.12002 16.19 8.42002 15.82 8.84002 15.78C9.25002 15.74 9.62002 16.05 9.66002 16.46C9.95002 19.6 11.43 20.77 15.12 20.77H15.25C19.32 20.77 20.76 19.33 20.76 15.26V8.74001C20.76 4.67001 19.32 3.23001 15.25 3.23001H15.12C11.41 3.23001 9.93002 4.42001 9.66002 7.62001C9.61002 8.03001 9.27002 8.34001 8.84002 8.30001C8.42002 8.27001 8.12001 7.90001 8.15001 7.49001C8.49001 3.51001 10.64 1.73001 15.11 1.73001H15.24C20.15 1.73001 22.25 3.83001 22.25 8.74001V15.26C22.25 20.17 20.15 22.27 15.24 22.27Z" fill="#47A082"/>
<path d="M14.88 12.75H2C1.59 12.75 1.25 12.41 1.25 12C1.25 11.59 1.59 11.25 2 11.25H14.88C15.29 11.25 15.63 11.59 15.63 12C15.63 12.41 15.3 12.75 14.88 12.75Z" fill="#47A082"/>
<path d="M12.6498 16.1C12.4598 16.1 12.2698 16.03 12.1198 15.88C11.8298 15.59 11.8298 15.11 12.1198 14.82L14.9398 12L12.1198 9.18C11.8298 8.89 11.8298 8.41 12.1198 8.12C12.4098 7.83 12.8898 7.83 13.1798 8.12L16.5298 11.47C16.8198 11.76 16.8198 12.24 16.5298 12.53L13.1798 15.88C13.0298 16.03 12.8398 16.1 12.6498 16.1Z" fill="#47A082"/>
</svg>
