<svg width="18" height="17" viewBox="0 0 18 17" fill="none" xmlns="http://www.w3.org/2000/svg">
<path d="M13.2401 16.67C12.8101 16.67 12.2701 16.54 11.6001 16.14L9.36012 14.81C9.19012 14.71 8.81015 14.71 8.64015 14.81L6.40013 16.14C4.98013 16.98 4.12012 16.63 3.74012 16.35C3.36012 16.07 2.76014 15.35 3.13014 13.75L3.66014 11.44C3.70014 11.26 3.60013 10.92 3.47013 10.78L1.61012 8.92001C0.610118 7.92001 0.690119 7.05002 0.830119 6.61002C0.970119 6.17002 1.41012 5.42001 2.80012 5.18001L5.19014 4.78001C5.36014 4.75001 5.63014 4.55001 5.70014 4.40001L7.02012 1.76001C7.67012 0.47001 8.53012 0.27002 8.99012 0.27002C9.45012 0.27002 10.3101 0.46001 10.9601 1.76001L12.2801 4.40001C12.3601 4.55001 12.6301 4.75001 12.7901 4.78001L15.1801 5.18001C16.5701 5.41001 17.0101 6.17002 17.1501 6.61002C17.2901 7.05002 17.3701 7.92001 16.3701 8.92001L14.5101 10.78C14.3801 10.91 14.2801 11.26 14.3201 11.44L14.8501 13.74C15.2201 15.35 14.6301 16.06 14.2401 16.34C14.0601 16.5 13.7201 16.67 13.2401 16.67ZM9.00013 13.24C9.40013 13.24 9.80013 13.33 10.1201 13.52L12.3601 14.85C12.9501 15.2 13.3001 15.2 13.3701 15.14C13.4501 15.08 13.5501 14.75 13.4001 14.09L12.8701 11.79C12.7101 11.11 12.9701 10.23 13.4601 9.74002L15.3201 7.88002C15.6901 7.51002 15.7701 7.22001 15.7301 7.09001C15.6901 6.96001 15.4601 6.77002 14.9401 6.69002L12.5501 6.29001C11.9101 6.18001 11.2301 5.68002 10.9401 5.10002L9.62013 2.46002C9.39013 2.01002 9.14012 1.80002 8.99012 1.80002C8.84012 1.80002 8.59012 2.00002 8.36012 2.46002L7.04014 5.10002C6.75014 5.68002 6.07013 6.18001 5.43013 6.29001L3.04014 6.69002C2.52014 6.78002 2.29013 6.96001 2.25013 7.09001C2.21013 7.22001 2.29014 7.51002 2.66014 7.88002L4.52012 9.74002C5.01012 10.23 5.27012 11.12 5.11012 11.79L4.58012 14.1C4.43012 14.77 4.53012 15.1 4.61012 15.15C4.69012 15.21 5.04013 15.21 5.62013 14.86L7.86012 13.53C8.20012 13.34 8.60013 13.24 9.00013 13.24Z" fill="#47A082"/>
</svg>
